<svg xmlns="http://www.w3.org/2000/svg" width="145" height="33" viewBox="0 0 145 33">
    <g fill="none" fill-rule="evenodd">
        <g fill="#FFF">
            <path d="M55.986 16.094c-.011 3.21-1.174 5.978-3.49 8.28-2.316 2.306-5.084 3.454-8.295 3.442-3.214-.009-5.97-1.166-8.276-3.462-2.302-2.322-3.447-5.099-3.441-8.336.014-3.239 1.163-6.008 3.458-8.314 1.18-1.153 2.456-2.012 3.822-2.572 1.368-.587 2.868-.878 4.505-.869 1.622.005 3.183.343 4.692 1.023a11.008 11.008 0 0 1 3.896 2.817l-4.2 3.864c-.503-.568-1.182-1.042-2.045-1.424l-1.158-.38a5.704 5.704 0 0 0-1.199-.13c-1.702-.005-3.132.577-4.288 1.754-1.16 1.168-1.743 2.588-1.745 4.25-.006 1.635.576 3.062 1.748 4.263 1.17 1.183 2.588 1.772 4.25 1.776a6.165 6.165 0 0 0 3.212-.87c.989-.61 1.747-1.487 2.277-2.644l-5.198-.02.014-4.724 11.342.032.094 1.45.025.794zM87.986 20.291c-1.18 1.175-2.584 1.764-4.223 1.756-1.68-.009-3.101-.592-4.247-1.749-1.153-1.176-1.725-2.604-1.725-4.262.011-1.663.602-3.08 1.779-4.251 1.18-1.172 2.593-1.757 4.226-1.754 1.621.006 3.022.612 4.22 1.81 1.192 1.202 1.787 2.615 1.774 4.232 0 1.642-.602 3.05-1.804 4.218m4.103-12.533c-2.302-2.324-5.059-3.489-8.272-3.496-3.234-.01-6.006 1.138-8.296 3.444-2.3 2.283-3.45 5.05-3.462 8.314-.009 3.216 1.126 5.985 3.411 8.305 2.283 2.317 5.043 3.483 8.276 3.492 3.23.009 5.998-1.14 8.292-3.443 2.316-2.304 3.484-5.066 3.493-8.286.008-3.239-1.143-6.016-3.442-8.33M136.929 16.07c.008-1.615-.586-3.025-1.78-4.23-1.192-1.197-2.593-1.801-4.219-1.809-1.637-.002-3.042.58-4.223 1.752-1.18 1.172-1.774 2.597-1.779 4.253-.008 1.66.57 3.081 1.717 4.262 1.156 1.16 2.574 1.746 4.253 1.746 1.633.004 3.047-.576 4.223-1.755 1.2-1.17 1.803-2.577 1.808-4.218m5.732.021c-.005 3.215-1.168 5.971-3.487 8.285-2.296 2.302-5.064 3.45-8.298 3.44-3.234-.01-5.988-1.175-8.267-3.493-2.282-2.322-3.425-5.09-3.413-8.302.014-3.26 1.156-6.03 3.459-8.318 2.295-2.305 5.063-3.455 8.3-3.442 3.214.007 5.966 1.174 8.273 3.495 2.299 2.319 3.445 5.096 3.433 8.335M17.764 16.07c.009-1.615-.586-3.025-1.777-4.23-1.199-1.197-2.6-1.801-4.219-1.809-1.634-.002-3.043.58-4.231 1.752-1.171 1.172-1.768 2.597-1.773 4.253-.006 1.66.567 3.081 1.72 4.262 1.147 1.16 2.57 1.746 4.25 1.746 1.636.004 3.041-.576 4.226-1.755 1.197-1.17 1.8-2.577 1.804-4.218m5.736.021c-.01 3.215-1.172 5.971-3.491 8.285-2.293 2.302-5.061 3.45-8.295 3.44-3.234-.01-5.991-1.175-8.272-3.493-2.283-2.322-3.419-5.09-3.41-8.302.008-3.26 1.164-6.03 3.456-8.318 2.303-2.305 5.063-3.455 8.3-3.442 3.212.007 5.971 1.174 8.268 3.495 2.312 2.319 3.455 5.096 3.444 8.335M113.108 14.692c1.945-1.027 2.47-2.424 2.47-4.155 0-1.302-.272-2.736-1.346-3.766-1.74-1.814-3.929-1.903-7.976-1.903h-7.682v22.319h7.917c4.04 0 5.995-.136 8.197-1.865 1.454-1.123 2.217-3.34 2.217-5.133 0-.934.056-4.215-3.797-5.497zm-9.067-5.303l2.83-.022c.938 0 3.026-.04 3.026 1.618 0 1.792-2.2 1.573-2.985 1.573h-2.876l.005-3.17zm3.878 13.348l-3.928.022.005-5.333h3.938c1.244 0 3.328.307 3.328 2.66 0 1.995-1.132 2.651-3.343 2.651zM58.462 4.9h5.672v17.585h6.707l3.484 4.693H58.462z"/>
        </g>
    </g>
</svg>
