<svg xmlns="http://www.w3.org/2000/svg" xmlns:xlink="http://www.w3.org/1999/xlink" viewBox="0 0 767.15 767.15"><defs><style>.cls-1{fill:none;}.cls-2{fill:#fff;}.cls-3{clip-path:url(#clip-path);}.cls-4{fill:url(#Gradiente_sem_nome_2);}.cls-5{clip-path:url(#clip-path-2);}</style><clipPath id="clip-path" transform="translate(175.45 173.73)"><polygon class="cls-1" points="127.28 402.5 288.97 402.5 399.06 288.97 399.06 127.28 288.97 17.2 127.28 17.2 17.2 127.28 17.2 288.97 127.28 402.5"/></clipPath><linearGradient id="Gradiente_sem_nome_2" x1="-408.14" y1="579.66" x2="-405.89" y2="579.66" gradientTransform="matrix(0, 241.79, -241.79, 0, 140361.68, 98620.16)" gradientUnits="userSpaceOnUse"><stop offset="0" stop-color="#ee7262"/><stop offset="0" stop-color="#ee7262"/><stop offset="1" stop-color="#e53c35"/></linearGradient><clipPath id="clip-path-2" transform="translate(175.45 173.73)"><rect class="cls-1" width="419.7" height="423.14"/></clipPath></defs><g id="Camada_2" data-name="Camada 2"><g id="Camada_1-2" data-name="Camada 1"><polygon class="cls-2" points="295.85 173.73 175.45 294.13 175.45 476.46 295.85 596.87 471.3 596.87 595.14 476.46 595.14 294.13 471.3 173.73 295.85 173.73"/><g class="cls-3"><rect class="cls-4" x="-63.1" y="-61.38" width="542.46" height="542.46" transform="translate(88.02 382.36) rotate(-45)"/></g><g class="cls-5"><path class="cls-2" d="M313.05,165.13s-17.2,3.44-27.52,31l-9.2,28.06s-4.56,2.9-4.56-5.35v-138a18.92,18.92,0,1,0-37.84,0V194.23c-1.54-.53-3.08-1.07-4.66-1.51V59a17.7,17.7,0,0,0-35.4,0V189.92c-1.58.18-3.11.5-4.66.77V77.4a18.92,18.92,0,0,0-37.84,0V195.09l-6.88,2.51V122.12a15.48,15.48,0,1,0-31,0V270.05a15.47,15.47,0,0,0,.31,3c-.22,2.59-.37,5.19-.37,7.83,0,50.63,40.86,91.67,91.26,91.67,48.12,0,87.45-37.42,90.93-84.86l38-105.35s10.32-24.08-20.64-17.2" transform="translate(175.45 173.73)"/></g></g></g></svg>