<?xml version="1.0" encoding="UTF-8"?>
<svg width="196px" height="33px" viewBox="0 0 196 33" version="1.1" xmlns="http://www.w3.org/2000/svg" xmlns:xlink="http://www.w3.org/1999/xlink">
    <!-- Generator: Sketch 43.2 (39069) - http://www.bohemiancoding.com/sketch -->
    <title>slogan-preto</title>
    <desc>Created with Sketch.</desc>
    <defs></defs>
    <g id="Page-1" stroke="none" stroke-width="1" fill="none" fill-rule="evenodd">
        <g id="banner-footer-aberto-NOVO" transform="translate(-495.000000, -1154.000000)" fill="#1F1F1F">
            <g id="Group" transform="translate(310.000000, 716.000000)">
                <g id="Group-8">
                    <g id="logo-slogan" transform="translate(25.000000, 438.000000)">
                        <path d="M167.752,8.432 L167.752,8.687 C167.752,9.23100272 167.689667,9.76366406 167.565,10.285 C167.440333,10.8063359 167.233501,11.270998 166.9445,11.679 C166.655499,12.087002 166.273002,12.4128321 165.797,12.6565 C165.320998,12.9001679 164.726004,13.022 164.012,13.022 C163.241329,13.022 162.601003,12.8973346 162.091,12.648 C161.580997,12.3986654 161.170168,12.0133359 160.8585,11.492 C160.546832,10.9706641 160.325834,10.3161706 160.1955,9.5285 C160.065166,8.74082939 160,7.80300544 160,6.715 C160,5.62699456 160.065166,4.6891706 160.1955,3.9015 C160.325834,3.11382939 160.546832,2.45933594 160.8585,1.938 C161.170168,1.41666406 161.583831,1.03133458 162.0995,0.782 C162.615169,0.53266542 163.258329,0.408 164.029,0.408 C164.890338,0.408 165.564664,0.546831945 166.052,0.8245 C166.539336,1.10216805 166.904832,1.43933135 167.1485,1.836 C167.392168,2.23266865 167.542333,2.64916448 167.599,3.0855 C167.655667,3.52183551 167.684,3.89866508 167.684,4.216 L167.684,4.437 L165.746,4.437 L165.746,4.233 C165.746,3.94966525 165.7205,3.66350145 165.6695,3.3745 C165.6185,3.08549856 165.527834,2.8276678 165.3975,2.601 C165.267166,2.3743322 165.091501,2.19300068 164.8705,2.057 C164.649499,1.92099932 164.363335,1.85866661 164.012,1.87 C163.649332,1.87 163.337668,1.93516601 163.077,2.0655 C162.816332,2.19583398 162.601001,2.43949821 162.431,2.7965 C162.260999,3.15350178 162.136334,3.64366355 162.057,4.267 C161.977666,4.89033645 161.938,5.68932846 161.938,6.664 C161.938,7.63867154 161.977666,8.44333016 162.057,9.078 C162.136334,9.71266984 162.260999,10.2141648 162.431,10.5825 C162.601001,10.9508352 162.816332,11.2058326 163.077,11.3475 C163.337668,11.4891674 163.649332,11.56 164.012,11.56 C164.420002,11.56 164.742999,11.4608343 164.981,11.2625 C165.219001,11.0641657 165.400333,10.8176681 165.525,10.523 C165.649667,10.2283319 165.729,9.9110017 165.763,9.571 C165.797,9.2309983 165.814,8.91933475 165.814,8.636 L165.814,8.432 L167.752,8.432 Z M170.472,8.211 C170.472,8.78900289 170.491833,9.29616448 170.5315,9.7325 C170.571167,10.1688355 170.647666,10.5286652 170.761,10.812 C170.874334,11.0953347 171.032999,11.3078326 171.237,11.4495 C171.441001,11.5911674 171.707332,11.662 172.036,11.662 C172.376002,11.662 172.647999,11.5911674 172.852,11.4495 C173.056001,11.3078326 173.214666,11.0953347 173.328,10.812 C173.441334,10.5286652 173.517833,10.1688355 173.5575,9.7325 C173.597167,9.29616448 173.617,8.78900289 173.617,8.211 C173.617,7.70099745 173.597167,7.23633543 173.5575,6.817 C173.517833,6.39766457 173.441334,6.03500153 173.328,5.729 C173.214666,5.42299847 173.056001,5.18500085 172.852,5.015 C172.647999,4.84499915 172.376002,4.76 172.036,4.76 C171.707332,4.76 171.441001,4.84499915 171.237,5.015 C171.032999,5.18500085 170.874334,5.42299847 170.761,5.729 C170.647666,6.03500153 170.571167,6.39766457 170.5315,6.817 C170.491833,7.23633543 170.472,7.70099745 170.472,8.211 Z M172.036,13.022 C171.40133,13.022 170.868669,12.9058345 170.438,12.6735 C170.007331,12.4411655 169.658835,12.1125021 169.3925,11.6875 C169.126165,11.2624979 168.933501,10.7553363 168.8145,10.166 C168.695499,9.57666372 168.636,8.92500357 168.636,8.211 C168.636,7.49699643 168.689833,6.84533628 168.7975,6.256 C168.905167,5.66666372 169.086499,5.15950212 169.3415,4.7345 C169.596501,4.30949787 169.942164,3.98083449 170.3785,3.7485 C170.814836,3.51616551 171.36733,3.4 172.036,3.4 C172.693337,3.4 173.242998,3.51616551 173.685,3.7485 C174.127002,3.98083449 174.478332,4.30949787 174.739,4.7345 C174.999668,5.15950212 175.183833,5.66666372 175.2915,6.256 C175.399167,6.84533628 175.453,7.49699643 175.453,8.211 C175.453,8.92500357 175.393501,9.57666372 175.2745,10.166 C175.155499,10.7553363 174.962835,11.2624979 174.6965,11.6875 C174.430165,12.1125021 174.078836,12.4411655 173.6425,12.6735 C173.206164,12.9058345 172.67067,13.022 172.036,13.022 Z M176.864,3.638 L178.598,3.638 L178.598,4.709 L178.649,4.709 C178.875668,4.30099796 179.195831,3.98083449 179.6095,3.7485 C180.023169,3.51616551 180.484997,3.4 180.995,3.4 C181.346335,3.4 181.660832,3.44249957 181.9385,3.5275 C182.216168,3.61250043 182.454166,3.75133237 182.6525,3.944 C182.850834,4.13666763 183.003833,4.39166508 183.1115,4.709 C183.219167,5.02633492 183.273,5.41733101 183.273,5.882 L183.273,12.784 L181.437,12.784 L181.437,6.511 C181.437,5.89899694 181.343501,5.47116788 181.1565,5.2275 C180.969499,4.98383211 180.638002,4.862 180.162,4.862 C179.787998,4.862 179.450835,5.00649855 179.1505,5.2955 C178.850165,5.58450144 178.7,6.03499694 178.7,6.647 L178.7,12.784 L176.864,12.784 L176.864,3.638 Z M184.225,3.638 L185.483,3.638 L185.483,1.037 L187.319,1.037 L187.319,3.638 L188.815,3.638 L188.815,4.998 L187.319,4.998 L187.319,10.455 C187.319,10.8176685 187.378499,11.0698326 187.4975,11.2115 C187.616501,11.3531674 187.834665,11.424 188.152,11.424 C188.424001,11.424 188.644999,11.4070002 188.815,11.373 L188.815,12.733 C188.418331,12.8350005 187.925336,12.886 187.336,12.886 C187.029998,12.886 186.760834,12.8576669 186.5285,12.801 C186.296166,12.744333 186.103501,12.6366675 185.9505,12.478 C185.797499,12.3193325 185.681334,12.0955014 185.602,11.8065 C185.522666,11.5174986 185.483,11.140669 185.483,10.676 L185.483,4.998 L184.225,4.998 L184.225,3.638 Z M194.289,7.191 L194.289,6.698 C194.289,6.11999711 194.184168,5.63550195 193.9745,5.2445 C193.764832,4.85349804 193.399336,4.658 192.878,4.658 C192.583332,4.658 192.339668,4.72316601 192.147,4.8535 C191.954332,4.98383398 191.798501,5.15949889 191.6795,5.3805 C191.560499,5.6015011 191.4755,5.85366525 191.4245,6.137 C191.3735,6.42033475 191.348,6.70933186 191.348,7.004 L191.348,7.191 L194.289,7.191 Z M191.348,8.449 L191.348,8.976 C191.348,9.28200153 191.362167,9.59933169 191.3905,9.928 C191.418833,10.2566683 191.486833,10.5569986 191.5945,10.829 C191.702167,11.1010014 191.857999,11.3248325 192.062,11.5005 C192.266001,11.6761675 192.537998,11.764 192.878,11.764 C193.206668,11.764 193.467332,11.6846675 193.66,11.526 C193.852668,11.3673325 193.999999,11.1775011 194.102,10.9565 C194.204001,10.7354989 194.269167,10.5088345 194.2975,10.2765 C194.325833,10.0441655 194.34,9.86000068 194.34,9.724 L196.074,9.724 C196.074,10.7553385 195.787836,11.5628304 195.2155,12.1465 C194.643164,12.7301696 193.858338,13.022 192.861,13.022 C192.486998,13.022 192.101669,12.9766671 191.705,12.886 C191.308331,12.7953329 190.948502,12.5913349 190.6255,12.274 C190.302498,11.9566651 190.036168,11.4863364 189.8265,10.863 C189.616832,10.2396635 189.512,9.40100527 189.512,8.347 C189.512,7.74633033 189.5545,7.15133628 189.6395,6.562 C189.7245,5.97266372 189.888832,5.44283568 190.1325,4.9725 C190.376168,4.50216431 190.718998,4.12250144 191.161,3.8335 C191.603002,3.54449855 192.180996,3.4 192.895,3.4 C193.52967,3.4 194.056665,3.49349906 194.476,3.6805 C194.895335,3.86750093 195.226832,4.13666491 195.4705,4.488 C195.714168,4.83933509 195.884166,5.26716415 195.9805,5.7715 C196.076834,6.27583586 196.125,6.84533016 196.125,7.48 L196.125,8.449 L191.348,8.449 Z M202.313,11.713 L202.262,11.713 C202.035332,12.121002 201.715169,12.4411655 201.3015,12.6735 C200.887831,12.9058345 200.426003,13.022 199.916,13.022 C199.575998,13.022 199.267168,12.9766671 198.9895,12.886 C198.711832,12.7953329 198.471001,12.6366678 198.267,12.41 C198.062999,12.1833322 197.907167,11.8773353 197.7995,11.492 C197.691833,11.1066647 197.638,10.6193363 197.638,10.03 L197.638,3.638 L199.474,3.638 L199.474,10.2 C199.474,10.7100025 199.581666,11.0641657 199.797,11.2625 C200.012334,11.4608343 200.318331,11.56 200.715,11.56 C201.111669,11.56 201.460165,11.4325013 201.7605,11.1775 C202.060835,10.9224987 202.211,10.5400025 202.211,10.03 L202.211,3.638 L204.047,3.638 L204.047,12.784 L202.313,12.784 L202.313,11.713 Z M201.191,0 L203.231,0 L201.429,2.448 L200.171,2.448 L201.191,0 Z M210.49,8.313 C210.49,7.76899728 210.470167,7.28166882 210.4305,6.851 C210.390833,6.42033118 210.311501,6.05766814 210.1925,5.763 C210.073499,5.46833186 209.903501,5.24450076 209.6825,5.0915 C209.461499,4.93849923 209.175335,4.862 208.824,4.862 C208.563332,4.862 208.342334,4.9186661 208.161,5.032 C207.979666,5.1453339 207.832334,5.33233203 207.719,5.593 C207.605666,5.85366797 207.5235,6.19649787 207.4725,6.6215 C207.4215,7.04650212 207.396,7.56499694 207.396,8.177 C207.396,8.69833594 207.415833,9.16583126 207.4555,9.5795 C207.495167,9.99316873 207.571666,10.3473319 207.685,10.642 C207.798334,10.9366681 207.954166,11.1633325 208.1525,11.322 C208.350834,11.4806675 208.614332,11.56 208.943,11.56 C209.260335,11.56 209.518166,11.4835008 209.7165,11.3305 C209.914834,11.1774992 210.070666,10.9593347 210.184,10.676 C210.297334,10.3926653 210.376666,10.0526687 210.422,9.656 C210.467334,9.25933135 210.49,8.81166916 210.49,8.313 Z M210.49,11.662 L210.456,11.662 C210.399333,11.8093341 210.322834,11.9623325 210.2265,12.121 C210.130166,12.2796675 210.005501,12.4269993 209.8525,12.563 C209.699499,12.6990007 209.506834,12.8094996 209.2745,12.8945 C209.042166,12.9795004 208.767335,13.022 208.45,13.022 C207.384661,13.022 206.619669,12.5913376 206.155,11.73 C205.690331,10.8686624 205.458,9.65600782 205.458,8.092 C205.458,7.0719949 205.540166,6.25600306 205.7045,5.644 C205.868834,5.03199694 206.084165,4.558835 206.3505,4.2245 C206.616835,3.89016499 206.917165,3.66916721 207.2515,3.5615 C207.585835,3.45383279 207.928665,3.4 208.28,3.4 C208.790003,3.4 209.220665,3.5161655 209.572,3.7485 C209.923335,3.98083449 210.183999,4.30099796 210.354,4.709 L210.388,4.709 L210.388,0.646 L212.224,0.646 L212.224,12.784 L210.49,12.784 L210.49,11.662 Z M215.471,8.211 C215.471,8.78900289 215.490833,9.29616448 215.5305,9.7325 C215.570167,10.1688355 215.646666,10.5286652 215.76,10.812 C215.873334,11.0953347 216.031999,11.3078326 216.236,11.4495 C216.440001,11.5911674 216.706332,11.662 217.035,11.662 C217.375002,11.662 217.646999,11.5911674 217.851,11.4495 C218.055001,11.3078326 218.213666,11.0953347 218.327,10.812 C218.440334,10.5286652 218.516833,10.1688355 218.5565,9.7325 C218.596167,9.29616448 218.616,8.78900289 218.616,8.211 C218.616,7.70099745 218.596167,7.23633543 218.5565,6.817 C218.516833,6.39766457 218.440334,6.03500153 218.327,5.729 C218.213666,5.42299847 218.055001,5.18500085 217.851,5.015 C217.646999,4.84499915 217.375002,4.76 217.035,4.76 C216.706332,4.76 216.440001,4.84499915 216.236,5.015 C216.031999,5.18500085 215.873334,5.42299847 215.76,5.729 C215.646666,6.03500153 215.570167,6.39766457 215.5305,6.817 C215.490833,7.23633543 215.471,7.70099745 215.471,8.211 Z M217.035,13.022 C216.40033,13.022 215.867669,12.9058345 215.437,12.6735 C215.006331,12.4411655 214.657835,12.1125021 214.3915,11.6875 C214.125165,11.2624979 213.932501,10.7553363 213.8135,10.166 C213.694499,9.57666372 213.635,8.92500357 213.635,8.211 C213.635,7.49699643 213.688833,6.84533628 213.7965,6.256 C213.904167,5.66666372 214.085499,5.15950212 214.3405,4.7345 C214.595501,4.30949787 214.941164,3.98083449 215.3775,3.7485 C215.813836,3.51616551 216.36633,3.4 217.035,3.4 C217.692337,3.4 218.241998,3.51616551 218.684,3.7485 C219.126002,3.98083449 219.477332,4.30949787 219.738,4.7345 C219.998668,5.15950212 220.182833,5.66666372 220.2905,6.256 C220.398167,6.84533628 220.452,7.49699643 220.452,8.211 C220.452,8.92500357 220.392501,9.57666372 220.2735,10.166 C220.154499,10.7553363 219.961835,11.2624979 219.6955,11.6875 C219.429165,12.1125021 219.077836,12.4411655 218.6415,12.6735 C218.205164,12.9058345 217.66967,13.022 217.035,13.022 Z M230.465,7.191 L230.465,6.698 C230.465,6.11999711 230.360168,5.63550195 230.1505,5.2445 C229.940832,4.85349804 229.575336,4.658 229.054,4.658 C228.759332,4.658 228.515668,4.72316601 228.323,4.8535 C228.130332,4.98383398 227.974501,5.15949889 227.8555,5.3805 C227.736499,5.6015011 227.6515,5.85366525 227.6005,6.137 C227.5495,6.42033475 227.524,6.70933186 227.524,7.004 L227.524,7.191 L230.465,7.191 Z M227.524,8.449 L227.524,8.976 C227.524,9.28200153 227.538167,9.59933169 227.5665,9.928 C227.594833,10.2566683 227.662833,10.5569986 227.7705,10.829 C227.878167,11.1010014 228.033999,11.3248325 228.238,11.5005 C228.442001,11.6761675 228.713998,11.764 229.054,11.764 C229.382668,11.764 229.643332,11.6846675 229.836,11.526 C230.028668,11.3673325 230.175999,11.1775011 230.278,10.9565 C230.380001,10.7354989 230.445167,10.5088345 230.4735,10.2765 C230.501833,10.0441655 230.516,9.86000068 230.516,9.724 L232.25,9.724 C232.25,10.7553385 231.963836,11.5628304 231.3915,12.1465 C230.819164,12.7301696 230.034338,13.022 229.037,13.022 C228.662998,13.022 228.277669,12.9766671 227.881,12.886 C227.484331,12.7953329 227.124502,12.5913349 226.8015,12.274 C226.478498,11.9566651 226.212168,11.4863364 226.0025,10.863 C225.792832,10.2396635 225.688,9.40100527 225.688,8.347 C225.688,7.74633033 225.7305,7.15133628 225.8155,6.562 C225.9005,5.97266372 226.064832,5.44283568 226.3085,4.9725 C226.552168,4.50216431 226.894998,4.12250144 227.337,3.8335 C227.779002,3.54449855 228.356996,3.4 229.071,3.4 C229.70567,3.4 230.232665,3.49349906 230.652,3.6805 C231.071335,3.86750093 231.402832,4.13666491 231.6465,4.488 C231.890168,4.83933509 232.060166,5.26716415 232.1565,5.7715 C232.252834,6.27583586 232.301,6.84533016 232.301,7.48 L232.301,8.449 L227.524,8.449 Z M233.899,3.638 L235.633,3.638 L235.633,4.709 L235.684,4.709 C235.910668,4.30099796 236.225165,3.98083449 236.6275,3.7485 C237.029835,3.51616551 237.446331,3.4 237.877,3.4 C238.205668,3.4 238.488999,3.43683297 238.727,3.5105 C238.965001,3.58416704 239.166166,3.68333271 239.3305,3.808 C239.494834,3.93266729 239.630833,4.07999915 239.7385,4.25 C239.846167,4.42000085 239.934,4.60133237 240.002,4.794 C240.262668,4.35199779 240.574332,4.00916788 240.937,3.7655 C241.299668,3.52183211 241.758664,3.4 242.314,3.4 C242.960003,3.4 243.492665,3.58416483 243.912,3.9525 C244.331335,4.32083517 244.541,4.94699558 244.541,5.831 L244.541,12.784 L242.705,12.784 L242.705,6.511 C242.705,5.89899694 242.614334,5.47116788 242.433,5.2275 C242.251666,4.98383211 241.974002,4.862 241.6,4.862 C241.225998,4.862 240.888835,5.00649855 240.5885,5.2955 C240.288165,5.58450144 240.138,6.03499694 240.138,6.647 L240.138,12.784 L238.302,12.784 L238.302,6.511 C238.302,5.89899694 238.211334,5.47116788 238.03,5.2275 C237.848666,4.98383211 237.565335,4.862 237.18,4.862 C236.805998,4.862 236.471668,5.00649855 236.177,5.2955 C235.882332,5.58450144 235.735,6.03499694 235.735,6.647 L235.735,12.784 L233.899,12.784 L233.899,3.638 Z M255.149,8.109 C255.149,7.62166423 255.126334,7.17683535 255.081,6.7745 C255.035666,6.37216465 254.956334,6.02933475 254.843,5.746 C254.729666,5.46266525 254.573834,5.24450076 254.3755,5.0915 C254.177166,4.93849923 253.919335,4.862 253.602,4.862 C253.273332,4.862 253.009834,4.94133254 252.8115,5.1 C252.613166,5.25866746 252.457334,5.48533186 252.344,5.78 C252.230666,6.07466814 252.154167,6.42883126 252.1145,6.8425 C252.074833,7.25616873 252.055,7.72366406 252.055,8.245 C252.055,8.85700306 252.086166,9.37549787 252.1485,9.8005 C252.210834,10.2255021 252.301499,10.568332 252.4205,10.829 C252.539501,11.089668 252.686832,11.2766661 252.8625,11.39 C253.038168,11.5033339 253.244999,11.56 253.483,11.56 C253.834335,11.56 254.120499,11.4835008 254.3415,11.3305 C254.562501,11.1774992 254.732499,10.9536681 254.8515,10.659 C254.970501,10.3643319 255.049833,10.0016688 255.0895,9.571 C255.129167,9.14033118 255.149,8.65300272 255.149,8.109 Z M255.047,11.713 L255.013,11.713 C254.842999,12.121002 254.579502,12.4411655 254.2225,12.6735 C253.865498,12.9058345 253.432003,13.022 252.922,13.022 C252.559332,13.022 252.210835,12.9511674 251.8765,12.8095 C251.542165,12.6678326 251.244668,12.4185018 250.984,12.0615 C250.723332,11.7044982 250.513667,11.2256697 250.355,10.625 C250.196333,10.0243303 250.117,9.25933798 250.117,8.33 C250.117,6.76599218 250.349331,5.55333764 250.814,4.692 C251.278669,3.83066236 252.043661,3.4 253.109,3.4 C253.426335,3.4 253.701166,3.44249957 253.9335,3.5275 C254.165834,3.61250042 254.358499,3.72299932 254.5115,3.859 C254.664501,3.99500068 254.789166,4.14233254 254.8855,4.301 C254.981834,4.45966746 255.058333,4.61266593 255.115,4.76 L255.149,4.76 L255.149,3.638 L256.883,3.638 L256.883,15.776 L255.047,15.776 L255.047,11.713 Z M263.326,11.713 L263.275,11.713 C263.048332,12.121002 262.728169,12.4411655 262.3145,12.6735 C261.900831,12.9058345 261.439003,13.022 260.929,13.022 C260.588998,13.022 260.280168,12.9766671 260.0025,12.886 C259.724832,12.7953329 259.484001,12.6366678 259.28,12.41 C259.075999,12.1833322 258.920167,11.8773353 258.8125,11.492 C258.704833,11.1066647 258.651,10.6193363 258.651,10.03 L258.651,3.638 L260.487,3.638 L260.487,10.2 C260.487,10.7100025 260.594666,11.0641657 260.81,11.2625 C261.025334,11.4608343 261.331331,11.56 261.728,11.56 C262.124669,11.56 262.473165,11.4325013 262.7735,11.1775 C263.073835,10.9224987 263.224,10.5400025 263.224,10.03 L263.224,3.638 L265.06,3.638 L265.06,12.784 L263.326,12.784 L263.326,11.713 Z M271.35,7.191 L271.35,6.698 C271.35,6.11999711 271.245168,5.63550195 271.0355,5.2445 C270.825832,4.85349804 270.460336,4.658 269.939,4.658 C269.644332,4.658 269.400668,4.72316601 269.208,4.8535 C269.015332,4.98383398 268.859501,5.15949889 268.7405,5.3805 C268.621499,5.6015011 268.5365,5.85366525 268.4855,6.137 C268.4345,6.42033475 268.409,6.70933186 268.409,7.004 L268.409,7.191 L271.35,7.191 Z M268.409,8.449 L268.409,8.976 C268.409,9.28200153 268.423167,9.59933169 268.4515,9.928 C268.479833,10.2566683 268.547833,10.5569986 268.6555,10.829 C268.763167,11.1010014 268.918999,11.3248325 269.123,11.5005 C269.327001,11.6761675 269.598998,11.764 269.939,11.764 C270.267668,11.764 270.528332,11.6846675 270.721,11.526 C270.913668,11.3673325 271.060999,11.1775011 271.163,10.9565 C271.265001,10.7354989 271.330167,10.5088345 271.3585,10.2765 C271.386833,10.0441655 271.401,9.86000068 271.401,9.724 L273.135,9.724 C273.135,10.7553385 272.848836,11.5628304 272.2765,12.1465 C271.704164,12.7301696 270.919338,13.022 269.922,13.022 C269.547998,13.022 269.162669,12.9766671 268.766,12.886 C268.369331,12.7953329 268.009502,12.5913349 267.6865,12.274 C267.363498,11.9566651 267.097168,11.4863364 266.8875,10.863 C266.677832,10.2396635 266.573,9.40100527 266.573,8.347 C266.573,7.74633033 266.6155,7.15133628 266.7005,6.562 C266.7855,5.97266372 266.949832,5.44283568 267.1935,4.9725 C267.437168,4.50216431 267.779998,4.12250144 268.222,3.8335 C268.664002,3.54449855 269.241996,3.4 269.956,3.4 C270.59067,3.4 271.117665,3.49349906 271.537,3.6805 C271.956335,3.86750093 272.287832,4.13666491 272.5315,4.488 C272.775168,4.83933509 272.945166,5.26716415 273.0415,5.7715 C273.137834,6.27583586 273.186,6.84533016 273.186,7.48 L273.186,8.449 L268.409,8.449 Z M278.014,3.638 L279.986,3.638 L281.584,10.846 L281.618,10.846 L283.063,3.638 L285.018,3.638 L282.604,12.784 L280.462,12.784 L278.014,3.638 Z M287.5,8.211 C287.5,8.78900289 287.519833,9.29616448 287.5595,9.7325 C287.599167,10.1688355 287.675666,10.5286652 287.789,10.812 C287.902334,11.0953347 288.060999,11.3078326 288.265,11.4495 C288.469001,11.5911674 288.735332,11.662 289.064,11.662 C289.404002,11.662 289.675999,11.5911674 289.88,11.4495 C290.084001,11.3078326 290.242666,11.0953347 290.356,10.812 C290.469334,10.5286652 290.545833,10.1688355 290.5855,9.7325 C290.625167,9.29616448 290.645,8.78900289 290.645,8.211 C290.645,7.70099745 290.625167,7.23633543 290.5855,6.817 C290.545833,6.39766457 290.469334,6.03500153 290.356,5.729 C290.242666,5.42299847 290.084001,5.18500085 289.88,5.015 C289.675999,4.84499915 289.404002,4.76 289.064,4.76 C288.735332,4.76 288.469001,4.84499915 288.265,5.015 C288.060999,5.18500085 287.902334,5.42299847 287.789,5.729 C287.675666,6.03500153 287.599167,6.39766457 287.5595,6.817 C287.519833,7.23633543 287.5,7.70099745 287.5,8.211 Z M289.064,13.022 C288.42933,13.022 287.896669,12.9058345 287.466,12.6735 C287.035331,12.4411655 286.686835,12.1125021 286.4205,11.6875 C286.154165,11.2624979 285.961501,10.7553363 285.8425,10.166 C285.723499,9.57666372 285.664,8.92500357 285.664,8.211 C285.664,7.49699643 285.717833,6.84533628 285.8255,6.256 C285.933167,5.66666372 286.114499,5.15950212 286.3695,4.7345 C286.624501,4.30949787 286.970164,3.98083449 287.4065,3.7485 C287.842836,3.51616551 288.39533,3.4 289.064,3.4 C289.721337,3.4 290.270998,3.51616551 290.713,3.7485 C291.155002,3.98083449 291.506332,4.30949787 291.767,4.7345 C292.027668,5.15950212 292.211833,5.66666372 292.3195,6.256 C292.427167,6.84533628 292.481,7.49699643 292.481,8.211 C292.481,8.92500357 292.421501,9.57666372 292.3025,10.166 C292.183499,10.7553363 291.990835,11.2624979 291.7245,11.6875 C291.458165,12.1125021 291.106836,12.4411655 290.6705,12.6735 C290.234164,12.9058345 289.69867,13.022 289.064,13.022 Z M300.063,9.452 C300.029,9.99600272 299.952501,10.4889978 299.8335,10.931 C299.714499,11.3730022 299.536001,11.7498318 299.298,12.0615 C299.059999,12.3731682 298.748335,12.6111658 298.363,12.7755 C297.977665,12.9398342 297.501669,13.022 296.935,13.022 C296.26633,13.022 295.713836,12.9058345 295.2775,12.6735 C294.841164,12.4411655 294.495501,12.1125021 294.2405,11.6875 C293.985499,11.2624979 293.804167,10.7553363 293.6965,10.166 C293.588833,9.57666372 293.535,8.92500357 293.535,8.211 C293.535,7.49699643 293.588833,6.84533628 293.6965,6.256 C293.804167,5.66666372 293.985499,5.15950212 294.2405,4.7345 C294.495501,4.30949787 294.841164,3.98083449 295.2775,3.7485 C295.713836,3.5161655 296.26633,3.4 296.935,3.4 C297.615003,3.38866661 298.161831,3.4991655 298.5755,3.7315 C298.989169,3.96383449 299.306499,4.2499983 299.5275,4.59 C299.748501,4.9300017 299.895833,5.29266474 299.9695,5.678 C300.043167,6.06333526 300.08,6.39766525 300.08,6.681 L298.244,6.681 C298.244,6.46566559 298.227,6.24183449 298.193,6.0095 C298.159,5.7771655 298.093834,5.56750093 297.9975,5.3805 C297.901166,5.19349906 297.768001,5.04050059 297.598,4.9215 C297.427999,4.8024994 297.207001,4.74866661 296.935,4.76 C296.606332,4.76 296.340001,4.84499915 296.136,5.015 C295.931999,5.18500085 295.773334,5.42299847 295.66,5.729 C295.546666,6.03500153 295.470167,6.39766457 295.4305,6.817 C295.390833,7.23633543 295.371,7.70099745 295.371,8.211 C295.371,8.72100255 295.390833,9.18566457 295.4305,9.605 C295.470167,10.0243354 295.546666,10.3869985 295.66,10.693 C295.773334,10.9990015 295.931999,11.2369991 296.136,11.407 C296.340001,11.5770008 296.606332,11.662 296.935,11.662 C297.445003,11.6733334 297.804832,11.4806686 298.0145,11.084 C298.224168,10.6873313 298.329,10.1433368 298.329,9.452 L300.063,9.452 Z M305.962,7.191 L305.962,6.698 C305.962,6.11999711 305.857168,5.63550195 305.6475,5.2445 C305.437832,4.85349804 305.072336,4.658 304.551,4.658 C304.256332,4.658 304.012668,4.72316601 303.82,4.8535 C303.627332,4.98383398 303.471501,5.15949889 303.3525,5.3805 C303.233499,5.6015011 303.1485,5.85366525 303.0975,6.137 C303.0465,6.42033475 303.021,6.70933186 303.021,7.004 L303.021,7.191 L305.962,7.191 Z M303.021,8.449 L303.021,8.976 C303.021,9.28200153 303.035167,9.59933169 303.0635,9.928 C303.091833,10.2566683 303.159833,10.5569986 303.2675,10.829 C303.375167,11.1010014 303.530999,11.3248325 303.735,11.5005 C303.939001,11.6761675 304.210998,11.764 304.551,11.764 C304.879668,11.764 305.140332,11.6846675 305.333,11.526 C305.525668,11.3673325 305.672999,11.1775011 305.775,10.9565 C305.877001,10.7354989 305.942167,10.5088345 305.9705,10.2765 C305.998833,10.0441655 306.013,9.86000068 306.013,9.724 L307.747,9.724 C307.747,10.7553385 307.460836,11.5628304 306.8885,12.1465 C306.316164,12.7301696 305.531338,13.022 304.534,13.022 C304.159998,13.022 303.774669,12.9766671 303.378,12.886 C302.981331,12.7953329 302.621502,12.5913349 302.2985,12.274 C301.975498,11.9566651 301.709168,11.4863364 301.4995,10.863 C301.289832,10.2396635 301.185,9.40100527 301.185,8.347 C301.185,7.74633033 301.2275,7.15133628 301.3125,6.562 C301.3975,5.97266372 301.561832,5.44283568 301.8055,4.9725 C302.049168,4.50216431 302.391998,4.12250144 302.834,3.8335 C303.276002,3.54449855 303.853996,3.4 304.568,3.4 C305.20267,3.4 305.729665,3.49349906 306.149,3.6805 C306.568335,3.86750093 306.899832,4.13666491 307.1435,4.488 C307.387168,4.83933509 307.557166,5.26716415 307.6535,5.7715 C307.749834,6.27583586 307.798,6.84533016 307.798,7.48 L307.798,8.449 L303.021,8.449 Z M303.735,0 L305.571,0 L307.084,2.448 L305.537,2.448 L304.619,0.952 L303.65,2.448 L302.188,2.448 L303.735,0 Z M319.562,9.452 C319.528,9.99600272 319.451501,10.4889978 319.3325,10.931 C319.213499,11.3730022 319.035001,11.7498318 318.797,12.0615 C318.558999,12.3731682 318.247335,12.6111658 317.862,12.7755 C317.476665,12.9398342 317.000669,13.022 316.434,13.022 C315.76533,13.022 315.212836,12.9058345 314.7765,12.6735 C314.340164,12.4411655 313.994501,12.1125021 313.7395,11.6875 C313.484499,11.2624979 313.303167,10.7553363 313.1955,10.166 C313.087833,9.57666372 313.034,8.92500357 313.034,8.211 C313.034,7.49699643 313.087833,6.84533628 313.1955,6.256 C313.303167,5.66666372 313.484499,5.15950212 313.7395,4.7345 C313.994501,4.30949787 314.340164,3.98083449 314.7765,3.7485 C315.212836,3.5161655 315.76533,3.4 316.434,3.4 C317.114003,3.38866661 317.660831,3.4991655 318.0745,3.7315 C318.488169,3.96383449 318.805499,4.2499983 319.0265,4.59 C319.247501,4.9300017 319.394833,5.29266474 319.4685,5.678 C319.542167,6.06333526 319.579,6.39766525 319.579,6.681 L317.743,6.681 C317.743,6.46566559 317.726,6.24183449 317.692,6.0095 C317.658,5.7771655 317.592834,5.56750093 317.4965,5.3805 C317.400166,5.19349906 317.267001,5.04050059 317.097,4.9215 C316.926999,4.8024994 316.706001,4.74866661 316.434,4.76 C316.105332,4.76 315.839001,4.84499915 315.635,5.015 C315.430999,5.18500085 315.272334,5.42299847 315.159,5.729 C315.045666,6.03500153 314.969167,6.39766457 314.9295,6.817 C314.889833,7.23633543 314.87,7.70099745 314.87,8.211 C314.87,8.72100255 314.889833,9.18566457 314.9295,9.605 C314.969167,10.0243354 315.045666,10.3869985 315.159,10.693 C315.272334,10.9990015 315.430999,11.2369991 315.635,11.407 C315.839001,11.5770008 316.105332,11.662 316.434,11.662 C316.944003,11.6733334 317.303832,11.4806686 317.5135,11.084 C317.723168,10.6873313 317.828,10.1433368 317.828,9.452 L319.562,9.452 Z M322.418,8.211 C322.418,8.78900289 322.437833,9.29616448 322.4775,9.7325 C322.517167,10.1688355 322.593666,10.5286652 322.707,10.812 C322.820334,11.0953347 322.978999,11.3078326 323.183,11.4495 C323.387001,11.5911674 323.653332,11.662 323.982,11.662 C324.322002,11.662 324.593999,11.5911674 324.798,11.4495 C325.002001,11.3078326 325.160666,11.0953347 325.274,10.812 C325.387334,10.5286652 325.463833,10.1688355 325.5035,9.7325 C325.543167,9.29616448 325.563,8.78900289 325.563,8.211 C325.563,7.70099745 325.543167,7.23633543 325.5035,6.817 C325.463833,6.39766457 325.387334,6.03500153 325.274,5.729 C325.160666,5.42299847 325.002001,5.18500085 324.798,5.015 C324.593999,4.84499915 324.322002,4.76 323.982,4.76 C323.653332,4.76 323.387001,4.84499915 323.183,5.015 C322.978999,5.18500085 322.820334,5.42299847 322.707,5.729 C322.593666,6.03500153 322.517167,6.39766457 322.4775,6.817 C322.437833,7.23633543 322.418,7.70099745 322.418,8.211 Z M323.982,13.022 C323.34733,13.022 322.814669,12.9058345 322.384,12.6735 C321.953331,12.4411655 321.604835,12.1125021 321.3385,11.6875 C321.072165,11.2624979 320.879501,10.7553363 320.7605,10.166 C320.641499,9.57666372 320.582,8.92500357 320.582,8.211 C320.582,7.49699643 320.635833,6.84533628 320.7435,6.256 C320.851167,5.66666372 321.032499,5.15950212 321.2875,4.7345 C321.542501,4.30949787 321.888164,3.98083449 322.3245,3.7485 C322.760836,3.51616551 323.31333,3.4 323.982,3.4 C324.639337,3.4 325.188998,3.51616551 325.631,3.7485 C326.073002,3.98083449 326.424332,4.30949787 326.685,4.7345 C326.945668,5.15950212 327.129833,5.66666372 327.2375,6.256 C327.345167,6.84533628 327.399,7.49699643 327.399,8.211 C327.399,8.92500357 327.339501,9.57666372 327.2205,10.166 C327.101499,10.7553363 326.908835,11.2624979 326.6425,11.6875 C326.376165,12.1125021 326.024836,12.4411655 325.5885,12.6735 C325.152164,12.9058345 324.61667,13.022 323.982,13.022 Z M328.81,3.638 L330.544,3.638 L330.544,4.709 L330.595,4.709 C330.821668,4.30099796 331.141831,3.98083449 331.5555,3.7485 C331.969169,3.51616551 332.430997,3.4 332.941,3.4 C333.292335,3.4 333.606832,3.44249957 333.8845,3.5275 C334.162168,3.61250043 334.400166,3.75133237 334.5985,3.944 C334.796834,4.13666763 334.949833,4.39166508 335.0575,4.709 C335.165167,5.02633492 335.219,5.41733101 335.219,5.882 L335.219,12.784 L333.383,12.784 L333.383,6.511 C333.383,5.89899694 333.289501,5.47116788 333.1025,5.2275 C332.915499,4.98383211 332.584002,4.862 332.108,4.862 C331.733998,4.862 331.396835,5.00649855 331.0965,5.2955 C330.796165,5.58450144 330.646,6.03499694 330.646,6.647 L330.646,12.784 L328.81,12.784 L328.81,3.638 Z M337.548,4.998 L336.273,4.998 L336.273,3.638 L337.548,3.638 L337.548,2.788 C337.548,1.92666236 337.749165,1.33166831 338.1515,1.003 C338.553835,0.67433169 339.128996,0.51 339.877,0.51 C340.273669,0.51 340.607999,0.52699983 340.88,0.561 L340.88,1.972 L340.37,1.972 C340.029998,1.972 339.780667,2.03999932 339.622,2.176 C339.463333,2.31200068 339.384,2.53299847 339.384,2.839 L339.384,3.638 L340.88,3.638 L340.88,4.998 L339.384,4.998 L339.384,12.784 L337.548,12.784 L337.548,4.998 Z M341.798,0.51 L343.634,0.51 L343.634,2.346 L341.798,2.346 L341.798,0.51 Z M341.798,3.638 L343.634,3.638 L343.634,12.784 L341.798,12.784 L341.798,3.638 Z M349.754,7.956 C349.629333,8.04666712 349.479168,8.12883296 349.3035,8.2025 C349.127832,8.27616703 348.946501,8.34699966 348.7595,8.415 C348.572499,8.48300034 348.385501,8.54816635 348.1985,8.6105 C348.011499,8.67283364 347.850001,8.73799966 347.714,8.806 C347.453332,8.93066729 347.263501,9.12333203 347.1445,9.384 C347.025499,9.64466797 346.966,9.9449983 346.966,10.285 C346.966,10.6703353 347.059499,10.9961653 347.2465,11.2625 C347.433501,11.5288347 347.719665,11.662 348.105,11.662 C348.660336,11.662 349.073999,11.4693353 349.346,11.084 C349.618001,10.6986647 349.754,10.1660034 349.754,9.486 L349.754,7.956 Z M351.488,10.88 C351.488,11.0500008 351.533333,11.200166 351.624,11.3305 C351.714667,11.460834 351.827999,11.526 351.964,11.526 C352.100001,11.526 352.202,11.5090002 352.27,11.475 L352.27,12.665 C352.156666,12.7216669 352.023501,12.7726664 351.8705,12.818 C351.717499,12.8633336 351.550334,12.886 351.369,12.886 C350.960998,12.886 350.606835,12.7953342 350.3065,12.614 C350.006165,12.4326658 349.844667,12.1210022 349.822,11.679 L349.788,11.679 C349.538665,12.1323356 349.232668,12.4694989 348.87,12.6905 C348.507332,12.9115011 348.054003,13.022 347.51,13.022 C346.761996,13.022 346.178335,12.8151687 345.759,12.4015 C345.339665,11.9878313 345.13,11.3390044 345.13,10.455 C345.13,9.94499745 345.183833,9.52850161 345.2915,9.2055 C345.399167,8.88249838 345.546499,8.61616771 345.7335,8.4065 C345.920501,8.19683228 346.144332,8.03250059 346.405,7.9135 C346.665668,7.7944994 346.948998,7.68400051 347.255,7.582 L348.683,7.191 C349.011668,7.10033288 349.272332,6.98133407 349.465,6.834 C349.657668,6.68666593 349.754,6.41466865 349.754,6.018 C349.754,5.59866457 349.666168,5.26716788 349.4905,5.0235 C349.314832,4.77983211 348.983336,4.658 348.496,4.658 C348.189998,4.658 347.946334,4.70899949 347.765,4.811 C347.583666,4.91300051 347.442001,5.04333254 347.34,5.202 C347.237999,5.36066746 347.172833,5.54766559 347.1445,5.763 C347.116167,5.97833441 347.102,6.19366559 347.102,6.409 L345.368,6.409 C345.368,5.92166423 345.421833,5.49100187 345.5295,5.117 C345.637167,4.74299813 345.815665,4.42850127 346.065,4.1735 C346.314335,3.91849872 346.645831,3.72583398 347.0595,3.5955 C347.473169,3.46516601 347.98033,3.4 348.581,3.4 C348.989002,3.4 349.368665,3.44249957 349.72,3.5275 C350.071335,3.61250043 350.377332,3.74283245 350.638,3.9185 C350.898668,4.09416754 351.105499,4.32366525 351.2585,4.607 C351.411501,4.89033475 351.488,5.23599796 351.488,5.644 L351.488,10.88 Z M353.545,10.54 L355.483,10.54 L355.483,12.784 L353.545,12.784 L353.545,10.54 Z M160.289,17.646 L166.851,17.646 L166.851,19.278 L162.227,19.278 L162.227,22.644 L166.579,22.644 L166.579,24.276 L162.227,24.276 L162.227,28.152 L166.987,28.152 L166.987,29.784 L160.289,29.784 L160.289,17.646 Z M178.598,26.452 C178.564,26.9960027 178.487501,27.4889978 178.3685,27.931 C178.249499,28.3730022 178.071001,28.7498318 177.833,29.0615 C177.594999,29.3731682 177.283335,29.6111658 176.898,29.7755 C176.512665,29.9398342 176.03667,30.022 175.47,30.022 C174.80133,30.022 174.248836,29.9058345 173.8125,29.6735 C173.376164,29.4411655 173.030501,29.1125021 172.7755,28.6875 C172.520499,28.2624979 172.339167,27.7553363 172.2315,27.166 C172.123833,26.5766637 172.07,25.9250036 172.07,25.211 C172.07,24.4969964 172.123833,23.8453363 172.2315,23.256 C172.339167,22.6666637 172.520499,22.1595021 172.7755,21.7345 C173.030501,21.3094979 173.376164,20.9808345 173.8125,20.7485 C174.248836,20.5161655 174.80133,20.4 175.47,20.4 C176.150003,20.3886666 176.696831,20.4991655 177.1105,20.7315 C177.524169,20.9638345 177.841499,21.2499983 178.0625,21.59 C178.283501,21.9300017 178.430833,22.2926647 178.5045,22.678 C178.578167,23.0633353 178.615,23.3976652 178.615,23.681 L176.779,23.681 C176.779,23.4656656 176.762,23.2418345 176.728,23.0095 C176.694,22.7771655 176.628834,22.5675009 176.5325,22.3805 C176.436166,22.1934991 176.303001,22.0405006 176.133,21.9215 C175.962999,21.8024994 175.742001,21.7486666 175.47,21.76 C175.141332,21.76 174.875001,21.8449991 174.671,22.015 C174.466999,22.1850009 174.308334,22.4229985 174.195,22.729 C174.081666,23.0350015 174.005167,23.3976646 173.9655,23.817 C173.925833,24.2363354 173.906,24.7009974 173.906,25.211 C173.906,25.7210025 173.925833,26.1856646 173.9655,26.605 C174.005167,27.0243354 174.081666,27.3869985 174.195,27.693 C174.308334,27.9990015 174.466999,28.2369991 174.671,28.407 C174.875001,28.5770008 175.141332,28.662 175.47,28.662 C175.980003,28.6733334 176.339832,28.4806686 176.5495,28.084 C176.759168,27.6873313 176.864,27.1433368 176.864,26.452 L178.598,26.452 Z M181.454,25.211 C181.454,25.7890029 181.473833,26.2961645 181.5135,26.7325 C181.553167,27.1688355 181.629666,27.5286653 181.743,27.812 C181.856334,28.0953348 182.014999,28.3078326 182.219,28.4495 C182.423001,28.5911674 182.689332,28.662 183.018,28.662 C183.358002,28.662 183.629999,28.5911674 183.834,28.4495 C184.038001,28.3078326 184.196666,28.0953348 184.31,27.812 C184.423334,27.5286653 184.499833,27.1688355 184.5395,26.7325 C184.579167,26.2961645 184.599,25.7890029 184.599,25.211 C184.599,24.7009975 184.579167,24.2363354 184.5395,23.817 C184.499833,23.3976646 184.423334,23.0350015 184.31,22.729 C184.196666,22.4229985 184.038001,22.1850009 183.834,22.015 C183.629999,21.8449992 183.358002,21.76 183.018,21.76 C182.689332,21.76 182.423001,21.8449992 182.219,22.015 C182.014999,22.1850009 181.856334,22.4229985 181.743,22.729 C181.629666,23.0350015 181.553167,23.3976646 181.5135,23.817 C181.473833,24.2363354 181.454,24.7009975 181.454,25.211 Z M183.018,30.022 C182.38333,30.022 181.850669,29.9058345 181.42,29.6735 C180.989331,29.4411655 180.640835,29.1125021 180.3745,28.6875 C180.108165,28.2624979 179.915501,27.7553363 179.7965,27.166 C179.677499,26.5766637 179.618,25.9250036 179.618,25.211 C179.618,24.4969964 179.671833,23.8453363 179.7795,23.256 C179.887167,22.6666637 180.068499,22.1595021 180.3235,21.7345 C180.578501,21.3094979 180.924164,20.9808345 181.3605,20.7485 C181.796836,20.5161655 182.34933,20.4 183.018,20.4 C183.675337,20.4 184.224998,20.5161655 184.667,20.7485 C185.109002,20.9808345 185.460332,21.3094979 185.721,21.7345 C185.981668,22.1595021 186.165833,22.6666637 186.2735,23.256 C186.381167,23.8453363 186.435,24.4969964 186.435,25.211 C186.435,25.9250036 186.375501,26.5766637 186.2565,27.166 C186.137499,27.7553363 185.944835,28.2624979 185.6785,28.6875 C185.412165,29.1125021 185.060836,29.4411655 184.6245,29.6735 C184.188164,29.9058345 183.65267,30.022 183.018,30.022 Z M187.931,20.638 L189.665,20.638 L189.665,21.709 L189.716,21.709 C189.942668,21.300998 190.257165,20.9808345 190.6595,20.7485 C191.061835,20.5161655 191.478331,20.4 191.909,20.4 C192.237668,20.4 192.520999,20.436833 192.759,20.5105 C192.997001,20.584167 193.198166,20.6833327 193.3625,20.808 C193.526834,20.9326673 193.662833,21.0799991 193.7705,21.25 C193.878167,21.4200009 193.966,21.6013324 194.034,21.794 C194.294668,21.3519978 194.606332,21.0091679 194.969,20.7655 C195.331668,20.5218321 195.790664,20.4 196.346,20.4 C196.992003,20.4 197.524665,20.5841648 197.944,20.9525 C198.363335,21.3208352 198.573,21.9469956 198.573,22.831 L198.573,29.784 L196.737,29.784 L196.737,23.511 C196.737,22.8989969 196.646334,22.4711679 196.465,22.2275 C196.283666,21.9838321 196.006002,21.862 195.632,21.862 C195.257998,21.862 194.920835,22.0064986 194.6205,22.2955 C194.320165,22.5845014 194.17,23.0349969 194.17,23.647 L194.17,29.784 L192.334,29.784 L192.334,23.511 C192.334,22.8989969 192.243334,22.4711679 192.062,22.2275 C191.880666,21.9838321 191.597335,21.862 191.212,21.862 C190.837998,21.862 190.503668,22.0064986 190.209,22.2955 C189.914332,22.5845014 189.767,23.0349969 189.767,23.647 L189.767,29.784 L187.931,29.784 L187.931,20.638 Z M205.254,25.245 C205.254,24.7236641 205.234167,24.2561687 205.1945,23.8425 C205.154833,23.4288313 205.078334,23.0746681 204.965,22.78 C204.851666,22.4853319 204.693001,22.2586675 204.489,22.1 C204.284999,21.9413325 204.024335,21.862 203.707,21.862 C203.389665,21.862 203.131834,21.9384992 202.9335,22.0915 C202.735166,22.2445008 202.579334,22.4626652 202.466,22.746 C202.352666,23.0293347 202.273334,23.3721647 202.228,23.7745 C202.182666,24.1768353 202.16,24.6216642 202.16,25.109 C202.16,25.6530027 202.179833,26.1403312 202.2195,26.571 C202.259167,27.0016688 202.338499,27.3643319 202.4575,27.659 C202.576501,27.9536681 202.735166,28.1774992 202.9335,28.3305 C203.131834,28.4835008 203.395332,28.56 203.724,28.56 C203.984668,28.56 204.211332,28.5061672 204.404,28.3985 C204.596668,28.2908328 204.755333,28.1095013 204.88,27.8545 C205.004667,27.5994987 205.098166,27.2595021 205.1605,26.8345 C205.222834,26.4094979 205.254,25.8796698 205.254,25.245 Z M207.192,25.33 C207.192,26.2933381 207.104168,27.0781636 206.9285,27.6845 C206.752832,28.2908364 206.529001,28.7668316 206.257,29.1125 C205.984999,29.4581684 205.681835,29.696166 205.3475,29.8265 C205.013165,29.956834 204.687335,30.022 204.37,30.022 C203.859997,30.022 203.429335,29.9058345 203.078,29.6735 C202.726665,29.4411655 202.466001,29.121002 202.296,28.713 L202.262,28.713 L202.262,32.776 L200.426,32.776 L200.426,20.638 L202.16,20.638 L202.16,21.76 L202.194,21.76 C202.386668,21.351998 202.650165,21.0233346 202.9845,20.774 C203.318835,20.5246654 203.740997,20.4 204.251,20.4 C205.293672,20.4 206.044498,20.8278291 206.5035,21.6835 C206.962502,22.5391709 207.192,23.7546588 207.192,25.33 Z M212.87,24.956 C212.745333,25.0466671 212.595168,25.128833 212.4195,25.2025 C212.243832,25.276167 212.062501,25.3469997 211.8755,25.415 C211.688499,25.4830003 211.501501,25.5481664 211.3145,25.6105 C211.127499,25.6728336 210.966001,25.7379997 210.83,25.806 C210.569332,25.9306673 210.379501,26.123332 210.2605,26.384 C210.141499,26.644668 210.082,26.9449983 210.082,27.285 C210.082,27.6703353 210.175499,27.9961653 210.3625,28.2625 C210.549501,28.5288347 210.835665,28.662 211.221,28.662 C211.776336,28.662 212.189999,28.4693353 212.462,28.084 C212.734001,27.6986647 212.87,27.1660034 212.87,26.486 L212.87,24.956 Z M214.604,27.88 C214.604,28.0500008 214.649333,28.200166 214.74,28.3305 C214.830667,28.460834 214.943999,28.526 215.08,28.526 C215.216001,28.526 215.318,28.5090002 215.386,28.475 L215.386,29.665 C215.272666,29.7216669 215.139501,29.7726664 214.9865,29.818 C214.833499,29.8633336 214.666334,29.886 214.485,29.886 C214.076998,29.886 213.722835,29.7953342 213.4225,29.614 C213.122165,29.4326658 212.960667,29.1210022 212.938,28.679 L212.904,28.679 C212.654665,29.1323356 212.348668,29.4694989 211.986,29.6905 C211.623332,29.9115011 211.170003,30.022 210.626,30.022 C209.877996,30.022 209.294335,29.8151687 208.875,29.4015 C208.455665,28.9878313 208.246,28.3390044 208.246,27.455 C208.246,26.9449974 208.299833,26.5285016 208.4075,26.2055 C208.515167,25.8824984 208.662499,25.6161677 208.8495,25.4065 C209.036501,25.1968323 209.260332,25.0325006 209.521,24.9135 C209.781668,24.7944994 210.064998,24.6840005 210.371,24.582 L211.799,24.191 C212.127668,24.1003329 212.388332,23.9813341 212.581,23.834 C212.773668,23.6866659 212.87,23.4146686 212.87,23.018 C212.87,22.5986646 212.782168,22.2671679 212.6065,22.0235 C212.430832,21.7798321 212.099336,21.658 211.612,21.658 C211.305998,21.658 211.062334,21.7089995 210.881,21.811 C210.699666,21.9130005 210.558001,22.0433325 210.456,22.202 C210.353999,22.3606675 210.288833,22.5476656 210.2605,22.763 C210.232167,22.9783344 210.218,23.1936656 210.218,23.409 L208.484,23.409 C208.484,22.9216642 208.537833,22.4910019 208.6455,22.117 C208.753167,21.7429981 208.931665,21.4285013 209.181,21.1735 C209.430335,20.9184987 209.761831,20.725834 210.1755,20.5955 C210.589169,20.465166 211.09633,20.4 211.697,20.4 C212.105002,20.4 212.484665,20.4424996 212.836,20.5275 C213.187335,20.6125004 213.493332,20.7428325 213.754,20.9185 C214.014668,21.0941675 214.221499,21.3236652 214.3745,21.607 C214.527501,21.8903347 214.604,22.235998 214.604,22.644 L214.604,27.88 Z M216.474,20.638 L218.31,20.638 L218.31,22.066 L218.344,22.066 C218.548001,21.5559974 218.822832,21.1508348 219.1685,20.8505 C219.514168,20.5501652 219.947664,20.4 220.469,20.4 C220.684334,20.4 220.831666,20.4226664 220.911,20.468 L220.911,22.338 C220.843,22.3153332 220.738167,22.2926668 220.5965,22.27 C220.454833,22.2473332 220.304667,22.236 220.146,22.236 C219.941999,22.236 219.729501,22.264333 219.5085,22.321 C219.287499,22.3776669 219.089168,22.4824992 218.9135,22.6355 C218.737832,22.7885008 218.593334,23.0009986 218.48,23.273 C218.366666,23.5450014 218.31,23.8906646 218.31,24.31 L218.31,29.784 L216.474,29.784 L216.474,20.638 Z M221.013,20.638 L222.271,20.638 L222.271,18.037 L224.107,18.037 L224.107,20.638 L225.603,20.638 L225.603,21.998 L224.107,21.998 L224.107,27.455 C224.107,27.8176685 224.166499,28.0698326 224.2855,28.2115 C224.404501,28.3531674 224.622665,28.424 224.94,28.424 C225.212001,28.424 225.432999,28.4070002 225.603,28.373 L225.603,29.733 C225.206331,29.8350005 224.713336,29.886 224.124,29.886 C223.817998,29.886 223.548834,29.857667 223.3165,29.801 C223.084166,29.7443331 222.891501,29.6366675 222.7385,29.478 C222.585499,29.3193325 222.469334,29.0955014 222.39,28.8065 C222.310666,28.5174986 222.271,28.140669 222.271,27.676 L222.271,21.998 L221.013,21.998 L221.013,20.638 Z M226.64,17.51 L228.476,17.51 L228.476,19.346 L226.64,19.346 L226.64,17.51 Z M226.64,20.638 L228.476,20.638 L228.476,29.784 L226.64,29.784 L226.64,20.638 Z M230.414,17.646 L232.25,17.646 L232.25,29.784 L230.414,29.784 L230.414,17.646 Z M234.103,17.646 L235.939,17.646 L235.939,21.624 L235.99,21.658 C236.250668,21.2613313 236.570831,20.9525011 236.9505,20.7315 C237.330169,20.5104989 237.757998,20.4 238.234,20.4 C238.585335,20.4 238.899832,20.4424996 239.1775,20.5275 C239.455168,20.6125004 239.693166,20.7513324 239.8915,20.944 C240.089834,21.1366676 240.242833,21.3916651 240.3505,21.709 C240.458167,22.0263349 240.512,22.417331 240.512,22.882 L240.512,29.784 L238.676,29.784 L238.676,23.511 C238.676,22.8989969 238.582501,22.4711679 238.3955,22.2275 C238.208499,21.9838321 237.877002,21.862 237.401,21.862 C237.026998,21.862 236.689835,22.0064986 236.3895,22.2955 C236.089165,22.5845014 235.939,23.0349969 235.939,23.647 L235.939,29.784 L234.103,29.784 L234.103,17.646 Z M246.547,24.956 C246.422333,25.0466671 246.272168,25.128833 246.0965,25.2025 C245.920832,25.276167 245.739501,25.3469997 245.5525,25.415 C245.365499,25.4830003 245.178501,25.5481664 244.9915,25.6105 C244.804499,25.6728336 244.643001,25.7379997 244.507,25.806 C244.246332,25.9306673 244.056501,26.123332 243.9375,26.384 C243.818499,26.644668 243.759,26.9449983 243.759,27.285 C243.759,27.6703353 243.852499,27.9961653 244.0395,28.2625 C244.226501,28.5288347 244.512665,28.662 244.898,28.662 C245.453336,28.662 245.866999,28.4693353 246.139,28.084 C246.411001,27.6986647 246.547,27.1660034 246.547,26.486 L246.547,24.956 Z M248.281,27.88 C248.281,28.0500008 248.326333,28.200166 248.417,28.3305 C248.507667,28.460834 248.620999,28.526 248.757,28.526 C248.893001,28.526 248.995,28.5090002 249.063,28.475 L249.063,29.665 C248.949666,29.7216669 248.816501,29.7726664 248.6635,29.818 C248.510499,29.8633336 248.343334,29.886 248.162,29.886 C247.753998,29.886 247.399835,29.7953342 247.0995,29.614 C246.799165,29.4326658 246.637667,29.1210022 246.615,28.679 L246.581,28.679 C246.331665,29.1323356 246.025668,29.4694989 245.663,29.6905 C245.300332,29.9115011 244.847003,30.022 244.303,30.022 C243.554996,30.022 242.971335,29.8151687 242.552,29.4015 C242.132665,28.9878313 241.923,28.3390044 241.923,27.455 C241.923,26.9449974 241.976833,26.5285016 242.0845,26.2055 C242.192167,25.8824984 242.339499,25.6161677 242.5265,25.4065 C242.713501,25.1968323 242.937332,25.0325006 243.198,24.9135 C243.458668,24.7944994 243.741998,24.6840005 244.048,24.582 L245.476,24.191 C245.804668,24.1003329 246.065332,23.9813341 246.258,23.834 C246.450668,23.6866659 246.547,23.4146686 246.547,23.018 C246.547,22.5986646 246.459168,22.2671679 246.2835,22.0235 C246.107832,21.7798321 245.776336,21.658 245.289,21.658 C244.982998,21.658 244.739334,21.7089995 244.558,21.811 C244.376666,21.9130005 244.235001,22.0433325 244.133,22.202 C244.030999,22.3606675 243.965833,22.5476656 243.9375,22.763 C243.909167,22.9783344 243.895,23.1936656 243.895,23.409 L242.161,23.409 C242.161,22.9216642 242.214833,22.4910019 242.3225,22.117 C242.430167,21.7429981 242.608665,21.4285013 242.858,21.1735 C243.107335,20.9184987 243.438831,20.725834 243.8525,20.5955 C244.266169,20.465166 244.77333,20.4 245.374,20.4 C245.782002,20.4 246.161665,20.4424996 246.513,20.5275 C246.864335,20.6125004 247.170332,20.7428325 247.431,20.9185 C247.691668,21.0941675 247.898499,21.3236652 248.0515,21.607 C248.204501,21.8903347 248.281,22.235998 248.281,22.644 L248.281,27.88 Z M250.338,27.54 L252.276,27.54 L252.276,29.784 L250.338,29.784 L250.338,27.54 Z" id="slogan-preto"></path>
                    </g>
                </g>
            </g>
        </g>
    </g>
</svg>