<svg xmlns="http://www.w3.org/2000/svg" width="145" height="33" viewBox="0 0 145 33">
    <g fill="none" fill-rule="evenodd">
        <g fill="#244484">
            <path d="M56.043 16.094c-.01 3.21-1.175 5.978-3.493 8.28-2.318 2.306-5.089 3.454-8.303 3.442-3.218-.009-5.977-1.166-8.284-3.462-2.305-2.322-3.452-5.099-3.446-8.336.015-3.239 1.165-6.008 3.462-8.314 1.182-1.153 2.459-2.012 3.826-2.572 1.37-.587 2.871-.878 4.51-.869 1.624.005 3.186.343 4.696 1.023a11.02 11.02 0 0 1 3.9 2.817l-4.204 3.864c-.503-.568-1.183-1.042-2.047-1.424l-1.159-.38a5.715 5.715 0 0 0-1.2-.13c-1.704-.005-3.135.577-4.293 1.754-1.162 1.168-1.744 2.588-1.747 4.25-.006 1.635.577 3.062 1.75 4.263 1.171 1.183 2.59 1.772 4.255 1.776a6.176 6.176 0 0 0 3.215-.87c.99-.61 1.749-1.487 2.279-2.644l-5.203-.02.014-4.724 11.354.032.093 1.45.025.794zM88.076 20.291c-1.18 1.175-2.586 1.764-4.227 1.756-1.681-.009-3.104-.592-4.251-1.749-1.154-1.176-1.727-2.604-1.727-4.262.012-1.663.603-3.08 1.78-4.251 1.182-1.172 2.596-1.757 4.232-1.754 1.622.006 3.024.612 4.224 1.81 1.193 1.202 1.789 2.615 1.776 4.232 0 1.642-.603 3.05-1.807 4.218m4.108-12.533c-2.305-2.324-5.064-3.489-8.28-3.496-3.238-.01-6.013 1.138-8.305 3.444-2.302 2.283-3.454 5.05-3.466 8.314-.008 3.216 1.127 5.985 3.415 8.305 2.285 2.317 5.048 3.483 8.284 3.492 3.234.009 6.005-1.14 8.301-3.443 2.318-2.304 3.488-5.066 3.496-8.286.008-3.239-1.144-6.016-3.445-8.33M137.07 16.07c.008-1.615-.586-3.025-1.78-4.23-1.195-1.197-2.598-1.801-4.225-1.809-1.639-.002-3.045.58-4.227 1.752-1.181 1.172-1.776 2.597-1.781 4.253-.008 1.66.57 3.081 1.718 4.262 1.158 1.16 2.577 1.746 4.258 1.746 1.634.004 3.05-.576 4.227-1.755 1.202-1.17 1.805-2.577 1.81-4.218m5.738.021c-.005 3.215-1.17 5.971-3.49 8.285-2.299 2.302-5.07 3.45-8.307 3.44-3.237-.01-5.995-1.175-8.276-3.493-2.284-2.322-3.428-5.09-3.416-8.302.014-3.26 1.157-6.03 3.462-8.318 2.298-2.305 5.069-3.455 8.31-3.442 3.216.007 5.97 1.174 8.28 3.495 2.302 2.319 3.45 5.096 3.437 8.335M17.782 16.07c.009-1.615-.586-3.025-1.778-4.23-1.2-1.197-2.603-1.801-4.224-1.809-1.635-.002-3.046.58-4.236 1.752-1.171 1.172-1.769 2.597-1.775 4.253-.005 1.66.569 3.081 1.724 4.262 1.147 1.16 2.571 1.746 4.252 1.746 1.64.004 3.045-.576 4.232-1.755 1.197-1.17 1.8-2.577 1.805-4.218m5.742.021c-.01 3.215-1.173 5.971-3.495 8.285-2.295 2.302-5.066 3.45-8.303 3.44-3.237-.01-5.997-1.175-8.28-3.493C1.16 22.002.022 19.234.03 16.022c.009-3.26 1.166-6.03 3.46-8.318C5.797 5.399 8.56 4.249 11.8 4.262c3.216.007 5.979 1.174 8.278 3.495 2.314 2.319 3.458 5.096 3.447 8.335M113.225 14.692c1.947-1.027 2.473-2.424 2.473-4.155 0-1.302-.274-2.736-1.348-3.766-1.743-1.814-3.933-1.903-7.985-1.903h-7.69v22.319h7.926c4.043 0 6.001-.136 8.205-1.865 1.455-1.123 2.22-3.34 2.22-5.133 0-.934.055-4.215-3.801-5.497zm-9.077-5.303l2.834-.022c.938 0 3.028-.04 3.028 1.618 0 1.792-2.203 1.573-2.988 1.573h-2.879l.005-3.17zm3.883 13.348l-3.933.022.005-5.333h3.942c1.246 0 3.332.307 3.332 2.66 0 1.995-1.133 2.651-3.346 2.651zM58.522 4.9H64.2v17.585h6.713l3.488 4.693h-15.88z"/>
        </g>
    </g>
</svg>
