<?xml version="1.0" encoding="UTF-8"?>
<svg width="60px" height="10px" viewBox="0 0 60 10" version="1.1" xmlns="http://www.w3.org/2000/svg" xmlns:xlink="http://www.w3.org/1999/xlink">
    <!-- Generator: Sketch 43.2 (39069) - http://www.bohemiancoding.com/sketch -->
    <title>oglobo_novo_final</title>
    <desc>Created with Sketch.</desc>
    <defs></defs>
    <g id="Page-1" stroke="none" stroke-width="1" fill="none" fill-rule="evenodd">
        <g id="banner-footer-aberto-NOVO" transform="translate(-634.000000, -775.000000)" fill="#FFFFFF">
            <g id="Group" transform="translate(310.000000, 716.000000)">
                <g id="Group-6" transform="translate(324.000000, 59.000000)">
                    <g id="oglobo_novo_final">
                        <path d="M23.3273982,5.03905882 C23.3229322,6.37682353 22.8382554,7.53 21.8733678,8.48929412 C20.9084802,9.45011765 19.755081,9.92835294 18.4171662,9.92329412 C17.0777235,9.91976471 15.9292604,9.43764706 14.9689563,8.48082353 C14.0095924,7.51341176 13.5324373,6.35635294 13.5349053,5.00741176 C13.5408991,3.65811765 14.0195821,2.504 14.9758903,1.54317647 C15.4676187,1.06305882 15.9993059,0.705058824 16.5684838,0.471647059 C17.1382493,0.226941176 17.7634871,0.105647059 18.4456074,0.109764706 C19.1213814,0.111764706 19.7716521,0.252352941 20.4004157,0.535764706 C21.0301195,0.810235294 21.5713262,1.19870588 22.0239185,1.70941176 L20.2738403,3.31964706 C20.0642916,3.08282353 19.7811717,2.88552941 19.4215425,2.72635294 L18.9393337,2.56811765 C18.7712717,2.532 18.6042674,2.51352941 18.4397311,2.51352941 C17.7303448,2.51152941 17.1347236,2.75435294 16.6529849,3.24458824 C16.1693658,3.73117647 15.9267924,4.32305882 15.9257347,5.01552941 C15.9232666,5.69647059 16.1658401,6.29129412 16.6540426,6.79152941 C17.1416576,7.28458824 17.7324603,7.53 18.4251579,7.53152941 C18.9058389,7.534 19.3504393,7.41176471 19.7631903,7.16941176 C20.1753536,6.91505882 20.4913807,6.54964706 20.7119769,6.06741176 L18.5462096,6.05941176 L18.5522034,4.09070588 L23.2779198,4.10423529 L23.3169384,4.70858824 L23.3273982,5.03905882 Z" id="Fill-1"></path>
                        <path d="M36.6607348,6.78791765 C36.169124,7.27756471 35.5839626,7.52297647 34.9011371,7.51944706 C34.2013879,7.51591765 33.6091749,7.27309412 33.1315496,6.79085882 C32.6514564,6.30074118 32.4127613,5.70591765 32.4127613,5.01497647 C32.4176973,4.32203529 32.6639141,3.73168235 33.1539971,3.24356471 C33.6457254,2.75532941 34.2344127,2.51156471 34.9151227,2.51297647 C35.5904265,2.51556471 36.1740601,2.76791765 36.6733101,3.26709412 C37.1699746,3.7678 37.4180717,4.35650588 37.412548,5.03050588 C37.412548,5.71438824 37.1615127,6.30121176 36.6607348,6.78791765 M38.3703841,1.56568235 C37.4111377,0.597329412 36.2626746,0.112152941 34.9237021,0.109211765 C33.5762676,0.104623529 32.4213406,0.583329412 31.4670304,1.54415294 C30.5090768,2.49556471 30.0294536,3.64862353 30.0244,5.00850588 C30.0209917,6.34838824 30.4935633,7.50191765 31.4459932,8.46874118 C32.3968953,9.43403529 33.5472387,9.9198 34.8942031,9.92368235 C36.2402272,9.92732941 37.3935088,9.44909412 38.3493469,8.48932941 C39.3142346,7.52897647 39.8009093,6.37838824 39.8044351,5.03650588 C39.8078433,3.68721176 39.3282201,2.53003529 38.3703841,1.56568235" id="Fill-3"></path>
                        <path d="M57.0536641,5.02947059 C57.0571899,4.35605882 56.8096804,3.76876471 56.3124283,3.26652941 C55.8152938,2.76782353 55.2315426,2.51605882 54.5542409,2.513 C53.8721206,2.51205882 53.2868416,2.75441176 52.7947606,3.243 C52.3030323,3.73123529 52.0555227,4.325 52.0534073,5.015 C52.049999,5.70641176 52.2910446,6.29876471 52.7686699,6.79088235 C53.2504086,7.27452941 53.8410937,7.51841176 54.5408429,7.51841176 C55.2210828,7.51994118 55.8102401,7.27817647 56.3004407,6.78688235 C56.8006309,6.29970588 57.0516662,5.71347059 57.0536641,5.02947059 M59.4420254,5.03852941 C59.4400275,6.37782353 58.9553507,7.52641176 57.9890528,8.49029412 C57.032627,9.44958824 55.8793454,9.92829412 54.5317934,9.92370588 C53.184359,9.91982353 52.0364836,9.43405882 51.0869918,8.46829412 C50.1363248,7.50088235 49.6601099,6.34735294 49.6651635,5.009 C49.6706872,3.65052941 50.1466671,2.497 51.1061485,1.54323529 C52.0624568,0.582882353 53.2158559,0.103705882 54.5648182,0.109235294 C55.9037908,0.112176471 57.0502559,0.598411765 58.0115002,1.56523529 C58.9694538,2.53158824 59.4470791,3.68864706 59.4420254,5.03852941" id="Fill-4"></path>
                        <path d="M7.4017223,5.02947059 C7.40524808,4.35605882 7.15762101,3.76876471 6.66142667,3.26652941 C6.16182407,2.76782353 5.57807294,2.51605882 4.90335676,2.513 C4.22264676,2.51205882 3.63536984,2.75441176 3.14023323,3.243 C2.65250076,3.73123529 2.40393348,4.325 2.40146544,5.015 C2.3989974,5.70641176 2.63804507,6.29876471 3.118726,6.79088235 C3.59635124,7.27452941 4.18915187,7.51841176 4.88878355,7.51841176 C5.57102138,7.51994118 6.15630036,7.27817647 6.65002666,6.78688235 C7.14857152,6.29970588 7.39972436,5.71347059 7.4017223,5.02947059 M9.79149391,5.03852941 C9.78749803,6.37782353 9.30340886,7.52641176 8.3369934,8.49029412 C7.3817429,9.44958824 6.22834373,9.92829412 4.88079179,9.92370588 C3.53335736,9.91982353 2.38442418,9.43405882 1.43410977,8.46829412 C0.482737626,7.50088235 0.00969588659,6.34735294 0.0131041376,5.009 C0.0166299146,3.65052941 0.498251045,2.497 1.45314897,1.54323529 C2.41298298,0.582882353 3.56285636,0.103705882 4.91134852,0.109235294 C6.24985097,0.112176471 7.39972436,0.598411765 8.35662022,1.56523529 C9.31986248,2.53158824 9.79607742,3.68864706 9.79149391,5.03852941" id="Fill-5"></path>
                        <path d="M47.128461,4.45490588 C47.9388021,4.02714118 48.1578704,3.44490588 48.1578704,2.72372941 C48.1578704,2.18137647 48.0439878,1.58372941 47.5968017,1.15443529 C46.8713144,0.398788235 45.9597835,0.361729412 44.2731693,0.361729412 L41.0725865,0.361729412 L41.0725865,9.66125882 L44.371421,9.66125882 C46.0543918,9.66125882 46.8691989,9.60443529 47.786606,8.88408235 C48.3923345,8.41608235 48.7104771,7.49267059 48.7104771,6.74525882 C48.7104771,6.35608235 48.7336297,4.98914118 47.128461,4.45490588 L47.128461,4.45490588 Z M43.350356,2.24525882 L44.5297284,2.23631765 C44.920502,2.23631765 45.7904287,2.21961176 45.7904287,2.91031765 C45.7904287,3.65690588 44.8734916,3.56584706 44.5466521,3.56584706 L43.3482405,3.56584706 L43.350356,2.24525882 Z M44.9664546,7.80725882 L43.3294364,7.81608235 L43.3315518,5.59408235 L44.9723309,5.59408235 C45.4909727,5.59408235 46.3591365,5.72208235 46.3591365,6.7022 C46.3591365,7.53361176 45.8875051,7.80725882 44.9664546,7.80725882 L44.9664546,7.80725882 Z" id="Fill-6"></path>
                        <polygon id="Fill-7" points="24.359017 0.375282353 26.7226979 0.375282353 26.7226979 7.70210588 29.5169936 7.70210588 30.9689086 9.65763529 24.359017 9.65763529"></polygon>
                    </g>
                </g>
            </g>
        </g>
    </g>
</svg>