<svg xmlns="http://www.w3.org/2000/svg" width="356" height="33" viewBox="0 0 356 33">
    <g fill="none" fill-rule="evenodd">
        <path fill="#1F1F1F" d="M167.752 8.432v.255c0 .544-.062 1.077-.187 1.598a3.99 3.99 0 0 1-.62 1.394 3.12 3.12 0 0 1-1.148.977c-.476.244-1.071.366-1.785.366-.77 0-1.411-.125-1.921-.374a2.91 2.91 0 0 1-1.233-1.156c-.311-.521-.532-1.176-.662-1.964-.13-.787-.196-1.725-.196-2.813s.065-2.026.196-2.813c.13-.788.35-1.443.662-1.964A2.899 2.899 0 0 1 162.1.782c.515-.25 1.158-.374 1.929-.374.861 0 1.536.139 2.023.417.487.277.853.614 1.097 1.011.243.397.393.813.45 1.25.057.436.085.813.085 1.13v.221h-1.938v-.204c0-.283-.026-.57-.077-.858a2.362 2.362 0 0 0-.272-.774 1.516 1.516 0 0 0-.526-.544c-.222-.136-.508-.198-.859-.187-.363 0-.674.065-.935.196-.26.13-.476.373-.646.73-.17.358-.295.848-.374 1.471-.08.623-.119 1.422-.119 2.397 0 .975.04 1.78.119 2.414.08.635.204 1.136.374 1.505.17.368.385.623.646.764.26.142.572.213.935.213.408 0 .731-.1.969-.298.238-.198.42-.444.544-.739.125-.295.204-.612.238-.952.034-.34.051-.652.051-.935v-.204h1.938zm2.72-.221c0 .578.02 1.085.06 1.521.04.437.116.797.229 1.08.113.283.272.496.476.638.204.141.47.212.799.212.34 0 .612-.07.816-.213.204-.141.363-.354.476-.637.113-.283.19-.643.23-1.08.04-.436.059-.943.059-1.521 0-.51-.02-.975-.06-1.394a4.317 4.317 0 0 0-.229-1.088c-.113-.306-.272-.544-.476-.714-.204-.17-.476-.255-.816-.255-.329 0-.595.085-.799.255-.204.17-.363.408-.476.714-.113.306-.19.669-.23 1.088-.04.42-.059.884-.059 1.394zm1.564 4.811c-.635 0-1.167-.116-1.598-.348a2.77 2.77 0 0 1-1.045-.986c-.267-.426-.46-.933-.578-1.522a9.9 9.9 0 0 1-.179-1.955c0-.714.054-1.366.162-1.955.107-.59.288-1.096.543-1.522a2.63 2.63 0 0 1 1.037-.986c.437-.232.99-.348 1.658-.348.657 0 1.207.116 1.649.349.442.232.793.56 1.054.985.26.426.445.933.553 1.522.107.59.161 1.241.161 1.955a9.9 9.9 0 0 1-.179 1.955c-.119.59-.311 1.096-.578 1.521a2.752 2.752 0 0 1-1.053.987c-.437.232-.972.348-1.607.348zm4.828-9.384h1.734v1.071h.051c.227-.408.547-.728.96-.96a2.78 2.78 0 0 1 1.386-.349c.351 0 .666.042.944.127.277.086.515.224.714.417.198.193.35.448.459.765.107.317.161.708.161 1.173v6.902h-1.836V6.511c0-.612-.093-1.04-.28-1.284-.188-.243-.519-.365-.995-.365-.374 0-.711.144-1.012.433-.3.29-.45.74-.45 1.352v6.137h-1.836V3.638zm7.361 0h1.258V1.037h1.836v2.601h1.496v1.36h-1.496v5.457c0 .363.06.615.179.756.119.142.337.213.654.213.272 0 .493-.017.663-.051v1.36c-.397.102-.89.153-1.479.153-.306 0-.575-.028-.808-.085a1.167 1.167 0 0 1-.577-.323c-.154-.159-.27-.382-.349-.671-.08-.29-.119-.666-.119-1.131V4.998h-1.258v-1.36zm10.064 3.553v-.493c0-.578-.105-1.062-.314-1.454-.21-.39-.576-.586-1.097-.586-.295 0-.538.065-.731.196-.193.13-.348.305-.468.526a2.531 2.531 0 0 0-.255.757 4.884 4.884 0 0 0-.076.867v.187h2.941zm-2.941 1.258v.527c0 .306.014.623.042.952.029.329.097.629.205.901.107.272.263.496.467.671.204.176.476.264.816.264.329 0 .59-.08.782-.238.193-.159.34-.348.442-.57a2.27 2.27 0 0 0 .196-.68c.028-.232.042-.416.042-.552h1.734c0 1.031-.286 1.839-.859 2.422-.572.584-1.357.876-2.354.876-.374 0-.76-.045-1.156-.136a2.24 2.24 0 0 1-1.08-.612c-.323-.317-.589-.788-.798-1.411-.21-.623-.315-1.462-.315-2.516 0-.6.042-1.196.127-1.785.085-.59.25-1.12.493-1.59.244-.47.587-.85 1.029-1.139.442-.289 1.02-.433 1.734-.433.635 0 1.162.093 1.581.28.42.188.75.457.994.808.244.351.414.78.51 1.283.097.505.145 1.074.145 1.709v.969h-4.777zm10.965 3.264h-.051a2.446 2.446 0 0 1-.96.96 2.78 2.78 0 0 1-1.386.349c-.34 0-.649-.045-.927-.136a1.648 1.648 0 0 1-.722-.476c-.204-.227-.36-.533-.468-.918-.107-.385-.161-.873-.161-1.462V3.638h1.836V10.2c0 .51.108.864.323 1.063.215.198.521.297.918.297s.745-.127 1.046-.383c.3-.255.45-.637.45-1.147V3.638h1.836v9.146h-1.734v-1.071zM201.191 0h2.04l-1.802 2.448h-1.258L201.191 0zm9.299 8.313c0-.544-.02-1.031-.06-1.462a3.877 3.877 0 0 0-.238-1.088 1.448 1.448 0 0 0-.51-.671c-.22-.154-.507-.23-.858-.23-.26 0-.482.057-.663.17-.181.113-.329.3-.442.561-.113.26-.195.603-.246 1.029-.052.425-.077.943-.077 1.555 0 .521.02.989.06 1.402.04.414.116.768.229 1.063.113.295.27.521.468.68.198.159.461.238.79.238.317 0 .575-.076.773-.23.199-.153.355-.37.468-.654.113-.283.193-.623.238-1.02.045-.397.068-.844.068-1.343zm0 3.349h-.034c-.057.147-.133.3-.23.459a1.78 1.78 0 0 1-.952.774 2.4 2.4 0 0 1-.824.127c-1.065 0-1.83-.43-2.295-1.292-.465-.861-.697-2.074-.697-3.638 0-1.02.082-1.836.246-2.448.165-.612.38-1.085.647-1.42.266-.334.566-.555.9-.663a3.335 3.335 0 0 1 1.029-.161c.51 0 .94.116 1.292.349.351.232.612.552.782.96h.034V.646h1.836v12.138h-1.734v-1.122zm4.981-3.451c0 .578.02 1.085.06 1.521.04.437.116.797.229 1.08.113.283.272.496.476.638.204.141.47.212.799.212.34 0 .612-.07.816-.213.204-.141.363-.354.476-.637.113-.283.19-.643.23-1.08.04-.436.059-.943.059-1.521 0-.51-.02-.975-.06-1.394a4.317 4.317 0 0 0-.229-1.088c-.113-.306-.272-.544-.476-.714-.204-.17-.476-.255-.816-.255-.329 0-.595.085-.799.255-.204.17-.363.408-.476.714-.113.306-.19.669-.23 1.088-.04.42-.059.884-.059 1.394zm1.564 4.811c-.635 0-1.167-.116-1.598-.348a2.77 2.77 0 0 1-1.046-.986c-.266-.426-.458-.933-.577-1.522a9.9 9.9 0 0 1-.179-1.955c0-.714.054-1.366.162-1.955.107-.59.288-1.096.543-1.522a2.63 2.63 0 0 1 1.037-.986c.437-.232.99-.348 1.658-.348.657 0 1.207.116 1.649.349.442.232.793.56 1.054.985.26.426.445.933.553 1.522.107.59.161 1.241.161 1.955a9.9 9.9 0 0 1-.178 1.955c-.12.59-.312 1.096-.578 1.521a2.752 2.752 0 0 1-1.054.987c-.437.232-.972.348-1.607.348zm13.43-5.831v-.493c0-.578-.105-1.062-.315-1.454-.21-.39-.575-.586-1.096-.586-.295 0-.538.065-.731.196-.193.13-.348.305-.468.526a2.531 2.531 0 0 0-.254.757 4.884 4.884 0 0 0-.077.867v.187h2.941zm-2.941 1.258v.527c0 .306.014.623.042.952.029.329.097.629.204.901.108.272.264.496.468.671.204.176.476.264.816.264.329 0 .59-.08.782-.238.193-.159.34-.348.442-.57a2.27 2.27 0 0 0 .196-.68c.028-.232.042-.416.042-.552h1.734c0 1.031-.286 1.839-.858 2.422-.573.584-1.358.876-2.355.876-.374 0-.76-.045-1.156-.136a2.24 2.24 0 0 1-1.08-.612c-.323-.317-.589-.788-.798-1.411-.21-.623-.315-1.462-.315-2.516 0-.6.043-1.196.127-1.785.085-.59.25-1.12.494-1.59.243-.47.586-.85 1.028-1.139.442-.289 1.02-.433 1.734-.433.635 0 1.162.093 1.581.28.42.188.75.457.995.808.243.351.413.78.51 1.283.096.505.144 1.074.144 1.709v.969h-4.777zm6.375-4.811h1.734v1.071h.051c.227-.408.541-.728.944-.96a2.466 2.466 0 0 1 1.249-.349c.329 0 .612.037.85.11.238.074.44.173.603.298.165.125.3.272.408.442.108.17.196.351.264.544.26-.442.572-.785.935-1.028.363-.244.822-.366 1.377-.366.646 0 1.179.184 1.598.553.42.368.629.994.629 1.878v6.953h-1.836V6.511c0-.612-.09-1.04-.272-1.284-.181-.243-.459-.365-.833-.365-.374 0-.711.144-1.011.433-.3.29-.451.74-.451 1.352v6.137h-1.836V6.511c0-.612-.09-1.04-.272-1.284-.181-.243-.465-.365-.85-.365-.374 0-.708.144-1.003.433-.295.29-.442.74-.442 1.352v6.137h-1.836V3.638zm21.25 4.471c0-.487-.023-.932-.068-1.335a3.988 3.988 0 0 0-.238-1.028 1.511 1.511 0 0 0-.468-.655c-.198-.153-.456-.229-.773-.229-.329 0-.592.08-.79.238-.199.159-.355.385-.468.68-.113.295-.19.649-.23 1.063-.04.413-.059.88-.059 1.402 0 .612.031 1.13.094 1.556.062.425.152.767.272 1.028.119.26.266.448.442.561.175.113.382.17.62.17.351 0 .637-.076.858-.23.222-.153.391-.376.51-.671.12-.295.199-.657.238-1.088.04-.43.06-.918.06-1.462zm-.102 3.604h-.034c-.17.408-.433.728-.79.96-.358.233-.791.349-1.301.349-.363 0-.711-.07-1.046-.213-.334-.141-.631-.39-.892-.747-.26-.358-.47-.836-.629-1.437-.159-.6-.238-1.366-.238-2.295 0-1.564.232-2.777.697-3.638.465-.861 1.23-1.292 2.295-1.292a2.4 2.4 0 0 1 .825.127 1.78 1.78 0 0 1 .952.774c.096.159.172.312.229.459h.034V3.638h1.734v12.138h-1.836v-4.063zm8.279 0h-.051a2.446 2.446 0 0 1-.96.96 2.78 2.78 0 0 1-1.386.349c-.34 0-.649-.045-.926-.136a1.648 1.648 0 0 1-.723-.476c-.204-.227-.36-.533-.467-.918-.108-.385-.162-.873-.162-1.462V3.638h1.836V10.2c0 .51.108.864.323 1.063.215.198.521.297.918.297s.745-.127 1.046-.383c.3-.255.45-.637.45-1.147V3.638h1.836v9.146h-1.734v-1.071zm8.024-4.522v-.493c0-.578-.105-1.062-.315-1.454-.21-.39-.575-.586-1.096-.586-.295 0-.538.065-.731.196-.193.13-.348.305-.468.526a2.531 2.531 0 0 0-.255.757 4.884 4.884 0 0 0-.076.867v.187h2.941zm-2.941 1.258v.527c0 .306.014.623.043.952.028.329.096.629.204.901.107.272.263.496.467.671.204.176.476.264.816.264.329 0 .59-.08.782-.238.193-.159.34-.348.442-.57a2.27 2.27 0 0 0 .195-.68c.029-.232.043-.416.043-.552h1.734c0 1.031-.286 1.839-.858 2.422-.573.584-1.358.876-2.355.876-.374 0-.76-.045-1.156-.136a2.24 2.24 0 0 1-1.08-.612c-.323-.317-.589-.788-.798-1.411-.21-.623-.315-1.462-.315-2.516 0-.6.043-1.196.127-1.785.086-.59.25-1.12.493-1.59.244-.47.587-.85 1.029-1.139.442-.289 1.02-.433 1.734-.433.635 0 1.162.093 1.581.28.42.188.75.457.995.808.243.351.413.78.51 1.283.096.505.144 1.074.144 1.709v.969h-4.777zm9.605-4.811h1.972l1.598 7.208h.034l1.445-7.208h1.955l-2.414 9.146h-2.142l-2.448-9.146zm9.486 4.573c0 .578.02 1.085.06 1.521.04.437.116.797.229 1.08.113.283.272.496.476.638.204.141.47.212.799.212.34 0 .612-.07.816-.213.204-.141.363-.354.476-.637.113-.283.19-.643.23-1.08.04-.436.059-.943.059-1.521 0-.51-.02-.975-.06-1.394a4.317 4.317 0 0 0-.229-1.088c-.113-.306-.272-.544-.476-.714-.204-.17-.476-.255-.816-.255-.329 0-.595.085-.799.255-.204.17-.363.408-.476.714-.113.306-.19.669-.23 1.088-.04.42-.059.884-.059 1.394zm1.564 4.811c-.635 0-1.167-.116-1.598-.348a2.77 2.77 0 0 1-1.046-.986c-.266-.426-.458-.933-.578-1.522a9.9 9.9 0 0 1-.178-1.955c0-.714.054-1.366.161-1.955.108-.59.29-1.096.545-1.522a2.63 2.63 0 0 1 1.036-.986c.437-.232.99-.348 1.658-.348.657 0 1.207.116 1.649.349.442.232.793.56 1.054.985.26.426.445.933.553 1.522.107.59.161 1.241.161 1.955a9.9 9.9 0 0 1-.178 1.955c-.12.59-.312 1.096-.579 1.521a2.752 2.752 0 0 1-1.053.987c-.437.232-.972.348-1.607.348zm10.999-3.57a7.499 7.499 0 0 1-.23 1.479 3.219 3.219 0 0 1-.535 1.13c-.238.312-.55.55-.935.714-.385.165-.861.247-1.428.247-.669 0-1.221-.116-1.658-.348a2.63 2.63 0 0 1-1.036-.986c-.256-.426-.437-.933-.544-1.522a10.911 10.911 0 0 1-.162-1.955c0-.714.054-1.366.161-1.955.108-.59.29-1.096.544-1.522a2.63 2.63 0 0 1 1.037-.986c.437-.232.99-.348 1.658-.348.68-.011 1.227.1 1.64.332.414.232.731.518.952.858.222.34.369.703.442 1.088.074.385.111.72.111 1.003h-1.836c0-.215-.017-.44-.051-.671a1.994 1.994 0 0 0-.195-.63 1.25 1.25 0 0 0-.4-.458c-.17-.12-.391-.173-.663-.162-.329 0-.595.085-.799.255-.204.17-.363.408-.476.714-.113.306-.19.669-.23 1.088-.04.42-.059.884-.059 1.394 0 .51.02.975.06 1.394.04.42.116.782.229 1.088.113.306.272.544.476.714.204.17.47.255.799.255.51.011.87-.181 1.08-.578.21-.397.314-.94.314-1.632h1.734zm5.899-2.261v-.493c0-.578-.105-1.062-.315-1.454-.21-.39-.575-.586-1.096-.586-.295 0-.538.065-.731.196-.193.13-.348.305-.467.526a2.531 2.531 0 0 0-.255.757 4.884 4.884 0 0 0-.077.867v.187h2.941zm-2.941 1.258v.527c0 .306.014.623.042.952.029.329.097.629.204.901.108.272.264.496.468.671.204.176.476.264.816.264.329 0 .59-.08.782-.238.193-.159.34-.348.442-.57a2.27 2.27 0 0 0 .196-.68c.028-.232.042-.416.042-.552h1.734c0 1.031-.286 1.839-.858 2.422-.573.584-1.358.876-2.355.876-.374 0-.76-.045-1.156-.136a2.24 2.24 0 0 1-1.08-.612c-.323-.317-.589-.788-.798-1.411-.21-.623-.315-1.462-.315-2.516 0-.6.043-1.196.127-1.785.085-.59.25-1.12.493-1.59.244-.47.587-.85 1.029-1.139.442-.289 1.02-.433 1.734-.433.635 0 1.162.093 1.581.28.42.188.75.457.995.808.243.351.413.78.51 1.283.096.505.144 1.074.144 1.709v.969h-4.777zM303.735 0h1.836l1.513 2.448h-1.547l-.918-1.496-.969 1.496h-1.462L303.735 0zm15.827 9.452a7.499 7.499 0 0 1-.23 1.479 3.219 3.219 0 0 1-.535 1.13c-.238.312-.55.55-.935.714-.385.165-.861.247-1.428.247-.669 0-1.221-.116-1.658-.348a2.63 2.63 0 0 1-1.036-.986c-.256-.426-.437-.933-.545-1.522a10.911 10.911 0 0 1-.161-1.955c0-.714.054-1.366.161-1.955.108-.59.29-1.096.545-1.522a2.63 2.63 0 0 1 1.036-.986c.437-.232.99-.348 1.658-.348.68-.011 1.227.1 1.64.332.414.232.731.518.952.858.222.34.369.703.442 1.088.074.385.111.72.111 1.003h-1.836c0-.215-.017-.44-.051-.671a1.994 1.994 0 0 0-.195-.63 1.25 1.25 0 0 0-.4-.458c-.17-.12-.391-.173-.663-.162-.329 0-.595.085-.799.255-.204.17-.363.408-.476.714-.113.306-.19.669-.23 1.088-.04.42-.059.884-.059 1.394 0 .51.02.975.06 1.394.04.42.116.782.229 1.088.113.306.272.544.476.714.204.17.47.255.799.255.51.011.87-.181 1.08-.578.21-.397.314-.94.314-1.632h1.734zm2.856-1.241c0 .578.02 1.085.06 1.521.04.437.116.797.229 1.08.113.283.272.496.476.638.204.141.47.212.799.212.34 0 .612-.07.816-.213.204-.141.363-.354.476-.637.113-.283.19-.643.23-1.08.04-.436.059-.943.059-1.521 0-.51-.02-.975-.06-1.394a4.317 4.317 0 0 0-.229-1.088c-.113-.306-.272-.544-.476-.714-.204-.17-.476-.255-.816-.255-.329 0-.595.085-.799.255-.204.17-.363.408-.476.714-.113.306-.19.669-.23 1.088-.04.42-.059.884-.059 1.394zm1.564 4.811c-.635 0-1.167-.116-1.598-.348a2.77 2.77 0 0 1-1.046-.986c-.266-.426-.458-.933-.578-1.522a9.9 9.9 0 0 1-.178-1.955c0-.714.054-1.366.161-1.955.108-.59.29-1.096.545-1.522a2.63 2.63 0 0 1 1.036-.986c.437-.232.99-.348 1.658-.348.657 0 1.207.116 1.649.349.442.232.793.56 1.054.985.26.426.445.933.553 1.522.107.59.161 1.241.161 1.955a9.9 9.9 0 0 1-.178 1.955c-.12.59-.312 1.096-.579 1.521a2.752 2.752 0 0 1-1.053.987c-.437.232-.972.348-1.607.348zm4.828-9.384h1.734v1.071h.051c.227-.408.547-.728.96-.96a2.78 2.78 0 0 1 1.386-.349c.351 0 .666.042.944.127.277.086.515.224.714.417.198.193.35.448.459.765.107.317.161.708.161 1.173v6.902h-1.836V6.511c0-.612-.093-1.04-.28-1.284-.188-.243-.519-.365-.995-.365-.374 0-.711.144-1.012.433-.3.29-.45.74-.45 1.352v6.137h-1.836V3.638zm8.738 1.36h-1.275v-1.36h1.275v-.85c0-.861.201-1.456.603-1.785.403-.329.978-.493 1.726-.493.397 0 .731.017 1.003.051v1.411h-.51c-.34 0-.59.068-.748.204-.159.136-.238.357-.238.663v.799h1.496v1.36h-1.496v7.786h-1.836V4.998zm4.25-4.488h1.836v1.836h-1.836V.51zm0 3.128h1.836v9.146h-1.836V3.638zm7.956 4.318c-.125.09-.275.173-.45.247-.176.073-.357.144-.544.212-.188.068-.374.133-.561.196a3.727 3.727 0 0 0-.485.195c-.26.125-.45.317-.57.578-.119.26-.178.561-.178.901 0 .385.093.711.28.977.188.267.474.4.859.4.555 0 .969-.193 1.241-.578.272-.385.408-.918.408-1.598v-1.53zm1.734 2.924c0 .17.045.32.136.45.09.13.204.196.34.196a.71.71 0 0 0 .306-.051v1.19a2.46 2.46 0 0 1-.4.153 1.76 1.76 0 0 1-.501.068c-.408 0-.762-.09-1.063-.272-.3-.181-.461-.493-.484-.935h-.034c-.25.453-.555.79-.918 1.011-.363.222-.816.332-1.36.332-.748 0-1.332-.207-1.751-.62-.42-.414-.629-1.063-.629-1.947 0-.51.054-.926.161-1.25.108-.323.255-.589.442-.799.188-.21.411-.373.672-.493.26-.119.544-.229.85-.331l1.428-.391c.329-.09.59-.21.782-.357.193-.147.289-.42.289-.816 0-.42-.088-.75-.264-.994-.175-.244-.507-.366-.994-.366-.306 0-.55.051-.731.153a1.182 1.182 0 0 0-.425.391 1.348 1.348 0 0 0-.195.561c-.029.215-.043.43-.043.646h-1.734c0-.487.054-.918.161-1.292a2.19 2.19 0 0 1 .536-.944c.25-.255.58-.447.995-.578.413-.13.92-.195 1.521-.195.408 0 .788.042 1.139.127.351.086.657.216.918.391.26.176.467.406.62.689.154.283.23.629.23 1.037v5.236zm2.057-.34h1.938v2.244h-1.938V10.54zm-193.256 7.106h6.562v1.632h-4.624v3.366h4.352v1.632h-4.352v3.876h4.76v1.632h-6.698V17.646zm18.309 8.806a7.499 7.499 0 0 1-.23 1.479 3.219 3.219 0 0 1-.535 1.13c-.238.312-.55.55-.935.715-.385.164-.861.246-1.428.246-.669 0-1.221-.116-1.657-.348a2.63 2.63 0 0 1-1.037-.986c-.256-.426-.437-.933-.544-1.522a10.911 10.911 0 0 1-.162-1.955c0-.714.054-1.366.162-1.955.107-.59.288-1.096.543-1.521a2.63 2.63 0 0 1 1.037-.986c.437-.233.99-.349 1.658-.349.68-.011 1.227.1 1.64.332.414.232.731.518.952.858.222.34.369.703.442 1.088.074.385.111.72.111 1.003h-1.836c0-.215-.017-.44-.051-.672a1.994 1.994 0 0 0-.196-.628 1.25 1.25 0 0 0-.399-.46c-.17-.119-.391-.172-.663-.161-.329 0-.595.085-.799.255-.204.17-.363.408-.476.714-.113.306-.19.669-.23 1.088-.04.42-.059.884-.059 1.394 0 .51.02.975.06 1.394.04.42.116.782.229 1.088.113.306.272.544.476.714.204.17.47.255.799.255.51.011.87-.181 1.08-.578.21-.397.314-.94.314-1.632h1.734zm2.856-1.241c0 .578.02 1.085.06 1.522.04.436.116.796.229 1.079.113.283.272.496.476.637.204.142.47.213.799.213.34 0 .612-.07.816-.212.204-.142.363-.355.476-.638.113-.283.19-.643.23-1.08.04-.436.059-.943.059-1.521 0-.51-.02-.975-.06-1.394a4.317 4.317 0 0 0-.229-1.088c-.113-.306-.272-.544-.476-.714-.204-.17-.476-.255-.816-.255-.329 0-.595.085-.799.255-.204.17-.363.408-.476.714-.113.306-.19.669-.23 1.088-.04.42-.059.884-.059 1.394zm1.564 4.811c-.635 0-1.167-.116-1.598-.348a2.77 2.77 0 0 1-1.045-.986c-.267-.426-.46-.933-.578-1.522a9.9 9.9 0 0 1-.179-1.955c0-.714.054-1.366.162-1.955.107-.59.288-1.096.543-1.521a2.63 2.63 0 0 1 1.037-.986c.437-.233.99-.349 1.658-.349.657 0 1.207.116 1.649.349.442.232.793.56 1.054.986.26.425.445.932.553 1.521.107.59.161 1.241.161 1.955a9.9 9.9 0 0 1-.179 1.955c-.119.59-.311 1.096-.577 1.521a2.752 2.752 0 0 1-1.054.986c-.437.233-.972.349-1.607.349zm4.913-9.384h1.734v1.071h.051c.227-.408.541-.728.944-.96a2.466 2.466 0 0 1 1.249-.349c.329 0 .612.037.85.11.238.074.44.173.604.298.164.125.3.272.407.442.108.17.196.351.264.544.26-.442.572-.785.935-1.029.363-.243.822-.365 1.377-.365.646 0 1.179.184 1.598.553.42.368.629.994.629 1.878v6.953h-1.836v-6.273c0-.612-.09-1.04-.272-1.284-.181-.243-.459-.365-.833-.365-.374 0-.711.144-1.012.434-.3.289-.45.739-.45 1.351v6.137h-1.836v-6.273c0-.612-.09-1.04-.272-1.284-.181-.243-.465-.365-.85-.365-.374 0-.708.144-1.003.434-.295.289-.442.739-.442 1.351v6.137h-1.836v-9.146zm17.323 4.607c0-.521-.02-.989-.06-1.402a4.054 4.054 0 0 0-.229-1.063 1.533 1.533 0 0 0-.476-.68c-.204-.159-.465-.238-.782-.238s-.575.076-.773.23a1.511 1.511 0 0 0-.468.654 3.988 3.988 0 0 0-.238 1.029c-.045.402-.068.847-.068 1.334 0 .544.02 1.031.06 1.462.04.43.118.793.238 1.088.119.295.277.518.476.672.198.153.461.229.79.229.26 0 .487-.054.68-.162.193-.107.351-.288.476-.543.125-.256.218-.595.28-1.02.063-.426.094-.955.094-1.59zm1.938.085c0 .963-.088 1.748-.263 2.355-.176.606-.4 1.082-.672 1.428-.272.345-.575.583-.91.713-.334.13-.66.196-.977.196-.51 0-.94-.116-1.292-.348a2.08 2.08 0 0 1-.782-.961h-.034v4.063h-1.836V20.638h1.734v1.122h.034c.193-.408.456-.737.79-.986.335-.25.757-.374 1.267-.374 1.043 0 1.793.428 2.252 1.284.46.855.689 2.07.689 3.646zm5.678-.374c-.125.09-.275.173-.45.247-.176.073-.357.144-.544.212-.188.068-.374.133-.561.195a3.727 3.727 0 0 0-.485.196c-.26.125-.45.317-.57.578-.119.26-.178.561-.178.901 0 .385.093.711.28.977.188.267.474.4.859.4.555 0 .969-.193 1.241-.578.272-.385.408-.918.408-1.598v-1.53zm1.734 2.924c0 .17.045.32.136.45.09.13.204.196.34.196a.71.71 0 0 0 .306-.051v1.19a2.46 2.46 0 0 1-.4.153 1.76 1.76 0 0 1-.501.068c-.408 0-.762-.09-1.063-.272-.3-.181-.461-.493-.484-.935h-.034c-.25.453-.555.79-.918 1.012-.363.22-.816.331-1.36.331-.748 0-1.332-.207-1.751-.62-.42-.414-.629-1.063-.629-1.947 0-.51.054-.926.161-1.25.108-.323.255-.589.442-.798.188-.21.411-.374.672-.494.26-.119.544-.229.85-.331l1.428-.391c.329-.09.59-.21.782-.357.193-.147.289-.42.289-.816 0-.42-.088-.75-.263-.995-.176-.243-.508-.365-.995-.365-.306 0-.55.051-.731.153a1.182 1.182 0 0 0-.425.391 1.348 1.348 0 0 0-.195.561c-.029.215-.043.43-.043.646h-1.734c0-.487.054-.918.161-1.292a2.19 2.19 0 0 1 .536-.944c.25-.255.58-.447.994-.577.414-.13.921-.196 1.522-.196.408 0 .788.042 1.139.128.351.085.657.215.918.39.26.176.467.406.62.689.154.283.23.629.23 1.037v5.236zm1.87-7.242h1.836v1.428h.034c.204-.51.479-.915.825-1.215.345-.3.779-.451 1.3-.451.215 0 .363.023.442.068v1.87a2.851 2.851 0 0 0-.765-.102c-.204 0-.416.028-.638.085a1.44 1.44 0 0 0-.595.314c-.175.154-.32.366-.433.638-.113.272-.17.618-.17 1.037v5.474h-1.836v-9.146zm4.539 0h1.258v-2.601h1.836v2.601h1.496v1.36h-1.496v5.457c0 .363.06.615.179.757.119.141.337.212.654.212.272 0 .493-.017.663-.051v1.36c-.397.102-.89.153-1.479.153-.306 0-.575-.028-.808-.085a1.167 1.167 0 0 1-.578-.323c-.153-.159-.269-.382-.348-.672-.08-.289-.119-.665-.119-1.13v-5.678h-1.258v-1.36zm5.627-3.128h1.836v1.836h-1.836V17.51zm0 3.128h1.836v9.146h-1.836v-9.146zm3.774-2.992h1.836v12.138h-1.836V17.646zm3.689 0h1.836v3.978l.051.034c.26-.397.58-.705.96-.927.38-.22.808-.331 1.284-.331.351 0 .666.042.944.128.277.085.515.223.714.416.198.193.35.448.459.765.107.317.161.708.161 1.173v6.902h-1.836v-6.273c0-.612-.093-1.04-.28-1.284-.188-.243-.519-.365-.995-.365-.374 0-.711.144-1.012.434-.3.289-.45.739-.45 1.351v6.137h-1.836V17.646zm12.444 7.31c-.125.09-.275.173-.45.247-.176.073-.357.144-.544.212-.188.068-.374.133-.561.195a3.727 3.727 0 0 0-.485.196c-.26.125-.45.317-.57.578-.119.26-.178.561-.178.901 0 .385.093.711.28.977.188.267.474.4.859.4.555 0 .969-.193 1.241-.578.272-.385.408-.918.408-1.598v-1.53zm1.734 2.924c0 .17.045.32.136.45.09.13.204.196.34.196a.71.71 0 0 0 .306-.051v1.19a2.46 2.46 0 0 1-.4.153 1.76 1.76 0 0 1-.501.068c-.408 0-.762-.09-1.063-.272-.3-.181-.461-.493-.484-.935h-.034c-.25.453-.555.79-.918 1.012-.363.22-.816.331-1.36.331-.748 0-1.332-.207-1.751-.62-.42-.414-.629-1.063-.629-1.947 0-.51.054-.926.161-1.25.108-.323.255-.589.442-.798.188-.21.411-.374.672-.494.26-.119.544-.229.85-.331l1.428-.391c.329-.09.59-.21.782-.357.193-.147.289-.42.289-.816 0-.42-.088-.75-.263-.995-.176-.243-.508-.365-.995-.365-.306 0-.55.051-.731.153a1.182 1.182 0 0 0-.425.391 1.348 1.348 0 0 0-.196.561c-.028.215-.042.43-.042.646h-1.734c0-.487.054-.918.161-1.292a2.19 2.19 0 0 1 .536-.944c.25-.255.58-.447.994-.577.414-.13.921-.196 1.522-.196.408 0 .788.042 1.139.128.351.085.657.215.918.39.26.176.467.406.62.689.154.283.23.629.23 1.037v5.236zm2.057-.34h1.938v2.244h-1.938V27.54z"/>
        <g fill="#244484">
            <path d="M56.043 16.094c-.01 3.21-1.175 5.978-3.493 8.28-2.318 2.306-5.089 3.454-8.303 3.442-3.218-.009-5.977-1.166-8.284-3.462-2.305-2.322-3.452-5.099-3.446-8.336.015-3.239 1.165-6.008 3.462-8.314 1.182-1.153 2.459-2.012 3.826-2.572 1.37-.587 2.871-.878 4.51-.869 1.624.005 3.186.343 4.696 1.023a11.02 11.02 0 0 1 3.9 2.817l-4.204 3.864c-.503-.568-1.183-1.042-2.047-1.424l-1.159-.38a5.715 5.715 0 0 0-1.2-.13c-1.704-.005-3.135.577-4.293 1.754-1.162 1.168-1.744 2.588-1.747 4.25-.006 1.635.577 3.062 1.75 4.263 1.171 1.183 2.59 1.772 4.255 1.776a6.176 6.176 0 0 0 3.215-.87c.99-.61 1.749-1.487 2.279-2.644l-5.203-.02.014-4.724 11.354.032.093 1.45.025.794zM88.076 20.291c-1.18 1.175-2.586 1.764-4.227 1.756-1.681-.009-3.104-.592-4.251-1.749-1.154-1.176-1.727-2.604-1.727-4.262.012-1.663.603-3.08 1.78-4.251 1.182-1.172 2.596-1.757 4.232-1.754 1.622.006 3.024.612 4.224 1.81 1.193 1.202 1.789 2.615 1.776 4.232 0 1.642-.603 3.05-1.807 4.218m4.108-12.533c-2.305-2.324-5.064-3.489-8.28-3.496-3.238-.01-6.013 1.138-8.305 3.444-2.302 2.283-3.454 5.05-3.466 8.314-.008 3.216 1.127 5.985 3.415 8.305 2.285 2.317 5.048 3.483 8.284 3.492 3.234.009 6.005-1.14 8.301-3.443 2.318-2.304 3.488-5.066 3.496-8.286.008-3.239-1.144-6.016-3.445-8.33M137.07 16.07c.008-1.615-.586-3.025-1.78-4.23-1.195-1.197-2.598-1.801-4.225-1.809-1.639-.002-3.045.58-4.227 1.752-1.181 1.172-1.776 2.597-1.781 4.253-.008 1.66.57 3.081 1.718 4.262 1.158 1.16 2.577 1.746 4.258 1.746 1.634.004 3.05-.576 4.227-1.755 1.202-1.17 1.805-2.577 1.81-4.218m5.738.021c-.005 3.215-1.17 5.971-3.49 8.285-2.299 2.302-5.07 3.45-8.307 3.44-3.237-.01-5.995-1.175-8.276-3.493-2.284-2.322-3.428-5.09-3.416-8.302.014-3.26 1.157-6.03 3.462-8.318 2.298-2.305 5.069-3.455 8.31-3.442 3.216.007 5.97 1.174 8.28 3.495 2.302 2.319 3.45 5.096 3.437 8.335M17.782 16.07c.009-1.615-.586-3.025-1.778-4.23-1.2-1.197-2.603-1.801-4.224-1.809-1.635-.002-3.046.58-4.236 1.752-1.171 1.172-1.769 2.597-1.775 4.253-.005 1.66.569 3.081 1.724 4.262 1.147 1.16 2.571 1.746 4.252 1.746 1.64.004 3.045-.576 4.232-1.755 1.197-1.17 1.8-2.577 1.805-4.218m5.742.021c-.01 3.215-1.173 5.971-3.495 8.285-2.295 2.302-5.066 3.45-8.303 3.44-3.237-.01-5.997-1.175-8.28-3.493C1.16 22.002.022 19.234.03 16.022c.009-3.26 1.166-6.03 3.46-8.318C5.797 5.399 8.56 4.249 11.8 4.262c3.216.007 5.979 1.174 8.278 3.495 2.314 2.319 3.458 5.096 3.447 8.335M113.225 14.692c1.947-1.027 2.473-2.424 2.473-4.155 0-1.302-.274-2.736-1.348-3.766-1.743-1.814-3.933-1.903-7.985-1.903h-7.69v22.319h7.926c4.043 0 6.001-.136 8.205-1.865 1.455-1.123 2.22-3.34 2.22-5.133 0-.934.055-4.215-3.801-5.497zm-9.077-5.303l2.834-.022c.938 0 3.028-.04 3.028 1.618 0 1.792-2.203 1.573-2.988 1.573h-2.879l.005-3.17zm3.883 13.348l-3.933.022.005-5.333h3.942c1.246 0 3.332.307 3.332 2.66 0 1.995-1.133 2.651-3.346 2.651zM58.522 4.9H64.2v17.585h6.713l3.488 4.693h-15.88z"/>
        </g>
    </g>
</svg>
