<?xml version="1.0" encoding="UTF-8"?>
<svg width="18px" height="18px" viewBox="0 0 18 18" version="1.1" xmlns="http://www.w3.org/2000/svg" xmlns:xlink="http://www.w3.org/1999/xlink">
    <!-- Generator: sketchtool 41.2 (35397) - http://www.bohemiancoding.com/sketch -->
    <title>B88DFF96-68E9-4463-87F5-27CD98189C06</title>
    <desc>Created with sketchtool.</desc>
    <defs></defs>
    <g id="Page-1" stroke="none" stroke-width="1" fill="none" fill-rule="evenodd">
        <g id="banner-footer-fechado" transform="translate(-942.000000, -1247.000000)" stroke-width="0.5" stroke="#A8CBDE" fill="#A8CBDE">
            <g id="Group-4" transform="translate(764.000000, 1232.000000)">
                <g id="up-arrow" transform="translate(163.000000, 0.000000)">
                    <path d="M24.4020012,16.1652324 C24.3055848,16.0688468 24.1540733,16 24.0025618,16 C23.8510503,16 23.6995388,16.0688468 23.6031224,16.1652324 L16.1652853,23.6006885 C15.9449049,23.8209983 15.9449049,24.1790017 16.1652853,24.3993115 C16.2754754,24.5094664 16.4132132,24.5645439 16.5647247,24.5645439 C16.7162362,24.5645439 16.8539739,24.5094664 16.9641641,24.3993115 L23.4378371,17.9277108 L23.4378371,31.4354561 C23.4378371,31.7521515 23.685765,32 24.0025618,32 C24.3193585,32 24.5672864,31.7521515 24.5672864,31.4354561 L24.5672864,17.9277108 L31.0409595,24.3993115 C31.2613398,24.6196213 31.6194579,24.6196213 31.8398383,24.3993115 C32.0602186,24.1790017 32.0464448,23.8209983 31.8398383,23.6006885 L24.4020012,16.1652324 Z"></path>
                </g>
            </g>
        </g>
    </g>
</svg>