<?xml version="1.0" standalone="no"?>
<!DOCTYPE svg PUBLIC "-//W3C//DTD SVG 1.1//EN" "http://www.w3.org/Graphics/SVG/1.1/DTD/svg11.dtd" >
<svg xmlns="http://www.w3.org/2000/svg" xmlns:xlink="http://www.w3.org/1999/xlink" version="1.1">
<metadata>
Created by FontForge 20170731 at Thu Jul 28 00:43:56 2016
 By Aleksey,,,
[c] Copyright 2007, The Font Bureau, Inc. Designed by Kent Lew. All Rights Reserved.
</metadata>
<defs>
<font id="WhitmanDisplayCondensed-ExtraBold" horiz-adv-x="417" >
  <font-face 
    font-family="WhitmanDisplayCond ExBold"
    font-weight="800"
    font-stretch="semi-condensed"
    units-per-em="1000"
    panose-1="0 0 0 0 0 0 0 2 0 0"
    ascent="720"
    descent="-280"
    x-height="427"
    cap-height="644"
    bbox="-38 -280 886 890"
    underline-thickness="0"
    underline-position="0"
    unicode-range="U+0020-2122"
  />
<missing-glyph horiz-adv-x="500" 
d="M50 -280h400v1000h-400v-1000zM100 -230v900h300v-900h-300z" />
    <glyph glyph-name="f_i" unicode="fi" horiz-adv-x="520" 
d="M509 32v-32h-223v32l52 10v333l-51 4h-99v-337l67 -10v-32h-237v32l50 10v334l-55 1v36l55 15v37q0 120 63 182.5t163 62.5q53 0 91 -14.5t66 -39.5l-57 -98q-62 66 -85.5 87t-31.5 21q-47 0 -68 -33t-21 -128v-78h99l171 12v-397z" />
    <glyph glyph-name="f_l" unicode="fl" horiz-adv-x="521" 
d="M509 32v-32h-223v32l52 10v565q-19 33 -38.5 47t-32.5 14q-40 0 -59.5 -27.5t-19.5 -106.5v-107h103v-48h-103v-337l67 -10v-32h-237v32l50 10v334l-55 1v36l55 15v48q0 117 57.5 175.5t148.5 58.5q28 0 51 -7t44 -19l89 11v-653z" />
    <glyph glyph-name="f_f" unicode="ff" horiz-adv-x="556" 
d="M332 466q0 38 5.5 72t17.5 61q-24 31 -45 47t-32 16q-43 0 -66.5 -29t-23.5 -107v-99h144v39zM522 710q28 0 51 -4.5t45 -17.5l-38 -94q-37 29 -64 47.5t-34 18.5q-18 0 -24 -20.5t-6 -64.5v-148h105v-48h-105v-337l81 -10v-32h-252v32l51 10v337h-144v-337l64 -10v-32
h-234v32l50 10v334l-55 1v36l55 15v40q0 114 59.5 174t156.5 60q31 0 62 -9.5t55 -25.5q22 21 53 32t68 11z" />
    <glyph glyph-name="f_f_i" unicode="ffi" horiz-adv-x="783" 
d="M332 465q0 38 6.5 71t19.5 59q-25 32 -47 49.5t-33 17.5q-43 0 -66.5 -29t-23.5 -107v-99h144v38zM772 32v-32h-222v32l51 10v333l-51 4h-98v-337l67 -10v-32h-238v32l51 10v337h-144v-337l64 -10v-32h-234v32l50 10v334l-55 1v36l55 15v40q0 114 59.5 174t156.5 60
q34 0 68 -11.5t58 -28.5q28 24 66 36t81 12q53 0 91.5 -14.5t66.5 -39.5l-58 -98q-61 66 -85 87t-32 21q-46 0 -67 -33t-21 -128v-78h98l171 12v-397z" />
    <glyph glyph-name="f_f_l" unicode="ffl" horiz-adv-x="784" 
d="M332 476q0 37 6 68t17 56q-24 30 -45.5 46t-31.5 16q-43 0 -66.5 -29t-23.5 -107v-99h144v49zM772 32v-32h-222v32l51 10v565q-19 33 -38.5 47t-32.5 14q-40 0 -59 -27.5t-19 -105.5v-108h101v-48h-101v-337l67 -10v-32h-238v32l51 10v337h-144v-337l64 -10v-32h-234v32
l50 10v334l-55 1v36l55 15v40q0 114 59.5 174t156.5 60q31 0 63 -10t57 -26q25 22 59 33t74 11q28 0 51 -7t44 -19l89 11v-653z" />
    <glyph glyph-name=".notdef" horiz-adv-x="500" 
d="M50 -280h400v1000h-400v-1000zM100 -230v900h300v-900h-300z" />
    <glyph glyph-name=".null" horiz-adv-x="0" 
 />
    <glyph glyph-name="nonmarkingreturn" horiz-adv-x="333" 
 />
    <glyph glyph-name="space" unicode=" " horiz-adv-x="175" 
 />
    <glyph glyph-name="space" unicode="&#xa0;" horiz-adv-x="175" 
 />
    <glyph glyph-name="exclam" unicode="!" horiz-adv-x="279" 
d="M207 661v-121l-44 -368h-43l-43 368v121h130zM142 111q25 0 42.5 -18t17.5 -43t-17.5 -42.5t-42.5 -17.5t-43 17.5t-18 42.5t18 43t43 18z" />
    <glyph glyph-name="quotedbl" unicode="&#x22;" horiz-adv-x="309" 
d="M127 703v-85l-31 -171h-31l-31 171v85h93zM274 703v-85l-30 -171h-32l-30 171v85h92z" />
    <glyph glyph-name="numbersign" unicode="#" horiz-adv-x="504" 
d="M303 243l16 158h-118l-17 -158h119zM378 454h84l-6 -53h-83l-17 -158h84l-6 -53h-84l-20 -190h-53l20 190h-119l-20 -190h-53l20 190h-84l6 53h84l17 158h-84l6 53h83l20 190h54l-20 -190h118l21 190h52z" />
    <glyph glyph-name="dollar" unicode="$" horiz-adv-x="496" 
d="M156 523q0 -38 17.5 -63t45.5 -42v189q-28 -5 -45.5 -26.5t-17.5 -57.5zM272 44q32 7 48 31.5t16 60.5q0 38 -17.5 62.5t-46.5 42.5v-197zM272 385q31 -18 62 -37.5t55.5 -43t40 -54t15.5 -70.5q0 -43 -14 -76t-37.5 -56t-55 -36.5t-66.5 -17.5v-81h-53v79
q-49 1 -90.5 13.5t-71.5 29.5l-1 23.5t-1.5 53t-1.5 56.5t-1 33l41 5l17 -107q19 -26 48.5 -42t60.5 -18v235q-31 18 -61.5 37t-54 42.5t-38 55t-14.5 74.5q0 39 14 69.5t37 52t53.5 33.5t63.5 15v71h53v-71q47 -3 82.5 -14.5t54.5 -21.5l-8 -153h-39l-12 104
q-15 14 -33.5 24.5t-44.5 14.5v-222z" />
    <glyph glyph-name="percent" unicode="%" horiz-adv-x="659" 
d="M474 663l44 -22l-334 -660l-43 22zM168 660q32 0 57.5 -14.5t42.5 -39.5t26 -58t9 -70t-9 -70.5t-26 -58.5t-42.5 -39.5t-57.5 -14.5t-57 14.5t-42 39.5t-26 58.5t-9 70.5t9 70t26 58t42 39.5t57 14.5zM168 328q14 0 22.5 13t13.5 34t6.5 48t1.5 55t-1.5 55t-6.5 48
t-13.5 34t-22.5 13q-13 0 -21.5 -13t-13.5 -34t-6.5 -48t-1.5 -55t1.5 -55t6.5 -48t13.5 -34t21.5 -13zM490 349q32 0 57.5 -14.5t42.5 -39.5t26 -58.5t9 -70.5t-9 -70t-26 -58t-42.5 -39.5t-57.5 -14.5t-57 14.5t-42 39.5t-26 58t-9 70t9 70.5t26 58.5t42 39.5t57 14.5z
M490 16q14 0 22.5 13t13.5 34t6.5 48t1.5 55t-1.5 55t-6.5 48t-13.5 34t-22.5 13q-13 0 -21.5 -13t-13.5 -34t-6.5 -48t-1.5 -55t1.5 -55t6.5 -48t13.5 -34t21.5 -13z" />
    <glyph glyph-name="ampersand" unicode="&#x26;" horiz-adv-x="567" 
d="M250 405q28 25 37.5 59t9.5 68q0 40 -15 64t-41 24q-24 0 -38.5 -21.5t-14.5 -59.5q0 -34 15.5 -64.5t46.5 -69.5zM245 54q33 0 55 13t37 35l-160 208q-16 -16 -28 -44.5t-12 -70.5q1 -68 31.5 -104.5t76.5 -36.5zM567 33v-33h-151l-53 69q-20 -31 -58 -57.5t-101 -26.5
q-84 0 -132 51t-48 129q0 37 11.5 65.5t30 49.5t41 37t44.5 27q-30 37 -49 77t-19 89q0 68 45 109.5t111 41.5q29 0 55.5 -8t47 -24.5t32.5 -42t12 -60.5q0 -32 -11 -56t-28 -41.5t-36.5 -30t-37.5 -21.5l122 -158l19 96l-59 13v37h196v-37l-74 -13l-55 -132l104 -136z" />
    <glyph glyph-name="quotesingle" unicode="'" horiz-adv-x="180" 
d="M136 703v-85l-31 -171h-31l-31 171v85h93z" />
    <glyph glyph-name="parenleft" unicode="(" horiz-adv-x="322" 
d="M146 245q0 -57 8.5 -120t26 -122.5t44.5 -112.5t63 -91l-25 -28q-49 37 -90 89t-69.5 113.5t-44.5 131t-16 140.5t16 140.5t44.5 131t69.5 113t90 88.5l25 -28q-36 -38 -63 -90.5t-44.5 -112t-26 -122.5t-8.5 -120z" />
    <glyph glyph-name="parenright" unicode=")" horiz-adv-x="322" 
d="M59 718q50 -37 91 -88.5t69.5 -113t44.5 -131t16 -140.5t-16 -140.5t-44.5 -131t-69.5 -113.5t-91 -89l-25 28q37 38 63.5 91t44 112.5t26 122.5t8.5 120t-8.5 120t-26 122.5t-44 112t-63.5 90.5z" />
    <glyph glyph-name="asterisk" unicode="*" horiz-adv-x="438" 
d="M360 443l41 -24l-40 -69l-41 24l-91 88l30 -123v-47h-80v47l30 123l-91 -88l-41 -24l-40 69l42 24l121 35l-121 35l-42 24l40 69l41 -24l91 -88l-30 123v47h80v-47l-30 -123l91 88l41 24l40 -69l-41 -24l-121 -35z" />
    <glyph glyph-name="plus" unicode="+" horiz-adv-x="536" 
d="M463 326v-59h-164v-198h-63v198h-164v59h164v198h63v-198h164z" />
    <glyph glyph-name="comma" unicode="," horiz-adv-x="231" 
d="M105 121q42 0 66.5 -31.5t24.5 -72.5q0 -63 -31 -101t-94 -55l-19 41q39 10 65.5 32t26.5 58l-91 33q-4 7 -8 16t-4 21q0 22 17 40.5t47 18.5z" />
    <glyph glyph-name="hyphen" unicode="-" horiz-adv-x="278" 
d="M238 293v-71l-198 -22v70z" />
    <glyph glyph-name="hyphen" unicode="&#xad;" horiz-adv-x="278" 
d="M238 293v-71l-198 -22v70z" />
    <glyph glyph-name="period" unicode="." horiz-adv-x="231" 
d="M115 127q28 0 48 -20t20 -48t-20 -47.5t-48 -19.5t-48 19.5t-20 47.5t20 48t48 20z" />
    <glyph glyph-name="slash" unicode="/" horiz-adv-x="271" 
d="M181 658h65l-157 -708h-65z" />
    <glyph glyph-name="zero" unicode="0" horiz-adv-x="478" 
d="M239 660q53 0 92.5 -28t65 -75t38.5 -108t13 -127t-13 -127t-38.5 -108t-65 -75t-92.5 -28t-92.5 28t-65 75t-38.5 108t-13 127t13 127t38.5 108t65 75t92.5 28zM239 27q26 0 42 24t25 64.5t12 94t3 112.5t-3 112.5t-12 94t-25 64.5t-42 24t-42 -24t-25 -64.5t-12 -94
t-3 -112.5t3 -112.5t12 -94t25 -64.5t42 -24z" />
    <glyph glyph-name="one" unicode="1" horiz-adv-x="376" 
d="M366 38v-38h-323v38l102 13v512l-119 -11v36l216 60h22v-597z" />
    <glyph glyph-name="two" unicode="2" horiz-adv-x="448" 
d="M378 187l41 -6l-18 -181h-377l-4 46l126 141q81 90 105 155t24 134q0 54 -23 90t-69 36q-42 0 -68 -33t-36 -76l-48 21q15 57 58.5 101t121.5 44q87 0 139 -46t52 -136q0 -37 -12.5 -69.5t-37 -66.5t-60.5 -73t-82 -89l-67 -72v-4h208z" />
    <glyph glyph-name="three" unicode="3" horiz-adv-x="429" 
d="M244 343q32 -3 61 -15t50.5 -32.5t34.5 -49t13 -63.5q0 -50 -17 -88t-47.5 -63t-71.5 -37.5t-89 -12.5q-51 0 -91.5 19t-65.5 45l29 47q22 -23 50 -39t65 -16q55 0 83.5 39t28.5 105q0 57 -34 91.5t-80 34.5q-13 0 -28 -2.5t-28 -6.5l-7 59q73 0 113.5 33.5t40.5 108.5
q0 54 -23.5 78.5t-56.5 24.5q-37 0 -61 -24.5t-35 -61.5l-46 25q21 55 63 86t107 31q32 0 64 -8.5t56.5 -27.5t39.5 -49t15 -73q0 -54 -36.5 -98.5t-96.5 -57.5v-2z" />
    <glyph glyph-name="four" unicode="4" horiz-adv-x="477" 
d="M373 254h96l-15 -78h-81v-189h-113v189h-238l-18 51l282 431l87 -7v-397zM83 254h177v275z" />
    <glyph glyph-name="five" unicode="5" horiz-adv-x="432" 
d="M202 398q40 0 77 -12.5t64 -37t43.5 -62t16.5 -87.5q0 -54 -17.5 -95t-48.5 -68t-73 -40.5t-90 -13.5q-46 0 -88 18t-71 49l29 47q25 -27 55.5 -42.5t69.5 -15.5q49 0 79.5 38.5t30.5 104.5q0 75 -39.5 109.5t-102.5 34.5q-17 0 -39.5 -3t-40.5 -7l22 329h296l-9 -108
h-242l-10 -151q17 4 39.5 8.5t48.5 4.5z" />
    <glyph glyph-name="six" unicode="6" horiz-adv-x="473" 
d="M276 424q81 0 127 -59.5t46 -152.5q0 -45 -14 -86.5t-40.5 -73t-66 -50t-90.5 -18.5q-53 0 -92.5 24.5t-65.5 65.5t-39 96t-13 115q0 94 26 166t73 120.5t114.5 73t149.5 24.5v-52q-58 0 -99.5 -18.5t-69 -51t-43 -77.5t-22.5 -98q20 24 50 38t69 14zM248 26
q34 0 54.5 44.5t20.5 126.5q0 87 -24.5 128t-61.5 41q-28 0 -47.5 -14t-33.5 -37q-1 -7 -1.5 -23.5t-0.5 -24.5q0 -43 4.5 -86t15 -77.5t28.5 -56t46 -21.5z" />
    <glyph glyph-name="seven" unicode="7" horiz-adv-x="408" 
d="M411 644v-49l-151 -390l-61 -214h-133l266 548h-250l-25 -80l-41 6l26 179h369z" />
    <glyph glyph-name="eight" unicode="8" horiz-adv-x="477" 
d="M315 361q22 -12 46 -29t44 -39t33 -50.5t13 -63.5q0 -47 -18.5 -83.5t-48.5 -61.5t-68.5 -38.5t-78.5 -13.5q-39 0 -77 11t-68 33.5t-48.5 56.5t-18.5 80q0 32 13.5 58.5t33 46.5t43 34t42.5 22q-18 12 -37 27.5t-34.5 36t-25.5 46t-10 55.5q0 75 54 124t137 49
q84 0 134 -43.5t50 -110.5q0 -28 -11 -52t-27.5 -42.5t-36 -32t-35.5 -20.5zM278 386q15 18 27 49t12 67q0 62 -24.5 90t-56.5 28q-29 0 -50.5 -23t-21.5 -71q0 -46 32.5 -79t81.5 -61zM242 27q38 0 62.5 29.5t24.5 85.5q0 53 -40.5 89.5t-94.5 67.5q-25 -25 -38 -60.5
t-13 -71.5q0 -63 28.5 -101.5t70.5 -38.5z" />
    <glyph glyph-name="nine" unicode="9" horiz-adv-x="471" 
d="M233 664q51 0 90.5 -24t65.5 -64.5t39.5 -96t13.5 -118.5q0 -92 -26 -163.5t-73 -120t-113.5 -74t-147.5 -25.5l-4 52q58 1 99.5 20.5t69 52t43.5 76.5t22 95q-19 -22 -46.5 -36t-69.5 -14q-41 0 -73.5 16.5t-54.5 45t-34 67t-12 82.5q0 50 15 92t42 72.5t66 47.5t88 17z
M315 330q1 9 1.5 28.5t0.5 26.5q0 44 -4.5 86.5t-15.5 76t-29 54t-45 20.5q-37 0 -56.5 -44.5t-19.5 -129.5q0 -83 25 -125t65 -42q25 0 45.5 13.5t32.5 35.5z" />
    <glyph glyph-name="colon" unicode=":" horiz-adv-x="264" 
d="M132 426q28 0 48 -20t20 -48t-20 -48t-48 -20t-48 20t-20 48t20 48t48 20zM132 127q28 0 48 -20t20 -48t-20 -47.5t-48 -19.5t-48 19.5t-20 47.5t20 48t48 20z" />
    <glyph glyph-name="semicolon" unicode=";" horiz-adv-x="264" 
d="M132 426q28 0 48 -20t20 -48t-20 -48t-48 -20t-48 20t-20 48t20 48t48 20zM121 121q42 0 66.5 -31.5t24.5 -72.5q0 -63 -31 -101t-93 -55l-19 41q38 10 64.5 32t26.5 58l-91 33q-5 7 -8.5 16t-3.5 21q0 22 17.5 40.5t46.5 18.5z" />
    <glyph glyph-name="less" unicode="&#x3c;" horiz-adv-x="536" 
d="M452 127v-72l-394 219v41l394 220v-72l-310 -168z" />
    <glyph glyph-name="equal" unicode="=" horiz-adv-x="536" 
d="M463 417v-59h-391v59h391zM463 234v-59h-391v59h391z" />
    <glyph glyph-name="greater" unicode="&#x3e;" horiz-adv-x="536" 
d="M477 315v-41l-393 -219v72l309 168l-309 168v72z" />
    <glyph glyph-name="question" unicode="?" horiz-adv-x="411" 
d="M152 673q47 0 89 -16t73 -45t49.5 -70t18.5 -90q0 -51 -15.5 -90.5t-41.5 -68t-62.5 -46.5t-78.5 -25l-1 -72h-53l-2 188q84 11 124 50t40 102q0 53 -28 85t-72 32q-28 0 -56.5 -17t-56.5 -51l-46 106q23 13 58 20.5t61 7.5zM156 111q25 0 43 -18t18 -43t-18 -42.5
t-43 -17.5t-42.5 17.5t-17.5 42.5t17.5 43t42.5 18z" />
    <glyph glyph-name="at" unicode="@" horiz-adv-x="721" 
d="M401 598q61 0 113 -19.5t90 -56.5t59.5 -90.5t21.5 -119.5q0 -57 -13.5 -105t-39.5 -82.5t-64 -53.5t-87 -19q-14 0 -30.5 4t-26.5 9v92q-10 -43 -38.5 -74t-70.5 -31q-49 0 -77 41.5t-28 98.5q0 47 12 91t34 77t54 53t71 20q20 0 39 -8.5t29 -24.5l5 20l76 7h10
l-24 -212q-1 -12 -2.5 -34.5t-1.5 -34.5v-50q28 0 51.5 16t41 43.5t27.5 66t10 82.5q0 63 -18.5 111.5t-51 80.5t-76.5 49t-95 17q-61 0 -112 -27t-87 -73t-56.5 -108t-20.5 -133t19.5 -130t53.5 -100t82 -64t104 -23q52 0 103 18t90 50l16 -27q-49 -37 -106.5 -59
t-121.5 -22q-70 0 -130 26t-102.5 71.5t-67 109t-24.5 138.5q0 82 27.5 153.5t75.5 123.5t114.5 82t142.5 30zM434 284l9 85q-8 13 -18 19.5t-26 6.5q-25 0 -43 -19t-28.5 -49.5t-15.5 -67.5t-5 -73q0 -43 9.5 -65t28.5 -22q29 0 54.5 52t34.5 133z" />
    <glyph glyph-name="A" unicode="A" horiz-adv-x="544" 
d="M163 244h140l-70 238zM542 36v-36h-246v36l64 12l-42 145h-169l-42 -144l63 -13v-36h-168v35l44 14l188 599h75l189 -600z" />
    <glyph glyph-name="B" unicode="B" horiz-adv-x="527" 
d="M333 342q34 -3 64.5 -13.5t53.5 -29.5t36.5 -48.5t13.5 -70.5q0 -84 -58.5 -132t-163.5 -48h-249v36l65 12v548l-65 12v36h248q38 0 72.5 -8.5t59.5 -26.5t40 -46t15 -66q0 -66 -37 -104t-95 -48v-3zM243 358q48 0 72 34t24 94q0 56 -23 85t-65 29q-7 0 -15 -1t-15 -2
v-239h22zM265 44q53 0 79 35.5t26 95.5t-28 99t-88 39h-17t-16 -1v-262q9 -3 21.5 -4.5t22.5 -1.5z" />
    <glyph glyph-name="B" unicode="&#xe000;" horiz-adv-x="527" 
d="M333 342q34 -3 64.5 -13.5t53.5 -29.5t36.5 -48.5t13.5 -70.5q0 -84 -58.5 -132t-163.5 -48h-249v36l65 12v548l-65 12v36h248q38 0 72.5 -8.5t59.5 -26.5t40 -46t15 -66q0 -66 -37 -104t-95 -48v-3zM243 358q48 0 72 34t24 94q0 56 -23 85t-65 29q-7 0 -15 -1t-15 -2
v-239h22zM265 44q53 0 79 35.5t26 95.5t-28 99t-88 39h-17t-16 -1v-262q9 -3 21.5 -4.5t22.5 -1.5z" />
    <glyph glyph-name="C" unicode="C" horiz-adv-x="514" 
d="M452 127l34 -34q-34 -51 -82.5 -79t-114.5 -28q-58 0 -106.5 23.5t-83.5 67t-54.5 105t-19.5 136.5t19.5 138t55 107.5t86 69.5t112.5 25q40 0 72 -6.5t59 -20.5l11 26h43l-10 -198h-44l-16 102q-19 23 -45 36.5t-63 13.5t-63.5 -22.5t-43 -60.5t-24.5 -90.5t-8 -112.5
q0 -54 9 -105t27.5 -89.5t46.5 -61.5t66 -23q44 0 78 21.5t59 59.5z" />
    <glyph glyph-name="D" unicode="D" horiz-adv-x="586" 
d="M284 644q61 0 112.5 -22t88 -62.5t57 -99t20.5 -132.5q0 -75 -20 -136t-55.5 -103.5t-86 -65.5t-110.5 -23h-260v36l65 12v548l-65 12v36h254zM262 43q83 0 121.5 76.5t38.5 204.5q0 129 -39 203t-123 74q-10 0 -18.5 -1t-17.5 -2v-549q7 -2 18 -4t20 -2z" />
    <glyph glyph-name="E" unicode="E" horiz-adv-x="502" 
d="M466 168v-168h-436v36l65 12v548l-65 12v36h422v-158h-48l-15 108h-165v-236h110l10 69h42v-189h-42l-10 70h-110v-256h176l16 116h50z" />
    <glyph glyph-name="E" unicode="&#xe001;" horiz-adv-x="502" 
d="M466 168v-168h-436v36l65 12v548l-65 12v36h422v-158h-48l-15 108h-165v-236h110l10 69h42v-189h-42l-10 70h-110v-256h176l16 116h50z" />
    <glyph glyph-name="F" unicode="F" horiz-adv-x="477" 
d="M452 644v-158h-48l-15 108h-165v-245h110l10 70h42v-190h-42l-10 69h-110v-250l84 -12v-36h-278v36l65 12v548l-65 12v36h422z" />
    <glyph glyph-name="G" unicode="G" horiz-adv-x="562" 
d="M536 275v-35l-33 -14v-179q-35 -28 -89.5 -44.5t-116.5 -16.5q-124 0 -198 89.5t-74 242.5q0 76 20 139.5t56.5 107.5t89 68.5t115.5 24.5q37 0 74 -7t63 -21l12 27h42l-8 -198h-45l-16 102q-21 22 -49 36t-65 14q-42 0 -70.5 -23t-45.5 -62.5t-24.5 -93t-7.5 -113.5
q0 -63 9.5 -115.5t28 -90t46 -58t63.5 -20.5q18 0 36 6t29 16v169l-78 11v38h236z" />
    <glyph glyph-name="H" unicode="H" horiz-adv-x="641" 
d="M612 36v-36h-260v36l65 12v262h-193v-262l65 -12v-36h-259v36l65 12v548l-65 12v36h259v-36l-65 -12v-236h193v236l-65 12v36h260v-36l-65 -12v-548z" />
    <glyph glyph-name="I" unicode="I" horiz-adv-x="321" 
d="M290 36v-36h-259v36l65 12v548l-65 12v36h259v-36l-65 -12v-548z" />
    <glyph glyph-name="J" unicode="J" horiz-adv-x="308" 
d="M289 644v-36l-65 -12v-481q0 -119 -54.5 -171t-152.5 -52h-14.5t-13.5 1l-9 43q72 0 93.5 38t21.5 111v511l-65 12v36h259z" />
    <glyph glyph-name="K" unicode="K" horiz-adv-x="585" 
d="M583 36v-36h-170l-170 295h-20v-247l60 -12v-36h-253v36l65 12v548l-65 12v36h253v-36l-60 -12v-259h10l192 262l-49 9v36h179v-36l-59 -12l-164 -215l206 -332z" />
    <glyph glyph-name="L" unicode="L" horiz-adv-x="477" 
d="M458 175v-175h-428v36l65 12v548l-65 12v36h269v-36l-75 -12v-544h168l17 123h49z" />
    <glyph glyph-name="M" unicode="M" horiz-adv-x="765" 
d="M743 36v-36h-259v36l66 12l-14 503l-166 -551h-51l-166 548l-11 -498l65 -14v-36h-187v36l65 14l15 545l-66 13v36h219l130 -424l130 424h215v-36l-67 -12l16 -548z" />
    <glyph glyph-name="N" unicode="N" horiz-adv-x="593" 
d="M580 644v-36l-65 -14v-598h-62l-308 473v-419l65 -14v-36h-188v36l66 14v510l-30 41l-37 9v34h168l268 -414v364l-65 14v36h188z" />
    <glyph glyph-name="O" unicode="O" horiz-adv-x="584" 
d="M293 658q57 0 105.5 -23.5t83.5 -66.5t55 -105.5t20 -138.5q0 -77 -20.5 -139.5t-56 -106.5t-84.5 -68t-106 -24t-105.5 23.5t-83.5 66.5t-55 105.5t-20 138.5q0 77 20.5 139.5t56 106.5t84.5 68t106 24zM293 33q62 0 92.5 74.5t30.5 212.5q0 137 -32 214t-94 77
q-61 0 -92 -74.5t-31 -212.5q0 -137 32.5 -214t93.5 -77z" />
    <glyph glyph-name="P" unicode="P" horiz-adv-x="504" 
d="M255 295q51 0 75 44t24 122q0 62 -25 101t-71 39q-9 0 -17.5 -1t-16.5 -2v-302q7 -1 16 -1h15zM278 644q93 0 150.5 -48t57.5 -129q0 -96 -59 -156.5t-168 -60.5q-7 0 -18 0.5t-17 1.5v-204l75 -12v-36h-269v36l65 12v548l-65 12v36h248z" />
    <glyph glyph-name="Q" unicode="Q" horiz-adv-x="584" 
d="M568 -37l20 -20l-90 -137q-76 31 -135 76.5t-102 105.5q-51 5 -94.5 31t-74.5 68.5t-48.5 101.5t-17.5 131q0 77 20.5 139.5t56 106.5t84.5 68t106 24t105.5 -23.5t83.5 -66.5t55 -105.5t20 -138.5q0 -136 -61 -224.5t-160 -107.5q36 -24 87 -42.5t98 -23.5zM293 33
q62 0 92.5 74.5t30.5 212.5q0 137 -32 214t-94 77q-61 0 -92 -74.5t-31 -212.5q0 -137 32.5 -214t93.5 -77z" />
    <glyph glyph-name="R" unicode="R" horiz-adv-x="563" 
d="M247 314q51 0 78 43.5t27 110.5q0 62 -25 97.5t-71 35.5q-9 0 -18 -1t-16 -2v-284h25zM561 36v-36h-163l-135 272l-41 -4v-220l66 -12v-36h-258v36l65 12v548l-65 12v36h247q39 0 76.5 -8.5t66 -28t46 -51.5t17.5 -78q0 -60 -28.5 -107t-76.5 -68l139 -253z" />
    <glyph glyph-name="S" unicode="S" horiz-adv-x="467" 
d="M285 387q70 -40 108.5 -86t38.5 -123q0 -44 -15 -80t-40.5 -60.5t-60.5 -38t-75 -13.5q-42 0 -76 9t-63 29l-12 -35h-42l-6 215l46 4l19 -103q18 -30 49 -50t69 -20q45 0 70 29.5t25 70.5q0 46 -29 75.5t-102 71.5q-63 36 -101 82.5t-38 122.5q0 40 15 72t39 54t56 33.5
t66 11.5q37 0 66.5 -6t57.5 -22l11 26h42l-5 -192h-45l-16 100q-16 22 -39 35t-57 13t-59 -22.5t-25 -60.5q0 -44 28 -73t100 -69z" />
    <glyph glyph-name="S" unicode="&#xe002;" horiz-adv-x="467" 
d="M285 387q70 -40 108.5 -86t38.5 -123q0 -44 -15 -80t-40.5 -60.5t-60.5 -38t-75 -13.5q-42 0 -76 9t-63 29l-12 -35h-42l-6 215l46 4l19 -103q18 -30 49 -50t69 -20q45 0 70 29.5t25 70.5q0 46 -29 75.5t-102 71.5q-63 36 -101 82.5t-38 122.5q0 40 15 72t39 54t56 33.5
t66 11.5q37 0 66.5 -6t57.5 -22l11 26h42l-5 -192h-45l-16 100q-16 22 -39 35t-57 13t-59 -22.5t-25 -60.5q0 -44 28 -73t100 -69z" />
    <glyph glyph-name="T" unicode="T" horiz-adv-x="520" 
d="M506 644v-178h-49l-18 127h-114v-545l70 -12v-36h-270v36l70 12v545h-114l-18 -127h-49v178h492z" />
    <glyph glyph-name="U" unicode="U" horiz-adv-x="583" 
d="M571 644v-36l-61 -14v-369q0 -117 -51.5 -178t-162.5 -61q-110 0 -163 60.5t-53 179.5v370l-66 12v36h260v-36l-65 -12v-345q0 -90 22.5 -145.5t97.5 -55.5q73 0 98 54t25 144v346l-65 14v36h184z" />
    <glyph glyph-name="V" unicode="V" horiz-adv-x="545" 
d="M543 644v-36l-46 -13l-196 -603h-56l-197 603l-46 13v36h255v-36l-70 -11l125 -407l123 407l-68 11v36h176z" />
    <glyph glyph-name="W" unicode="W" horiz-adv-x="770" 
d="M768 644v-36l-46 -13l-171 -603h-55l-110 382l-108 -382h-55l-176 603l-45 13v36h238v-36l-54 -11l101 -389l71 266l-36 123l-43 11v36h244v-36l-65 -11v-2l102 -388l101 390l-64 11v36h171z" />
    <glyph glyph-name="X" unicode="X" horiz-adv-x="551" 
d="M549 36v-36h-264v36l66 11l-108 210l-108 -210l67 -11v-36h-200v36l66 13l145 262l-157 286l-50 11v36h263v-36l-66 -11l98 -192l98 192l-66 11v36h199v-36l-67 -13l-134 -244l168 -304z" />
    <glyph glyph-name="Y" unicode="Y" horiz-adv-x="527" 
d="M525 644v-36l-45 -13l-148 -330v-217l70 -12v-36h-269v36l70 12v198l-157 349l-44 13v36h254v-36l-69 -11l117 -276l115 276l-69 11v36h175z" />
    <glyph glyph-name="Z" unicode="Z" horiz-adv-x="489" 
d="M422 186h50l-10 -186h-444l-4 24l297 571h-199l-17 -128h-49v177h421v-19l-299 -573h226z" />
    <glyph glyph-name="bracketleft" unicode="[" horiz-adv-x="310" 
d="M268 -180v-33h-195v916h195v-33l-102 -8v-834z" />
    <glyph glyph-name="backslash" unicode="\" horiz-adv-x="271" 
d="M89 658l157 -708h-65l-157 708h65z" />
    <glyph glyph-name="bracketright" unicode="]" horiz-adv-x="310" 
d="M237 703v-916h-195v33l102 8v834l-102 8v33h195z" />
    <glyph glyph-name="underscore" unicode="_" horiz-adv-x="416" 
d="M416 -74v-54h-416v54h416z" />
    <glyph glyph-name="grave" unicode="`" 
d="M184 687l101 -191l-24 -17l-158 149z" />
    <glyph glyph-name="a" unicode="a" horiz-adv-x="406" 
d="M403 67l7 -34q-16 -21 -39 -33t-50 -12q-34 0 -55.5 14.5t-31.5 44.5q-19 -26 -43 -42.5t-63 -16.5q-46 0 -79 34.5t-33 83.5q0 68 42.5 99t102.5 43l65 13v56q0 31 -13 51.5t-46 20.5q-31 0 -55.5 -18t-40.5 -47l-35 38q30 42 67.5 62t94.5 20q71 0 109 -35t38 -103
v-200q0 -28 8 -39.5t24 -11.5q7 0 13.5 3.5t12.5 8.5zM180 54q13 0 26 7t20 18v145l-43 -10q-28 -7 -43.5 -31.5t-15.5 -56.5q0 -29 15.5 -50.5t40.5 -21.5z" />
    <glyph glyph-name="b" unicode="b" horiz-adv-x="456" 
d="M284 442q66 0 109.5 -57t43.5 -160q0 -113 -63 -175t-160 -62q-40 0 -85 8t-79 26v614l-51 10v34l171 15v-319q19 34 46.5 50t67.5 16zM223 30q22 0 39 15t28 40t16.5 58.5t5.5 70.5q0 69 -15 117.5t-63 48.5q-21 0 -39 -15.5t-25 -42.5v-275q12 -9 25 -13t28 -4z" />
    <glyph glyph-name="b" unicode="&#xe003;" horiz-adv-x="456" 
d="M284 442q66 0 109.5 -57t43.5 -160q0 -113 -63 -175t-160 -62q-40 0 -85 8t-79 26v614l-51 10v34l171 15v-319q19 34 46.5 50t67.5 16zM223 30q22 0 39 15t28 40t16.5 58.5t5.5 70.5q0 69 -15 117.5t-63 48.5q-21 0 -39 -15.5t-25 -42.5v-275q12 -9 25 -13t28 -4z" />
    <glyph glyph-name="c" unicode="c" horiz-adv-x="391" 
d="M345 102l31 -36q-32 -43 -72 -60.5t-91 -17.5q-41 0 -77 15.5t-62 45t-41 72t-15 95.5q0 47 14 88t40.5 71.5t64.5 48.5t86 18q25 0 51 -6.5t43 -19.5l12 24h35l-8 -143h-44q-7 51 -25.5 79.5t-55.5 28.5q-42 0 -64 -49t-22 -130q0 -84 26.5 -132.5t76.5 -48.5
q28 0 53 14.5t44 42.5z" />
    <glyph glyph-name="d" unicode="d" horiz-adv-x="467" 
d="M221 46q22 0 39.5 15t27.5 46v251q-10 19 -24.5 29.5t-32.5 10.5q-25 0 -42 -15.5t-27 -41t-14.5 -57.5t-4.5 -65q0 -29 3.5 -60t12.5 -56t24 -41t38 -16zM459 41v-34l-164 -14v66h-1q-16 -31 -42 -51t-65 -20q-33 0 -64 13.5t-54 40.5t-37 68t-14 94q0 107 53 172.5
t131 65.5q27 0 50 -8t36 -25v226l-57 11v34l177 15v-647z" />
    <glyph glyph-name="e" unicode="e" horiz-adv-x="412" 
d="M391 246v-20h-245v-20q0 -31 6 -60t18.5 -51.5t31.5 -36t45 -13.5q38 0 63.5 17t44.5 42l30 -36q-33 -40 -72 -60t-96 -20q-88 0 -143.5 62.5t-55.5 165.5q0 48 14.5 89.5t41 71.5t64.5 47.5t85 17.5q82 0 125 -52.5t43 -143.5zM147 266l124 2q0 57 -10 97t-44 40
q-36 0 -52 -41.5t-18 -97.5z" />
    <glyph glyph-name="f" unicode="f" horiz-adv-x="292" 
d="M259 710q28 0 51 -4.5t44 -17.5l-37 -94q-38 29 -64.5 47.5t-33.5 18.5q-18 0 -24.5 -20.5t-6.5 -64.5v-148h104v-48h-104v-337l81 -10v-32h-251v32l50 10v334l-55 1v36l55 15v39q0 111 48.5 177t142.5 66z" />
    <glyph glyph-name="g" unicode="g" horiz-adv-x="419" 
d="M193 159q28 0 41 31.5t13 90.5t-13 91.5t-41 32.5t-41.5 -32.5t-13.5 -91.5t13.5 -90.5t41.5 -31.5zM417 447v-77l-93 14l-1 -2q20 -18 32 -44t12 -57q0 -65 -44.5 -110.5t-129.5 -49.5q-41 -2 -54.5 -16.5t-13.5 -24.5q0 -7 1.5 -11.5t4.5 -8.5l156 -18q51 -6 84 -36
t33 -81q0 -75 -63 -121.5t-162 -46.5q-79 0 -131 33t-52 91q0 37 22.5 60.5t59.5 33.5q-19 13 -26.5 29.5t-7.5 38.5q0 29 22.5 53.5t62.5 35.5v1q-46 13 -78 53.5t-32 94.5q0 68 50.5 114.5t123.5 46.5q26 0 50.5 -6.5t43.5 -17.5zM203 -202q42 0 73 25.5t31 65.5
q0 27 -16 38.5t-46 15.5l-140 16q-7 -10 -11 -26t-4 -31q0 -45 31 -74.5t82 -29.5z" />
    <glyph glyph-name="h" unicode="h" horiz-adv-x="485" 
d="M477 32v-32h-214v32l44 10v319q-5 9 -16 14t-24 5q-46 0 -65.5 -44t-19.5 -119v-175l44 -10v-32h-216v32l52 10v594l-52 10v34l172 15v-341q19 46 50 67t75 21q61 0 90.5 -38.5t29.5 -102.5v-259z" />
    <glyph glyph-name="i" unicode="i" horiz-adv-x="252" 
d="M123 654q29 0 49.5 -21t20.5 -49q0 -29 -20.5 -50t-49.5 -21q-28 0 -49 21t-21 50q0 28 21 49t49 21zM240 32v-32h-222v32l51 10v333l-51 10v34l171 22v-399z" />
    <glyph glyph-name="j" unicode="j" horiz-adv-x="237" 
d="M118 654q28 0 49 -21t21 -49q0 -29 -21 -50t-49 -21q-29 0 -50 21t-21 50q0 28 21 49t50 21zM184 441v-441q0 -64 -14 -105.5t-38.5 -68t-58 -41t-71.5 -24.5l-15 36q51 15 64 55t13 140v383l-52 10v34z" />
    <glyph glyph-name="k" unicode="k" horiz-adv-x="472" 
d="M470 30v-30h-157l-18 38l-99 176h-14v-172l50 -10v-32h-222v32l52 10v594l-52 10v34l172 15v-453h5l131 140v2l-54 10v33h176v-33l-56 -13l-98 -103l144 -235z" />
    <glyph glyph-name="l" unicode="l" horiz-adv-x="247" 
d="M234 32v-32h-222v32l51 10v594l-51 10v34l171 15v-653z" />
    <glyph glyph-name="m" unicode="m" horiz-adv-x="726" 
d="M717 32v-32h-211v32l41 10v320q-5 8 -14.5 13t-20.5 5q-46 0 -65 -45t-19 -116v-177l42 -10v-32h-204v32l42 10v320q-5 8 -14.5 13t-20.5 5q-46 0 -65 -45t-19 -116v-177l42 -10v-32h-213v32l51 10v334l-51 10v34l164 18v-96h1q19 51 51 75.5t75 24.5q46 0 74.5 -24.5
t38.5 -71.5h2q17 48 49 72t75 24q60 0 89.5 -38.5t29.5 -102.5v-259z" />
    <glyph glyph-name="n" unicode="n" horiz-adv-x="493" 
d="M485 32v-32h-215v32l45 10v319q-6 9 -16.5 14t-23.5 5q-46 0 -66 -44t-20 -119v-175l45 -10v-32h-216v32l51 10v334l-51 10v34l164 18v-96h1q19 53 53.5 76.5t77.5 23.5q62 0 91.5 -38.5t29.5 -102.5v-259z" />
    <glyph glyph-name="o" unicode="o" horiz-adv-x="440" 
d="M220 442q87 0 144 -61.5t57 -164.5t-57 -165.5t-144 -62.5t-144.5 62.5t-57.5 165.5t57.5 164.5t144.5 61.5zM220 26q39 0 55 50t16 140q0 89 -16 139t-55 50q-40 0 -56 -50t-16 -139q0 -90 16.5 -140t55.5 -50z" />
    <glyph glyph-name="p" unicode="p" horiz-adv-x="464" 
d="M233 30q21 0 37 14.5t27.5 39.5t17.5 58.5t6 71.5q0 69 -15.5 117.5t-63.5 48.5q-21 0 -39 -16t-25 -44v-264q10 -13 24.5 -19.5t30.5 -6.5zM292 442q66 0 110 -57t44 -160q0 -53 -15.5 -97t-42 -75t-62 -48t-74.5 -17q-20 0 -39.5 4.5t-34.5 15.5v-192l80 -10v-32h-251
v32l51 10v560l-51 10v34l164 18v-71h1q19 39 51 57t69 18z" />
    <glyph glyph-name="q" unicode="q" horiz-adv-x="455" 
d="M459 -194v-32h-247v32l76 12v229q-18 -27 -42.5 -43t-58.5 -16q-33 0 -64 13.5t-54 40.5t-37 68t-14 94q0 108 51.5 173t132.5 65q27 0 51.5 -8t45.5 -30l105 46l4 -3v-629zM221 46q22 0 39.5 15t27.5 46v251q-10 19 -24.5 29.5t-32.5 10.5q-26 0 -43 -15.5t-27 -40.5
t-14 -57t-4 -66q0 -29 3.5 -60t12.5 -56t24 -41t38 -16z" />
    <glyph glyph-name="r" unicode="r" horiz-adv-x="354" 
d="M291 442q17 0 34 -7t27 -20l-31 -98q-29 17 -50 27.5t-27 10.5q-27 0 -41.5 -30t-14.5 -85v-198l85 -10v-32h-255v32l51 10v334l-51 10v34l160 18v-106h2q16 63 47.5 86.5t63.5 23.5z" />
    <glyph glyph-name="s" unicode="s" horiz-adv-x="357" 
d="M231 257q46 -23 75 -56t29 -76q0 -35 -14 -61t-36.5 -43.5t-51.5 -26t-59 -8.5q-32 0 -57.5 10t-41.5 25l-11 -28h-36l-4 142l41 3q7 -45 33 -77.5t74 -32.5q25 0 40 17t15 39q0 28 -18.5 46t-75.5 48q-46 25 -73.5 57t-27.5 78q0 60 42.5 95t98.5 35q31 0 53 -6.5
t41 -19.5l12 23h33l-3 -133h-39q-7 54 -28.5 75.5t-52.5 21.5q-22 0 -39 -13.5t-17 -38.5q0 -29 20.5 -47t77.5 -48z" />
    <glyph glyph-name="s" unicode="&#xe004;" horiz-adv-x="357" 
d="M231 257q46 -23 75 -56t29 -76q0 -35 -14 -61t-36.5 -43.5t-51.5 -26t-59 -8.5q-32 0 -57.5 10t-41.5 25l-11 -28h-36l-4 142l41 3q7 -45 33 -77.5t74 -32.5q25 0 40 17t15 39q0 28 -18.5 46t-75.5 48q-46 25 -73.5 57t-27.5 78q0 60 42.5 95t98.5 35q31 0 53 -6.5
t41 -19.5l12 23h33l-3 -133h-39q-7 54 -28.5 75.5t-52.5 21.5q-22 0 -39 -13.5t-17 -38.5q0 -29 20.5 -47t77.5 -48z" />
    <glyph glyph-name="t" unicode="t" horiz-adv-x="305" 
d="M287 78l16 -34q-18 -22 -46.5 -39.5t-79.5 -17.5q-57 0 -87 37.5t-30 91.5v260l-56 1v36l61 23l66 141h48v-150h107v-48h-106v-243q0 -42 11 -63.5t41 -21.5q16 0 30 7t25 20z" />
    <glyph glyph-name="u" unicode="u" horiz-adv-x="476" 
d="M470 41v-34l-163 -14v96h-2q-19 -53 -53.5 -77t-77.5 -24q-62 0 -91.5 38.5t-29.5 103.5v253l-50 12v32h170v-356q6 -10 16.5 -15.5t22.5 -5.5q46 0 66.5 44.5t20.5 117.5v173l-56 10v32h176v-377z" />
    <glyph glyph-name="v" unicode="v" horiz-adv-x="421" 
d="M419 427v-32l-36 -10l-146 -396h-53l-146 396l-36 10v32h215v-32l-53 -8l82 -251l83 251l-54 8v32h144z" />
    <glyph glyph-name="w" unicode="w" horiz-adv-x="656" 
d="M654 427v-32l-35 -10l-145 -396h-53l-93 253l-92 -253h-52l-146 396l-36 10v32h204v-32l-43 -8l81 -252l59 177l-28 74l-34 9v32h209v-32l-49 -8v-1l80 -251l83 252l-51 8v32h141z" />
    <glyph glyph-name="x" unicode="x" horiz-adv-x="441" 
d="M438 32v-32h-217v32l47 10l-74 121l-74 -121l48 -10v-32h-163v32l55 12l107 158l-123 182l-39 11v32h216v-32l-47 -9l71 -115l69 115l-46 9v32h160v-32l-55 -11l-101 -151l129 -190z" />
    <glyph glyph-name="y" unicode="y" horiz-adv-x="428" 
d="M426 427v-32l-36 -10l-146 -410l-60 -207l-115 7l116 208l-147 402l-36 10v32h215v-32l-54 -8l86 -266l86 266l-54 8v32h145z" />
    <glyph glyph-name="y" unicode="&#xe006;" horiz-adv-x="428" 
d="M426 427v-32l-36 -10l-146 -410l-60 -207l-115 7l116 208l-147 402l-36 10v32h215v-32l-54 -8l86 -266l86 266l-54 8v32h145z" />
    <glyph glyph-name="z" unicode="z" horiz-adv-x="376" 
d="M316 142h41l-5 -142h-330l-8 35l209 349h-137l-14 -82h-41v125h319v-38l-207 -346h154z" />
    <glyph glyph-name="braceleft" unicode="{" horiz-adv-x="336" 
d="M288 -191v-35q-80 0 -134 35.5t-54 126.5q0 53 10 111.5t10 111.5q0 40 -19.5 54t-65.5 14v36q46 0 65.5 14t19.5 54q0 53 -10 111.5t-10 111.5q0 91 54 126.5t134 35.5v-35q-44 0 -67.5 -25.5t-23.5 -74.5q0 -52 9.5 -113.5t9.5 -114.5q0 -42 -29.5 -70t-69.5 -36v-4
q40 -7 69.5 -35.5t29.5 -70.5q0 -53 -9.5 -114.5t-9.5 -113.5q0 -49 23.5 -74.5t67.5 -25.5z" />
    <glyph glyph-name="bar" unicode="|" horiz-adv-x="208" 
d="M135 720v-982h-62v982h62z" />
    <glyph glyph-name="braceright" unicode="}" horiz-adv-x="336" 
d="M300 263v-36q-46 0 -65 -14t-19 -54q0 -53 9.5 -111.5t9.5 -111.5q0 -91 -54 -126.5t-134 -35.5v35q45 0 68.5 25.5t23.5 74.5q0 52 -9.5 113.5t-9.5 114.5q0 42 29 70.5t69 35.5v4q-40 8 -69 36t-29 70q0 53 9.5 114.5t9.5 113.5q0 49 -24 74.5t-68 25.5v35
q80 0 134 -35.5t54 -126.5q0 -53 -9.5 -111.5t-9.5 -111.5q0 -40 19 -54t65 -14z" />
    <glyph glyph-name="asciitilde" unicode="~" horiz-adv-x="569" 
d="M479 320l27 -20q-11 -22 -25.5 -45t-32 -41.5t-39 -30.5t-45.5 -12q-26 0 -50.5 12.5t-47 27.5t-43.5 27.5t-40 12.5q-31 0 -51 -14.5t-43 -46.5l-27 21q11 22 25.5 45t32 41.5t39 30.5t45.5 12q26 0 50.5 -12.5t47 -27.5t43.5 -27.5t40 -12.5q31 0 51 14.5t43 45.5z" />
    <glyph glyph-name="exclamdown" unicode="&#xa1;" horiz-adv-x="279" 
d="M137 663q25 0 43 -17.5t18 -42.5t-18 -43t-43 -18t-42.5 18t-17.5 43t17.5 42.5t42.5 17.5zM202 113v-121h-130v121l44 368h42z" />
    <glyph glyph-name="cent" unicode="&#xa2;" horiz-adv-x="455" 
d="M381 214l30 -37q-25 -31 -57 -49.5t-70 -25.5v-116h-49v113q-41 1 -77.5 16.5t-63.5 44t-42.5 71t-15.5 97.5q0 93 54 156.5t145 69.5v104h49v-105q20 -3 39 -9.5t32 -15.5l11 24h35l-8 -143h-42q-5 42 -22 69.5t-45 34.5v-357q26 1 52 17t45 41zM161 338q0 -72 20 -117
t54 -58v349q-36 -10 -55 -55t-19 -119z" />
    <glyph glyph-name="sterling" unicode="&#xa3;" horiz-adv-x="500" 
d="M422 157l41 -6q0 -61 -13 -109.5t-39 -76.5q-55 22 -120 39t-119 17q-21 0 -39 -2t-34 -8l-40 -30l-27 40l41 30q25 19 32.5 47t7.5 93v110h-77v49h77v69q0 107 52.5 174t147.5 67q37 0 69 -10t60 -34l-58 -93q-31 39 -56 66.5t-37 27.5q-32 0 -43.5 -36.5t-11.5 -81.5
v-149h142v-49h-141v-36q0 -63 -15 -105.5t-55 -78.5l1 -1q23 15 45 22t42 7q38 0 75 -8.5t72 -21.5q10 14 14.5 35t5.5 43z" />
    <glyph glyph-name="yen" unicode="&#xa5;" horiz-adv-x="583" 
d="M544 644v-36l-48 -13l-88 -196h113v-46h-134l-31 -68v-18h164v-47h-164v-173l67 -11v-36h-259v36l67 11v173h-164v47h163v6l-36 80h-127v46h106l-88 198l-46 11v36h255v-36l-70 -11l104 -250l105 249l-70 12v36h181z" />
    <glyph glyph-name="brokenbar" unicode="&#xa6;" horiz-adv-x="208" 
d="M135 720v-393h-62v393h62zM135 131v-393h-62v393h62z" />
    <glyph glyph-name="section" unicode="&#xa7;" horiz-adv-x="449" 
d="M300 181q11 9 16 20.5t5 27.5q0 15 -5 27.5t-19 26.5l-142 136q-10 -8 -15 -20.5t-5 -25.5q0 -17 6 -30t19 -26zM325 395q30 -29 47 -55.5t17 -71.5q0 -39 -21.5 -66t-46.5 -44q25 -25 40 -46t15 -54q0 -27 -12 -52t-32.5 -44.5t-49.5 -31t-63 -11.5q-37 0 -77.5 13
t-65.5 34l-4 119l38 3l17 -87q17 -18 37.5 -28.5t56.5 -10.5q43 0 59.5 25.5t16.5 53.5l-170 166q-31 30 -46 57.5t-15 69.5q0 35 21 60.5t47 44.5q-22 22 -38 46.5t-16 58.5q0 60 41 102t103 42q23 0 47.5 -4t41.5 -13l7 17h39v-157h-39l-16 87q-17 17 -35.5 23t-39.5 6
q-37 0 -54.5 -23.5t-17.5 -56.5q0 -3 1 -6.5l1 -3.5z" />
    <glyph glyph-name="dieresis" unicode="&#xa8;" 
d="M120 622q24 0 41 -17t17 -42t-17 -42t-41 -17q-25 0 -42 17t-17 42t17 42t42 17zM297 622q25 0 42 -17t17 -42t-17 -42t-42 -17q-24 0 -41.5 17t-17.5 42t17.5 42t41.5 17z" />
    <glyph glyph-name="copyright" unicode="&#xa9;" horiz-adv-x="669" 
d="M334 638q60 0 112.5 -24.5t90.5 -67t60.5 -99.5t22.5 -122t-22.5 -122t-60.5 -99.5t-90.5 -67t-112.5 -24.5q-59 0 -111.5 24.5t-90.5 67t-60.5 99.5t-22.5 122q0 64 22.5 121.5t60.5 99.5t90.5 67t111.5 25zM334 45q51 0 96.5 22t78.5 60t52.5 89.5t19.5 108.5
t-19 108.5t-52 89.5t-78.5 60t-97.5 22q-51 0 -96.5 -22t-78.5 -60t-52.5 -89.5t-19.5 -108.5t19.5 -108.5t52.5 -89.5t78.5 -60t96.5 -22zM442 228l24 -28q-25 -33 -56.5 -48.5t-71.5 -15.5q-71 0 -119.5 51t-48.5 135q0 86 50 139t122 53q22 0 44 -5t38 -15l5 20h29
l-4 -125h-28l-9 55q-15 15 -31.5 22.5t-41.5 7.5q-43 0 -64.5 -43t-21.5 -101q0 -69 25.5 -110t71.5 -41q29 0 50 13t37 36z" />
    <glyph glyph-name="ordfeminine" unicode="&#xaa;" horiz-adv-x="310" 
d="M291 423l9 -22q-13 -19 -33 -28t-39 -9q-22 0 -39 10t-22 29q-11 -16 -28 -27.5t-39 -11.5q-31 0 -53.5 21t-22.5 56q0 41 25.5 61t58.5 27l54 12v26q0 25 -8.5 38t-29.5 13q-19 0 -33.5 -11t-26.5 -33l-27 26q21 29 46 43t62 14q42 0 74.5 -21.5t32.5 -73.5v-117
q0 -15 4.5 -23.5t14.5 -8.5q5 0 11 3t9 7zM135 410q9 0 15.5 4t11.5 12v87l-21 -4q-17 -3 -26.5 -19t-9.5 -38q0 -19 8.5 -30.5t21.5 -11.5z" />
    <glyph glyph-name="guillemotleft" unicode="&#xab;" horiz-adv-x="467" 
d="M155 223l70 -167l-22 -15l-152 182l152 181l22 -15zM329 223l70 -167l-23 -15l-151 182l151 181l23 -15z" />
    <glyph glyph-name="registered" unicode="&#xae;" horiz-adv-x="318" 
d="M158 682q59 0 101.5 -42t42.5 -101q0 -58 -42.5 -100.5t-101.5 -42.5q-58 0 -100 42.5t-42 100.5q0 59 42 101t100 42zM158 419q50 0 85 35.5t35 84.5t-35 85t-85 36q-49 0 -83.5 -36t-34.5 -85t34.5 -84.5t83.5 -35.5zM148 542q17 0 26 9t9 25q0 14 -9.5 21.5t-22.5 7.5
h-4.5t-4.5 -1v-62h6zM244 476v-14h-48l-42 65l-12 -2v-45l17 -4v-14h-73v14l20 4v123l-20 4v13h77q25 0 41 -9t16 -32q0 -17 -9.5 -28t-23.5 -16l41 -53z" />
    <glyph glyph-name="macron" unicode="&#xaf;" 
d="M347 600v-65h-278v65h278z" />
    <glyph glyph-name="degree" unicode="&#xb0;" horiz-adv-x="296" 
d="M148 661q54 0 90 -38.5t36 -93.5q0 -54 -36 -93.5t-90 -39.5t-90 39.5t-36 93.5q0 55 36 93.5t90 38.5zM148 444q32 0 53 25t21 60q0 36 -20.5 60.5t-53.5 24.5q-32 0 -53 -24.5t-21 -60.5q0 -35 21 -60t53 -25z" />
    <glyph glyph-name="twosuperior" unicode="&#xb2;" horiz-adv-x="331" 
d="M271 429l32 -5l-12 -117h-262l-4 34l66 58q57 50 76.5 82.5t19.5 67.5q0 40 -15 56t-40 16q-24 0 -40 -19.5t-23 -47.5l-36 19q12 40 42.5 67t81.5 27q57 0 93 -27t36 -79q0 -46 -28.5 -75.5t-68.5 -60.5l-51 -39v-2h117z" />
    <glyph glyph-name="threesuperior" unicode="&#xb3;" horiz-adv-x="331" 
d="M182 491q45 -3 75.5 -25.5t30.5 -63.5q0 -58 -41 -86.5t-102 -28.5q-34 0 -61.5 11t-48.5 32l22 37q14 -16 31.5 -26.5t38.5 -10.5q28 0 44 18.5t16 50.5q0 31 -17 48t-42 17q-11 0 -21 -1t-20 -4l-3 43h7q41 0 63 15.5t22 55.5q0 26 -13 38t-33 12q-19 0 -33.5 -10.5
t-21.5 -32.5l-32 20q13 32 41.5 49.5t69.5 17.5q50 0 85 -22.5t35 -65.5q0 -38 -24.5 -59t-67.5 -28v-1z" />
    <glyph glyph-name="acute" unicode="&#xb4;" 
d="M239 687l81 -60l-159 -148l-23 17z" />
    <glyph glyph-name="paragraph" unicode="&#xb6;" horiz-adv-x="443" 
d="M415 644v-36l-65 -12v-752h-55v304q-56 0 -105.5 14.5t-86.5 45t-59 78t-22 113.5q0 56 17.5 102t48 77.5t71 48.5t86.5 17h170zM221 294q0 -53 15.5 -78.5t58.5 -25.5v410h-74v-306z" />
    <glyph glyph-name="periodcentered" unicode="&#xb7;" horiz-adv-x="280" 
d="M140 332q28 0 48 -20t20 -48t-20 -48t-48 -20t-48 20t-20 48t20 48t48 20z" />
    <glyph glyph-name="cedilla" unicode="&#xb8;" 
d="M223 -59q32 -9 56.5 -31t24.5 -58q0 -54 -36.5 -80.5t-92.5 -26.5q-13 0 -32 4.5t-31 11.5l16 40q10 -7 24 -12t25 -5q19 0 35.5 10t16.5 38t-17 42t-60 23l51 103h33z" />
    <glyph glyph-name="onesuperior" unicode="&#xb9;" horiz-adv-x="331" 
d="M275 334v-28h-215v28l60 11v262h-66v27l161 27v-316z" />
    <glyph glyph-name="ordmasculine" unicode="&#xba;" horiz-adv-x="320" 
d="M160 657q55 0 95.5 -40t40.5 -106t-40.5 -106.5t-95.5 -40.5q-56 0 -96 40.5t-40 106.5t40 106t96 40zM160 396q23 0 32.5 30.5t9.5 84.5q0 55 -9.5 85t-32.5 30t-32.5 -30t-9.5 -85q0 -54 9.5 -84.5t32.5 -30.5z" />
    <glyph glyph-name="guillemotright" unicode="&#xbb;" horiz-adv-x="467" 
d="M90 404l152 -181l-152 -182l-23 15l71 167l-71 166zM264 404l152 -181l-152 -182l-23 15l71 167l-71 166z" />
    <glyph glyph-name="onequarter" unicode="&#xbc;" horiz-adv-x="660" 
d="M467 663l44 -22l-333 -660l-44 22zM246 334v-28h-215v28l61 11v261h-67v28l160 27v-316zM577 137h60l-8 -63h-52v-99h-90v99h-149l-11 48l162 217l30 42l58 -7v-237zM388 137h99v134z" />
    <glyph glyph-name="onehalf" unicode="&#xbd;" horiz-adv-x="682" 
d="M467 663l44 -22l-333 -660l-44 22zM246 334v-28h-215v28l61 11v261h-67v28l160 27v-316zM621 122l32 -4l-12 -118h-261l-5 35l65 57q58 51 77 83.5t19 66.5q0 40 -14.5 56.5t-39.5 16.5q-24 0 -40 -19.5t-23 -47.5l-37 19q13 40 43.5 67t81.5 27q57 0 93 -27.5t36 -79.5
q0 -46 -28.5 -75t-68.5 -60l-51 -39v-2h118z" />
    <glyph glyph-name="threequarters" unicode="&#xbe;" horiz-adv-x="667" 
d="M474 663l44 -22l-333 -660l-44 22zM584 139h60l-8 -63h-52v-101h-90v101h-150l-11 48l163 219l30 41l58 -7v-238zM173 491q46 -3 76 -25.5t30 -63.5q0 -58 -41 -86.5t-102 -28.5q-34 0 -61 11t-48 32l21 37q14 -16 31.5 -26.5t38.5 -10.5q29 0 45 18.5t16 50.5
q0 31 -17.5 48t-42.5 17q-11 0 -21 -1t-20 -4l-3 43h7q41 0 63.5 15.5t22.5 55.5q0 26 -13.5 38t-32.5 12t-34 -10.5t-22 -32.5l-32 20q14 32 42.5 49.5t68.5 17.5q51 0 85.5 -22.5t34.5 -65.5q0 -38 -24 -59t-68 -28v-1zM394 139h100v135z" />
    <glyph glyph-name="questiondown" unicode="&#xbf;" horiz-adv-x="411" 
d="M255 664q25 0 42.5 -17.5t17.5 -42.5t-17.5 -43t-42.5 -18t-43 18t-18 43t18 42.5t43 17.5zM332 114l46 -106q-23 -13 -58 -20.5t-61 -7.5q-47 0 -89 16t-73 45t-49.5 70t-18.5 91t15.5 90t41.5 68.5t62.5 46.5t78.5 25l1 71h53l2 -188q-84 -11 -124 -49.5t-40 -101.5
q0 -54 28 -86t73 -32q28 0 56 17.5t56 50.5z" />
    <glyph glyph-name="Agrave" unicode="&#xc0;" horiz-adv-x="544" 
d="M163 244h140l-70 238zM542 36v-36h-246v36l64 12l-42 145h-169l-42 -144l63 -13v-36h-168v35l44 14l188 599h75l189 -600zM233 890l101 -191l-24 -17l-158 149z" />
    <glyph glyph-name="Aacute" unicode="&#xc1;" horiz-adv-x="544" 
d="M163 244h140l-70 238zM542 36v-36h-246v36l64 12l-42 145h-169l-42 -144l63 -13v-36h-168v35l44 14l188 599h75l189 -600zM308 890l81 -60l-159 -148l-23 17z" />
    <glyph glyph-name="Acircumflex" unicode="&#xc2;" horiz-adv-x="544" 
d="M163 244h140l-70 238zM542 36v-36h-246v36l64 12l-42 145h-169l-42 -144l63 -13v-36h-168v35l44 14l188 599h75l189 -600zM285 887l112 -190l-25 -16l-102 99l-102 -99l-24 16l111 190h30z" />
    <glyph glyph-name="Atilde" unicode="&#xc3;" horiz-adv-x="544" 
d="M163 244h140l-70 238zM542 36v-36h-246v36l64 12l-42 145h-169l-42 -144l63 -13v-36h-168v35l44 14l188 599h75l189 -600zM395 829l26 -15q-4 -16 -13.5 -36t-22 -37t-28 -28.5t-31.5 -11.5q-15 0 -31 8t-31.5 18t-31 18t-28.5 8q-20 0 -34 -13t-22 -29l-27 15
q4 16 13.5 36t22 37t28 28.5t31.5 11.5t32 -8t31.5 -18t30.5 -18t29 -8q20 0 33.5 13t22.5 29z" />
    <glyph glyph-name="Adieresis" unicode="&#xc4;" horiz-adv-x="544" 
d="M163 244h140l-70 238zM542 36v-36h-246v36l64 12l-42 145h-169l-42 -144l63 -13v-36h-168v35l44 14l188 599h75l189 -600zM183 825q24 0 41 -17t17 -42t-17 -42t-41 -17q-25 0 -42 17t-17 42t17 42t42 17zM360 825q25 0 42 -17t17 -42t-17 -42t-42 -17q-24 0 -41.5 17
t-17.5 42t17.5 42t41.5 17z" />
    <glyph glyph-name="Aring" unicode="&#xc5;" horiz-adv-x="544" 
d="M271 677q19 0 29 18t10 43t-10 42.5t-29 17.5t-28.5 -17.5t-9.5 -42.5t9.5 -43t28.5 -18zM163 244h140l-70 238zM375 738q0 -34 -18 -59t-47 -35l188 -596l44 -12v-36h-246v36l64 12l-42 145h-169l-42 -144l63 -13v-36h-168v35l44 14l187 595q-29 10 -47 35t-18 59
q0 43 30 71t73 28q44 0 74 -28t30 -71z" />
    <glyph glyph-name="AE" unicode="&#xc6;" horiz-adv-x="711" 
d="M163 276h147v320h-26zM679 168v-168h-434v36l65 12v178h-166l-68 -177l61 -13v-36h-175v36l52 14l210 547l-60 11v36h501v-158h-49l-15 108h-164v-236h109l11 69h41v-189h-41l-11 70h-109v-256h176l15 116h51z" />
    <glyph glyph-name="Ccedilla" unicode="&#xc7;" horiz-adv-x="514" 
d="M218 -103l45 90q-105 10 -171.5 99.5t-66.5 231.5q0 75 19.5 138t55 107.5t86 69.5t112.5 25q40 0 72 -6.5t59 -20.5l11 26h43l-10 -198h-44l-16 102q-19 23 -45 36.5t-63 13.5t-63.5 -22.5t-43 -60.5t-24.5 -90.5t-8 -112.5q0 -54 9 -105t27.5 -89.5t46.5 -61.5t66 -23
q44 0 78 21.5t59 59.5l34 -34q-32 -49 -78 -77t-109 -30l-10 -45q32 -9 56.5 -31t24.5 -58q0 -54 -36.5 -80.5t-92.5 -26.5q-13 0 -32 4.5t-31 11.5l16 40q10 -7 24 -12t25 -5q19 0 35.5 10t16.5 38t-17 42t-60 23z" />
    <glyph glyph-name="Egrave" unicode="&#xc8;" horiz-adv-x="502" 
d="M466 168v-168h-436v36l65 12v548l-65 12v36h422v-158h-48l-15 108h-165v-236h110l10 69h42v-189h-42l-10 70h-110v-256h176l16 116h50zM229 890l101 -191l-24 -17l-158 149z" />
    <glyph glyph-name="Eacute" unicode="&#xc9;" horiz-adv-x="502" 
d="M466 168v-168h-436v36l65 12v548l-65 12v36h422v-158h-48l-15 108h-165v-236h110l10 69h42v-189h-42l-10 70h-110v-256h176l16 116h50zM285 890l81 -60l-159 -148l-23 17z" />
    <glyph glyph-name="Ecircumflex" unicode="&#xca;" horiz-adv-x="502" 
d="M466 168v-168h-436v36l65 12v548l-65 12v36h422v-158h-48l-15 108h-165v-236h110l10 69h42v-189h-42l-10 70h-110v-256h176l16 116h50zM273 887l112 -190l-25 -16l-102 99l-102 -99l-24 16l111 190h30z" />
    <glyph glyph-name="Edieresis" unicode="&#xcb;" horiz-adv-x="502" 
d="M466 168v-168h-436v36l65 12v548l-65 12v36h422v-158h-48l-15 108h-165v-236h110l10 69h42v-189h-42l-10 70h-110v-256h176l16 116h50zM170 825q24 0 41 -17t17 -42t-17 -42t-41 -17q-25 0 -42 17t-17 42t17 42t42 17zM347 825q25 0 42 -17t17 -42t-17 -42t-42 -17
q-24 0 -41.5 17t-17.5 42t17.5 42t41.5 17z" />
    <glyph glyph-name="Igrave" unicode="&#xcc;" horiz-adv-x="321" 
d="M290 36v-36h-259v36l65 12v548l-65 12v36h259v-36l-65 -12v-548zM127 889l101 -191l-24 -17l-158 149z" />
    <glyph glyph-name="Iacute" unicode="&#xcd;" horiz-adv-x="321" 
d="M290 36v-36h-259v36l65 12v548l-65 12v36h259v-36l-65 -12v-548zM194 890l81 -60l-159 -148l-23 17z" />
    <glyph glyph-name="Icircumflex" unicode="&#xce;" horiz-adv-x="321" 
d="M290 36v-36h-259v36l65 12v548l-65 12v36h259v-36l-65 -12v-548zM175 887l112 -190l-25 -16l-102 99l-102 -99l-24 16l111 190h30z" />
    <glyph glyph-name="Idieresis" unicode="&#xcf;" horiz-adv-x="321" 
d="M290 36v-36h-259v36l65 12v548l-65 12v36h259v-36l-65 -12v-548zM72 825q24 0 41 -17t17 -42t-17 -42t-41 -17q-25 0 -42 17t-17 42t17 42t42 17zM249 825q25 0 42 -17t17 -42t-17 -42t-42 -17q-24 0 -41.5 17t-17.5 42t17.5 42t41.5 17z" />
    <glyph glyph-name="Eth" unicode="&#xd0;" horiz-adv-x="585" 
d="M284 644q61 0 112.5 -22t88 -62.5t57 -99t20.5 -132.5q0 -75 -20 -136t-55.5 -103.5t-86 -65.5t-110.5 -23h-260v36l65 12v258h-65v54h65v236l-65 12v36h254zM262 43q83 0 121.5 76.5t38.5 204.5q0 129 -39 203t-123 74q-10 0 -18.5 -1t-17.5 -2v-238h90v-54h-90v-257
q7 -2 18 -4t20 -2z" />
    <glyph glyph-name="Ntilde" unicode="&#xd1;" horiz-adv-x="593" 
d="M580 644v-36l-65 -14v-598h-62l-308 473v-419l65 -14v-36h-188v36l66 14v510l-30 41l-37 9v34h168l268 -414v364l-65 14v36h188zM423 829l26 -15q-4 -16 -13.5 -36t-22 -37t-28 -28.5t-31.5 -11.5q-15 0 -31 8t-31.5 18t-31 18t-28.5 8q-20 0 -34 -13t-22 -29l-27 15
q4 16 13.5 36t22 37t28 28.5t31.5 11.5t32 -8t31.5 -18t30.5 -18t29 -8q20 0 33.5 13t22.5 29z" />
    <glyph glyph-name="Ograve" unicode="&#xd2;" horiz-adv-x="584" 
d="M293 658q57 0 105.5 -23.5t83.5 -66.5t55 -105.5t20 -138.5q0 -77 -20.5 -139.5t-56 -106.5t-84.5 -68t-106 -24t-105.5 23.5t-83.5 66.5t-55 105.5t-20 138.5q0 77 20.5 139.5t56 106.5t84.5 68t106 24zM293 33q62 0 92.5 74.5t30.5 212.5q0 137 -32 214t-94 77
q-61 0 -92 -74.5t-31 -212.5q0 -137 32.5 -214t93.5 -77zM260 890l101 -191l-24 -17l-158 149z" />
    <glyph glyph-name="Oacute" unicode="&#xd3;" horiz-adv-x="584" 
d="M293 658q57 0 105.5 -23.5t83.5 -66.5t55 -105.5t20 -138.5q0 -77 -20.5 -139.5t-56 -106.5t-84.5 -68t-106 -24t-105.5 23.5t-83.5 66.5t-55 105.5t-20 138.5q0 77 20.5 139.5t56 106.5t84.5 68t106 24zM293 33q62 0 92.5 74.5t30.5 212.5q0 137 -32 214t-94 77
q-61 0 -92 -74.5t-31 -212.5q0 -137 32.5 -214t93.5 -77zM323 890l81 -60l-159 -148l-23 17z" />
    <glyph glyph-name="Ocircumflex" unicode="&#xd4;" horiz-adv-x="584" 
d="M293 658q57 0 105.5 -23.5t83.5 -66.5t55 -105.5t20 -138.5q0 -77 -20.5 -139.5t-56 -106.5t-84.5 -68t-106 -24t-105.5 23.5t-83.5 66.5t-55 105.5t-20 138.5q0 77 20.5 139.5t56 106.5t84.5 68t106 24zM293 33q62 0 92.5 74.5t30.5 212.5q0 137 -32 214t-94 77
q-61 0 -92 -74.5t-31 -212.5q0 -137 32.5 -214t93.5 -77zM306 887l112 -190l-25 -16l-102 99l-102 -99l-24 16l111 190h30z" />
    <glyph glyph-name="Otilde" unicode="&#xd5;" horiz-adv-x="583" 
d="M293 658q57 0 105.5 -23.5t83.5 -66.5t55 -105.5t20 -138.5q0 -77 -20.5 -139.5t-56 -106.5t-84.5 -68t-106 -24t-105.5 23.5t-83.5 66.5t-55 105.5t-20 138.5q0 77 20.5 139.5t56 106.5t84.5 68t106 24zM293 33q62 0 92.5 74.5t30.5 212.5q0 137 -32 214t-94 77
q-61 0 -92 -74.5t-31 -212.5q0 -137 32.5 -214t93.5 -77zM417 829l26 -15q-4 -16 -13.5 -36t-22 -37t-28 -28.5t-31.5 -11.5q-15 0 -31 8t-31.5 18t-31 18t-28.5 8q-20 0 -34 -13t-22 -29l-27 15q4 16 13.5 36t22 37t28 28.5t31.5 11.5t32 -8t31.5 -18t30.5 -18t29 -8
q20 0 33.5 13t22.5 29z" />
    <glyph glyph-name="Odieresis" unicode="&#xd6;" horiz-adv-x="584" 
d="M293 658q57 0 105.5 -23.5t83.5 -66.5t55 -105.5t20 -138.5q0 -77 -20.5 -139.5t-56 -106.5t-84.5 -68t-106 -24t-105.5 23.5t-83.5 66.5t-55 105.5t-20 138.5q0 77 20.5 139.5t56 106.5t84.5 68t106 24zM293 33q62 0 92.5 74.5t30.5 212.5q0 137 -32 214t-94 77
q-61 0 -92 -74.5t-31 -212.5q0 -137 32.5 -214t93.5 -77zM203 825q24 0 41 -17t17 -42t-17 -42t-41 -17q-25 0 -42 17t-17 42t17 42t42 17zM380 825q25 0 42 -17t17 -42t-17 -42t-42 -17q-24 0 -41.5 17t-17.5 42t17.5 42t41.5 17z" />
    <glyph glyph-name="multiply" unicode="&#xd7;" horiz-adv-x="536" 
d="M305 300l152 -183l-46 -37l-144 174l-142 -174l-46 37l152 183l-152 182l46 37l142 -173l144 173l46 -37z" />
    <glyph glyph-name="Oslash" unicode="&#xd8;" horiz-adv-x="584" 
d="M187 171l191 373q-16 32 -38 49.5t-50 17.5q-61 0 -92 -74.5t-31 -212.5q0 -44 5 -83t15 -70zM293 33q62 0 92.5 74.5t30.5 212.5q0 44 -5 83t-14 70l-191 -373q15 -32 37 -49.5t50 -17.5zM456 596q47 -43 74 -112.5t27 -159.5q0 -77 -20.5 -139.5t-56 -106.5t-84.5 -68
t-106 -24q-34 0 -65.5 8.5t-58.5 24.5l-39 -78l-42 21l42 86q-46 43 -73.5 112.5t-27.5 159.5q0 77 20.5 139.5t56 106.5t84.5 68t106 24q34 0 66 -8.5t58 -24.5l40 78l41 -21z" />
    <glyph glyph-name="Ugrave" unicode="&#xd9;" horiz-adv-x="583" 
d="M571 644v-36l-61 -14v-369q0 -117 -51.5 -178t-162.5 -61q-110 0 -163 60.5t-53 179.5v370l-66 12v36h260v-36l-65 -12v-345q0 -90 22.5 -145.5t97.5 -55.5q73 0 98 54t25 144v346l-65 14v36h184zM281 890l101 -191l-24 -17l-158 149z" />
    <glyph glyph-name="Uacute" unicode="&#xda;" horiz-adv-x="583" 
d="M571 644v-36l-61 -14v-369q0 -117 -51.5 -178t-162.5 -61q-110 0 -163 60.5t-53 179.5v370l-66 12v36h260v-36l-65 -12v-345q0 -90 22.5 -145.5t97.5 -55.5q73 0 98 54t25 144v346l-65 14v36h184zM341 890l81 -60l-159 -148l-23 17z" />
    <glyph glyph-name="Ucircumflex" unicode="&#xdb;" horiz-adv-x="583" 
d="M571 644v-36l-61 -14v-369q0 -117 -51.5 -178t-162.5 -61q-110 0 -163 60.5t-53 179.5v370l-66 12v36h260v-36l-65 -12v-345q0 -90 22.5 -145.5t97.5 -55.5q73 0 98 54t25 144v346l-65 14v36h184zM336 887l112 -190l-25 -16l-102 99l-102 -99l-24 16l111 190h30z" />
    <glyph glyph-name="Udieresis" unicode="&#xdc;" horiz-adv-x="583" 
d="M571 644v-36l-61 -14v-369q0 -117 -51.5 -178t-162.5 -61q-110 0 -163 60.5t-53 179.5v370l-66 12v36h260v-36l-65 -12v-345q0 -90 22.5 -145.5t97.5 -55.5q73 0 98 54t25 144v346l-65 14v36h184zM231 825q24 0 41 -17t17 -42t-17 -42t-41 -17q-25 0 -42 17t-17 42t17 42
t42 17zM408 825q25 0 42 -17t17 -42t-17 -42t-42 -17q-24 0 -41.5 17t-17.5 42t17.5 42t41.5 17z" />
    <glyph glyph-name="Yacute" unicode="&#xdd;" horiz-adv-x="527" 
d="M525 644v-36l-45 -13l-148 -330v-217l70 -12v-36h-269v36l70 12v198l-157 349l-44 13v36h254v-36l-69 -11l117 -276l115 276l-69 11v36h175zM305 890l81 -60l-159 -148l-23 17z" />
    <glyph glyph-name="Thorn" unicode="&#xde;" horiz-adv-x="489" 
d="M259 193q46 0 66.5 43t20.5 115q0 61 -24 97.5t-68 36.5q-7 0 -15 -0.5t-15 -1.5v-286q7 -2 17.5 -3t17.5 -1zM270 527q93 0 149.5 -45t56.5 -125q0 -93 -55.5 -150.5t-161.5 -57.5q-6 0 -17 1t-18 2v-104l82 -12v-36h-276v36l65 12v548l-65 12v36h264v-36l-70 -12v-69
h46z" />
    <glyph glyph-name="germandbls" unicode="&#xdf;" horiz-adv-x="527" 
d="M420 268q51 -32 73.5 -64t22.5 -78q0 -62 -43.5 -102.5t-107.5 -40.5q-40 0 -77 10t-57 27l-2 116l34 3q6 -49 26 -81.5t63 -32.5q28 0 43.5 20t15.5 48q0 25 -19 47t-64 50q-46 28 -68.5 63.5t-22.5 84.5q0 46 27 80t70 54q4 16 6.5 41.5t2.5 43.5q0 44 -16 80t-52 36
q-42 0 -64.5 -35t-22.5 -117v-521h-171v32l51 11v333l-56 1v36l56 19v43q0 111 56 173.5t158 62.5q78 0 122.5 -44t44.5 -112q0 -18 -3.5 -44t-8.5 -43q-41 -10 -68 -33t-27 -63q0 -27 13.5 -50t64.5 -54z" />
    <glyph glyph-name="agrave" unicode="&#xe0;" horiz-adv-x="406" 
d="M403 67l7 -34q-16 -21 -39 -33t-50 -12q-34 0 -55.5 14.5t-31.5 44.5q-19 -26 -43 -42.5t-63 -16.5q-46 0 -79 34.5t-33 83.5q0 68 42.5 99t102.5 43l65 13v56q0 31 -13 51.5t-46 20.5q-31 0 -55.5 -18t-40.5 -47l-35 38q30 42 67.5 62t94.5 20q71 0 109 -35t38 -103
v-200q0 -28 8 -39.5t24 -11.5q7 0 13.5 3.5t12.5 8.5zM180 54q13 0 26 7t20 18v145l-43 -10q-28 -7 -43.5 -31.5t-15.5 -56.5q0 -29 15.5 -50.5t40.5 -21.5zM163 687l101 -191l-24 -17l-158 149z" />
    <glyph glyph-name="aacute" unicode="&#xe1;" horiz-adv-x="406" 
d="M403 67l7 -34q-16 -21 -39 -33t-50 -12q-34 0 -55.5 14.5t-31.5 44.5q-19 -26 -43 -42.5t-63 -16.5q-46 0 -79 34.5t-33 83.5q0 68 42.5 99t102.5 43l65 13v56q0 31 -13 51.5t-46 20.5q-31 0 -55.5 -18t-40.5 -47l-35 38q30 42 67.5 62t94.5 20q71 0 109 -35t38 -103
v-200q0 -28 8 -39.5t24 -11.5q7 0 13.5 3.5t12.5 8.5zM180 54q13 0 26 7t20 18v145l-43 -10q-28 -7 -43.5 -31.5t-15.5 -56.5q0 -29 15.5 -50.5t40.5 -21.5zM230 687l81 -60l-159 -148l-23 17z" />
    <glyph glyph-name="acircumflex" unicode="&#xe2;" horiz-adv-x="406" 
d="M403 67l7 -34q-16 -21 -39 -33t-50 -12q-34 0 -55.5 14.5t-31.5 44.5q-19 -26 -43 -42.5t-63 -16.5q-46 0 -79 34.5t-33 83.5q0 68 42.5 99t102.5 43l65 13v56q0 31 -13 51.5t-46 20.5q-31 0 -55.5 -18t-40.5 -47l-35 38q30 42 67.5 62t94.5 20q71 0 109 -35t38 -103
v-200q0 -28 8 -39.5t24 -11.5q7 0 13.5 3.5t12.5 8.5zM180 54q13 0 26 7t20 18v145l-43 -10q-28 -7 -43.5 -31.5t-15.5 -56.5q0 -29 15.5 -50.5t40.5 -21.5zM212 684l112 -190l-25 -16l-102 99l-102 -99l-24 16l111 190h30z" />
    <glyph glyph-name="atilde" unicode="&#xe3;" horiz-adv-x="406" 
d="M403 67l7 -34q-16 -21 -39 -33t-50 -12q-34 0 -55.5 14.5t-31.5 44.5q-19 -26 -43 -42.5t-63 -16.5q-46 0 -79 34.5t-33 83.5q0 68 42.5 99t102.5 43l65 13v56q0 31 -13 51.5t-46 20.5q-31 0 -55.5 -18t-40.5 -47l-35 38q30 42 67.5 62t94.5 20q71 0 109 -35t38 -103
v-200q0 -28 8 -39.5t24 -11.5q7 0 13.5 3.5t12.5 8.5zM180 54q13 0 26 7t20 18v145l-43 -10q-28 -7 -43.5 -31.5t-15.5 -56.5q0 -29 15.5 -50.5t40.5 -21.5zM322 626l26 -15q-4 -16 -13.5 -36t-22 -37t-28 -28.5t-31.5 -11.5q-15 0 -31 8t-31.5 18t-31 18t-28.5 8
q-20 0 -34 -13t-22 -29l-27 15q4 16 13.5 36t22 37t28 28.5t31.5 11.5t32 -8t31.5 -18t30.5 -18t29 -8q20 0 33.5 13t22.5 29z" />
    <glyph glyph-name="adieresis" unicode="&#xe4;" horiz-adv-x="406" 
d="M403 67l7 -34q-16 -21 -39 -33t-50 -12q-34 0 -55.5 14.5t-31.5 44.5q-19 -26 -43 -42.5t-63 -16.5q-46 0 -79 34.5t-33 83.5q0 68 42.5 99t102.5 43l65 13v56q0 31 -13 51.5t-46 20.5q-31 0 -55.5 -18t-40.5 -47l-35 38q30 42 67.5 62t94.5 20q71 0 109 -35t38 -103
v-200q0 -28 8 -39.5t24 -11.5q7 0 13.5 3.5t12.5 8.5zM180 54q13 0 26 7t20 18v145l-43 -10q-28 -7 -43.5 -31.5t-15.5 -56.5q0 -29 15.5 -50.5t40.5 -21.5zM108 622q24 0 41 -17t17 -42t-17 -42t-41 -17q-25 0 -42 17t-17 42t17 42t42 17zM285 622q25 0 42 -17t17 -42
t-17 -42t-42 -17q-24 0 -41.5 17t-17.5 42t17.5 42t41.5 17z" />
    <glyph glyph-name="aring" unicode="&#xe5;" horiz-adv-x="406" 
d="M403 67l7 -34q-16 -21 -39 -33t-50 -12q-34 0 -55.5 14.5t-31.5 44.5q-19 -26 -43 -42.5t-63 -16.5q-46 0 -79 34.5t-33 83.5q0 68 42.5 99t102.5 43l65 13v56q0 31 -13 51.5t-46 20.5q-31 0 -55.5 -18t-40.5 -47l-35 38q30 42 67.5 62t94.5 20q71 0 109 -35t38 -103
v-200q0 -28 8 -39.5t24 -11.5q7 0 13.5 3.5t12.5 8.5zM180 54q13 0 26 7t20 18v145l-43 -10q-28 -7 -43.5 -31.5t-15.5 -56.5q0 -29 15.5 -50.5t40.5 -21.5zM197 682q44 0 74 -28t30 -71q0 -44 -30 -72.5t-74 -28.5q-43 0 -73 28.5t-30 72.5q0 43 30 71t73 28zM197 522
q19 0 29 18t10 43t-10 42.5t-29 17.5t-28.5 -17.5t-9.5 -42.5t9.5 -43t28.5 -18z" />
    <glyph glyph-name="ae" unicode="&#xe6;" horiz-adv-x="612" 
d="M591 246v-20h-245v-20q0 -31 6 -60t18.5 -51.5t31.5 -36t45 -13.5q38 0 63.5 17t45.5 42l29 -36q-33 -40 -72 -60t-95 -20q-51 0 -89.5 20.5t-61.5 57.5h-2q-21 -29 -51 -53.5t-84 -24.5q-47 0 -80 34.5t-33 83.5q0 68 42 99t102 43l66 13v56q0 31 -13 51.5t-47 20.5
q-31 0 -55.5 -18t-40.5 -47l-35 38q31 42 67 62t95 20q41 0 65 -11t42 -34q23 23 52.5 33t65.5 10q82 0 125 -52.5t43 -143.5zM347 266l125 2q0 57 -10.5 97t-44.5 40q-36 0 -52 -41.5t-18 -97.5zM180 54q13 0 26 7t21 18v145l-44 -10q-28 -7 -43.5 -31.5t-15.5 -56.5
q0 -29 15.5 -50.5t40.5 -21.5z" />
    <glyph glyph-name="ccedilla" unicode="&#xe7;" horiz-adv-x="391" 
d="M142 -103l7 14.5t16 31.5t16 32l7 15q-73 9 -121.5 68.5t-48.5 157.5q0 47 14 88t40.5 71.5t64.5 48.5t86 18q25 0 51 -6.5t43 -19.5l12 24h35l-8 -143h-44q-7 51 -25.5 79.5t-55.5 28.5q-42 0 -64 -49t-22 -130q0 -84 26.5 -132.5t76.5 -48.5q28 0 53 14.5t44 42.5
l31 -36q-31 -40 -68 -58.5t-85 -19.5l-10 -47q32 -9 56.5 -31t24.5 -58q0 -54 -36.5 -80.5t-92.5 -26.5q-13 0 -32 4.5t-31 11.5l16 40q10 -7 24 -12t25 -5q19 0 35.5 10t16.5 38t-17 42t-60 23z" />
    <glyph glyph-name="egrave" unicode="&#xe8;" horiz-adv-x="412" 
d="M391 246v-20h-245v-20q0 -31 6 -60t18.5 -51.5t31.5 -36t45 -13.5q38 0 63.5 17t44.5 42l30 -36q-33 -40 -72 -60t-96 -20q-88 0 -143.5 62.5t-55.5 165.5q0 48 14.5 89.5t41 71.5t64.5 47.5t85 17.5q82 0 125 -52.5t43 -143.5zM147 266l124 2q0 57 -10 97t-44 40
q-36 0 -52 -41.5t-18 -97.5zM172 687l101 -191l-24 -17l-158 149z" />
    <glyph glyph-name="eacute" unicode="&#xe9;" horiz-adv-x="412" 
d="M391 246v-20h-245v-20q0 -31 6 -60t18.5 -51.5t31.5 -36t45 -13.5q38 0 63.5 17t44.5 42l30 -36q-33 -40 -72 -60t-96 -20q-88 0 -143.5 62.5t-55.5 165.5q0 48 14.5 89.5t41 71.5t64.5 47.5t85 17.5q82 0 125 -52.5t43 -143.5zM147 266l124 2q0 57 -10 97t-44 40
q-36 0 -52 -41.5t-18 -97.5zM249 687l81 -60l-159 -148l-23 17z" />
    <glyph glyph-name="ecircumflex" unicode="&#xea;" horiz-adv-x="412" 
d="M391 246v-20h-245v-20q0 -31 6 -60t18.5 -51.5t31.5 -36t45 -13.5q38 0 63.5 17t44.5 42l30 -36q-33 -40 -72 -60t-96 -20q-88 0 -143.5 62.5t-55.5 165.5q0 48 14.5 89.5t41 71.5t64.5 47.5t85 17.5q82 0 125 -52.5t43 -143.5zM147 266l124 2q0 57 -10 97t-44 40
q-36 0 -52 -41.5t-18 -97.5zM227 684l112 -190l-25 -16l-102 99l-102 -99l-24 16l111 190h30z" />
    <glyph glyph-name="edieresis" unicode="&#xeb;" horiz-adv-x="412" 
d="M391 246v-20h-245v-20q0 -31 6 -60t18.5 -51.5t31.5 -36t45 -13.5q38 0 63.5 17t44.5 42l30 -36q-33 -40 -72 -60t-96 -20q-88 0 -143.5 62.5t-55.5 165.5q0 48 14.5 89.5t41 71.5t64.5 47.5t85 17.5q82 0 125 -52.5t43 -143.5zM147 266l124 2q0 57 -10 97t-44 40
q-36 0 -52 -41.5t-18 -97.5zM124 622q24 0 41 -17t17 -42t-17 -42t-41 -17q-25 0 -42 17t-17 42t17 42t42 17zM301 622q25 0 42 -17t17 -42t-17 -42t-42 -17q-24 0 -41.5 17t-17.5 42t17.5 42t41.5 17z" />
    <glyph glyph-name="igrave" unicode="&#xec;" horiz-adv-x="252" 
d="M240 32v-32h-222v32l51 10v333l-51 10v34l171 22v-399zM90 687l101 -191l-24 -17l-158 149z" />
    <glyph glyph-name="iacute" unicode="&#xed;" horiz-adv-x="252" 
d="M240 32v-32h-222v32l51 10v333l-51 10v34l171 22v-399zM146 687l81 -60l-159 -148l-23 17z" />
    <glyph glyph-name="icircumflex" unicode="&#xee;" horiz-adv-x="252" 
d="M240 32v-32h-222v32l51 10v333l-51 10v34l171 22v-399zM133 684l112 -190l-25 -16l-102 99l-102 -99l-24 16l111 190h30z" />
    <glyph glyph-name="idieresis" unicode="&#xef;" horiz-adv-x="252" 
d="M39 622q25 0 42 -17t17 -42t-17 -42t-42 -17q-24 0 -41.5 17t-17.5 42t17.5 42t41.5 17zM200 622q25 0 42 -17t17 -42t-17 -42t-42 -17t-42 17t-17 42t17 42t42 17zM240 32v-32h-222v32l51 10v333l-51 10v34l171 22v-399z" />
    <glyph glyph-name="eth" unicode="&#xf0;" horiz-adv-x="446" 
d="M308 571q49 -63 80 -144t31 -177q0 -58 -13.5 -106.5t-39.5 -83t-63 -53.5t-83 -19q-87 0 -144.5 63t-57.5 164t57 164t143 63q13 0 28 -3t25 -10l1 1q-6 28 -16.5 54.5t-24.5 52.5l-107 -47l-20 38l105 47q-19 30 -44 58t-53 53l51 20q30 -19 59.5 -44.5t56.5 -55.5
l100 44l20 -38zM221 26q38 0 54 49.5t16 146.5q0 93 -17 138t-54 45q-38 0 -54.5 -48.5t-16.5 -141.5t17 -141t55 -48z" />
    <glyph glyph-name="ntilde" unicode="&#xf1;" horiz-adv-x="493" 
d="M485 32v-32h-215v32l45 10v319q-6 9 -16.5 14t-23.5 5q-46 0 -66 -44t-20 -119v-175l45 -10v-32h-216v32l51 10v334l-51 10v34l164 18v-96h1q19 53 53.5 76.5t77.5 23.5q62 0 91.5 -38.5t29.5 -102.5v-259zM369 626l26 -15q-4 -16 -13.5 -36t-22 -37t-28 -28.5
t-31.5 -11.5q-15 0 -31 8t-31.5 18t-31 18t-28.5 8q-20 0 -34 -13t-22 -29l-27 15q4 16 13.5 36t22 37t28 28.5t31.5 11.5t32 -8t31.5 -18t30.5 -18t29 -8q20 0 33.5 13t22.5 29z" />
    <glyph glyph-name="ograve" unicode="&#xf2;" horiz-adv-x="440" 
d="M220 442q87 0 144 -61.5t57 -164.5t-57 -165.5t-144 -62.5t-144.5 62.5t-57.5 165.5t57.5 164.5t144.5 61.5zM220 26q39 0 55 50t16 140q0 89 -16 139t-55 50q-40 0 -56 -50t-16 -139q0 -90 16.5 -140t55.5 -50zM184 687l101 -191l-24 -17l-158 149z" />
    <glyph glyph-name="oacute" unicode="&#xf3;" horiz-adv-x="440" 
d="M220 442q87 0 144 -61.5t57 -164.5t-57 -165.5t-144 -62.5t-144.5 62.5t-57.5 165.5t57.5 164.5t144.5 61.5zM220 26q39 0 55 50t16 140q0 89 -16 139t-55 50q-40 0 -56 -50t-16 -139q0 -90 16.5 -140t55.5 -50zM256 687l81 -60l-159 -148l-23 17z" />
    <glyph glyph-name="ocircumflex" unicode="&#xf4;" horiz-adv-x="440" 
d="M220 442q87 0 144 -61.5t57 -164.5t-57 -165.5t-144 -62.5t-144.5 62.5t-57.5 165.5t57.5 164.5t144.5 61.5zM220 26q39 0 55 50t16 140q0 89 -16 139t-55 50q-40 0 -56 -50t-16 -139q0 -90 16.5 -140t55.5 -50zM235 684l112 -190l-25 -16l-102 99l-102 -99l-24 16
l111 190h30z" />
    <glyph glyph-name="otilde" unicode="&#xf5;" horiz-adv-x="440" 
d="M220 442q87 0 144 -61.5t57 -164.5t-57 -165.5t-144 -62.5t-144.5 62.5t-57.5 165.5t57.5 164.5t144.5 61.5zM220 26q39 0 55 50t16 140q0 89 -16 139t-55 50q-40 0 -56 -50t-16 -139q0 -90 16.5 -140t55.5 -50zM344 626l26 -15q-4 -16 -13.5 -36t-22 -37t-28 -28.5
t-31.5 -11.5q-15 0 -31 8t-31.5 18t-31 18t-28.5 8q-20 0 -34 -13t-22 -29l-27 15q4 16 13.5 36t22 37t28 28.5t31.5 11.5t32 -8t31.5 -18t30.5 -18t29 -8q20 0 33.5 13t22.5 29z" />
    <glyph glyph-name="odieresis" unicode="&#xf6;" horiz-adv-x="440" 
d="M220 442q87 0 144 -61.5t57 -164.5t-57 -165.5t-144 -62.5t-144.5 62.5t-57.5 165.5t57.5 164.5t144.5 61.5zM220 26q39 0 55 50t16 140q0 89 -16 139t-55 50q-40 0 -56 -50t-16 -139q0 -90 16.5 -140t55.5 -50zM132 622q24 0 41 -17t17 -42t-17 -42t-41 -17
q-25 0 -42 17t-17 42t17 42t42 17zM309 622q25 0 42 -17t17 -42t-17 -42t-42 -17q-24 0 -41.5 17t-17.5 42t17.5 42t41.5 17z" />
    <glyph glyph-name="divide" unicode="&#xf7;" horiz-adv-x="536" 
d="M267 526q26 0 44.5 -18.5t18.5 -43.5t-18.5 -43.5t-44.5 -18.5q-25 0 -43 18.5t-18 43.5t18 43.5t43 18.5zM463 326v-59h-391v59h391zM267 191q26 0 44.5 -18.5t18.5 -43.5t-18.5 -43t-44.5 -18q-25 0 -43 18t-18 43t18 43.5t43 18.5z" />
    <glyph glyph-name="oslash" unicode="&#xf8;" horiz-adv-x="440" 
d="M154 135l120 222q-8 24 -21.5 36t-32.5 12q-40 0 -56 -50t-16 -139q0 -21 1.5 -43.5t4.5 -37.5zM220 26q39 0 55 50t16 140q0 20 -1 42.5t-4 36.5l-120 -221q8 -23 21.5 -35.5t32.5 -12.5zM341 402q37 -28 58.5 -76.5t21.5 -109.5q0 -103 -57 -165.5t-144 -62.5
q-24 0 -46.5 5t-41.5 15l-36 -67l-34 18l37 70q-37 28 -59 76.5t-22 110.5q0 103 57.5 164.5t144.5 61.5q24 0 46.5 -5t41.5 -15l36 67l34 -18z" />
    <glyph glyph-name="ugrave" unicode="&#xf9;" horiz-adv-x="476" 
d="M470 41v-34l-163 -14v96h-2q-19 -53 -53.5 -77t-77.5 -24q-62 0 -91.5 38.5t-29.5 103.5v253l-50 12v32h170v-356q6 -10 16.5 -15.5t22.5 -5.5q46 0 66.5 44.5t20.5 117.5v173l-56 10v32h176v-377zM202 687l101 -191l-24 -17l-158 149z" />
    <glyph glyph-name="uacute" unicode="&#xfa;" horiz-adv-x="476" 
d="M470 41v-34l-163 -14v96h-2q-19 -53 -53.5 -77t-77.5 -24q-62 0 -91.5 38.5t-29.5 103.5v253l-50 12v32h170v-356q6 -10 16.5 -15.5t22.5 -5.5q46 0 66.5 44.5t20.5 117.5v173l-56 10v32h176v-377zM258 687l81 -60l-159 -148l-23 17z" />
    <glyph glyph-name="ucircumflex" unicode="&#xfb;" horiz-adv-x="476" 
d="M470 41v-34l-163 -14v96h-2q-19 -53 -53.5 -77t-77.5 -24q-62 0 -91.5 38.5t-29.5 103.5v253l-50 12v32h170v-356q6 -10 16.5 -15.5t22.5 -5.5q46 0 66.5 44.5t20.5 117.5v173l-56 10v32h176v-377zM245 684l112 -190l-25 -16l-102 99l-102 -99l-24 16l111 190h30z" />
    <glyph glyph-name="udieresis" unicode="&#xfc;" horiz-adv-x="476" 
d="M470 41v-34l-163 -14v96h-2q-19 -53 -53.5 -77t-77.5 -24q-62 0 -91.5 38.5t-29.5 103.5v253l-50 12v32h170v-356q6 -10 16.5 -15.5t22.5 -5.5q46 0 66.5 44.5t20.5 117.5v173l-56 10v32h176v-377zM143 622q24 0 41 -17t17 -42t-17 -42t-41 -17q-25 0 -42 17t-17 42
t17 42t42 17zM320 622q25 0 42 -17t17 -42t-17 -42t-42 -17q-24 0 -41.5 17t-17.5 42t17.5 42t41.5 17z" />
    <glyph glyph-name="yacute" unicode="&#xfd;" horiz-adv-x="428" 
d="M426 427v-32l-36 -10l-146 -410l-60 -207l-115 7l116 208l-147 402l-36 10v32h215v-32l-54 -8l86 -266l86 266l-54 8v32h145zM271 687l81 -60l-159 -148l-23 17z" />
    <glyph glyph-name="thorn" unicode="&#xfe;" horiz-adv-x="456" 
d="M225 30q20 0 36.5 14.5t27.5 39.5t17 58.5t6 71.5q0 69 -15.5 117.5t-63.5 48.5q-20 0 -38.5 -16t-24.5 -44v-264q9 -13 24 -19.5t31 -6.5zM284 442q65 0 109 -57t44 -160q0 -53 -15.5 -97t-42 -75t-61.5 -48t-75 -17q-20 0 -39.5 4.5t-33.5 15.5v-192l80 -10v-32h-251
v32l51 10v820l-51 10v33l171 16v-319q19 34 47 50t67 16z" />
    <glyph glyph-name="ydieresis" unicode="&#xff;" horiz-adv-x="428" 
d="M426 427v-32l-36 -10l-146 -410l-60 -207l-115 7l116 208l-147 402l-36 10v32h215v-32l-54 -8l86 -266l86 266l-54 8v32h145zM153 622q24 0 41 -17t17 -42t-17 -42t-41 -17q-25 0 -42 17t-17 42t17 42t42 17zM330 622q25 0 42 -17t17 -42t-17 -42t-42 -17q-24 0 -41.5 17
t-17.5 42t17.5 42t41.5 17z" />
    <glyph glyph-name="OE" unicode="&#x152;" horiz-adv-x="784" 
d="M304 38q22 0 42.5 6.5t35.5 20.5v514q-16 14 -37.5 20.5t-43.5 6.5q-67 0 -100.5 -72t-33.5 -210q0 -137 35 -211.5t102 -74.5zM752 168v-168h-372q-16 -4 -38 -6t-41 -2q-62 0 -113 24t-87 67.5t-55.5 104.5t-19.5 134t20 134t56 104.5t87 67.5t113 24q21 0 43.5 -2.5
t35.5 -5.5h357v-158h-48l-16 108h-164v-236h110l10 69h41v-189h-41l-10 70h-110v-256h176l16 116h50z" />
    <glyph glyph-name="oe" unicode="&#x153;" horiz-adv-x="688" 
d="M667 246v-20h-246v-20q0 -31 6 -60t18.5 -51.5t32 -36t45.5 -13.5q37 0 63 17t45 42l30 -36q-34 -40 -73 -60t-95 -20q-45 0 -78.5 17t-58.5 47q-22 -29 -56 -46.5t-80 -17.5q-87 0 -144.5 62.5t-57.5 165.5t57.5 164.5t144.5 61.5q46 0 81 -18t57 -48q22 30 56.5 48
t83.5 18q83 0 126 -52.5t43 -143.5zM220 26q39 0 55 50t16 140q0 89 -16 139t-55 50q-40 0 -56 -50t-16 -139q0 -90 16.5 -140t55.5 -50zM423 266l124 2q0 57 -10.5 97t-44.5 40q-35 0 -51.5 -41.5t-17.5 -97.5z" />
    <glyph glyph-name="Ydieresis" unicode="&#x178;" horiz-adv-x="527" 
d="M525 644v-36l-45 -13l-148 -330v-217l70 -12v-36h-269v36l70 12v198l-157 349l-44 13v36h254v-36l-69 -11l117 -276l115 276l-69 11v36h175zM208 827q24 0 41 -17t17 -42t-17 -42t-41 -17q-25 0 -42 17t-17 42t17 42t42 17zM385 827q25 0 42 -17t17 -42t-17 -42t-42 -17
q-24 0 -41.5 17t-17.5 42t17.5 42t41.5 17z" />
    <glyph glyph-name="tilde" unicode="&#x2dc;" 
d="M332 626l26 -15q-4 -16 -13.5 -36t-22 -37t-28 -28.5t-31.5 -11.5q-15 0 -31 8t-31.5 18t-31 18t-28.5 8q-20 0 -34 -13t-22 -29l-27 15q4 16 13.5 36t22 37t28 28.5t31.5 11.5t32 -8t31.5 -18t30.5 -18t29 -8q20 0 33.5 13t22.5 29z" />
    <glyph glyph-name="endash" unicode="&#x2013;" horiz-adv-x="450" 
d="M408 271v-60h-367v60h367z" />
    <glyph glyph-name="emdash" unicode="&#x2014;" horiz-adv-x="750" 
d="M708 271v-60h-667v60h667z" />
    <glyph glyph-name="quoteleft" unicode="&#x2018;" horiz-adv-x="203" 
d="M159 513q4 -6 7 -14.5t3 -19.5q0 -25 -17 -40t-42 -15q-42 0 -63.5 28.5t-21.5 71.5q0 55 26 93t79 57l23 -38q-34 -10 -56 -34.5t-22 -53.5z" />
    <glyph glyph-name="quoteright" unicode="&#x2019;" horiz-adv-x="203" 
d="M91 674q42 0 63.5 -28.5t21.5 -71.5q0 -55 -26 -93t-80 -57l-22 39q34 10 55.5 34t21.5 54l-83 34q-5 6 -8 14.5t-3 20.5q0 24 17.5 39t42.5 15z" />
    <glyph glyph-name="quotedblleft" unicode="&#x201c;" horiz-adv-x="386" 
d="M159 513q4 -6 7 -14.5t3 -19.5q0 -25 -17 -40t-42 -15q-42 0 -63.5 28.5t-21.5 71.5q0 55 26 93t79 57l23 -38q-34 -10 -56 -34.5t-22 -53.5zM342 513q4 -6 7.5 -14.5t3.5 -19.5q0 -25 -17.5 -40t-42.5 -15q-42 0 -63.5 28.5t-21.5 71.5q0 55 26 93t80 57l22 -38
q-34 -10 -55.5 -34.5t-21.5 -53.5z" />
    <glyph glyph-name="quotedblright" unicode="&#x201d;" horiz-adv-x="386" 
d="M91 674q42 0 63.5 -28.5t21.5 -71.5q0 -55 -26 -93t-80 -57l-22 39q34 10 55.5 34t21.5 54l-83 34q-5 6 -8 14.5t-3 20.5q0 24 17.5 39t42.5 15zM273 674q43 0 64.5 -28.5t21.5 -71.5q0 -55 -26 -93t-80 -57l-22 40q34 10 55.5 33.5t21.5 53.5l-83 34q-4 6 -7.5 14.5
t-3.5 20.5q0 24 17.5 39t41.5 15z" />
    <glyph glyph-name="quotedblbase" unicode="&#x201e;" horiz-adv-x="402" 
d="M98 128q43 0 64 -28.5t21 -71.5q0 -55 -25.5 -93t-79.5 -57l-22 38q34 10 55.5 34t21.5 54l-83 35q-5 6 -8 14.5t-3 19.5q0 25 17 40t42 15zM282 128q42 0 63.5 -28.5t21.5 -71.5q0 -55 -26 -93t-80 -57l-22 40q34 10 55.5 33t21.5 53l-83 35q-5 6 -8 14.5t-3 19.5
q0 25 17.5 40t42.5 15z" />
    <glyph glyph-name="bullet" unicode="&#x2022;" horiz-adv-x="372" 
d="M185 423q44 0 75.5 -31.5t31.5 -75.5t-31.5 -75.5t-75.5 -31.5t-75 31.5t-31 75.5t31 75.5t75 31.5z" />
    <glyph glyph-name="ellipsis" unicode="&#x2026;" horiz-adv-x="1014" 
d="M196 127q28 0 48 -20t20 -48t-20 -47.5t-48 -19.5t-48 19.5t-20 47.5t20 48t48 20zM507 127q28 0 48 -20t20 -48t-20 -47.5t-48 -19.5t-48 19.5t-20 47.5t20 48t48 20zM818 127q28 0 48 -20t20 -48t-20 -47.5t-48 -19.5t-48 19.5t-20 47.5t20 48t48 20z" />
    <glyph glyph-name="guilsinglleft" unicode="&#x2039;" horiz-adv-x="293" 
d="M155 223l70 -167l-22 -15l-152 182l152 181l22 -15z" />
    <glyph glyph-name="guilsinglright" unicode="&#x203a;" horiz-adv-x="293" 
d="M90 404l152 -181l-152 -182l-23 15l71 167l-71 166z" />
    <glyph glyph-name="Euro" unicode="&#x20ac;" horiz-adv-x="571" 
d="M346 658q49 0 89 -7.5t85 -26.5l-8 -158h-43l-15 105q-19 20 -43.5 30.5t-62.5 10.5q-32 0 -55 -17.5t-38 -46t-23.5 -66.5t-11.5 -78h240l-12 -47h-231v-24q0 -13 0.5 -28t1.5 -30h208l-12 -47h-191q5 -37 15.5 -72.5t27.5 -62t41.5 -43t56.5 -16.5q25 0 50 7t43 23
l17 102h43l-6 -141q-37 -19 -79.5 -29t-94.5 -10t-94.5 18.5t-73 50.5t-51 76.5t-29.5 96.5h-77l11 47h60q-1 10 -1.5 21.5t-0.5 23.5q0 9 0.5 18.5t1.5 18.5h-71l11 47h65q8 53 28 100t52 81t76.5 53.5t100.5 19.5z" />
    <glyph glyph-name="trademark" unicode="&#x2122;" horiz-adv-x="431" 
d="M176 644v-54h-18l-5 36h-34v-148l21 -4v-15h-83v15l21 4v148h-34l-5 -36h-17v54h154zM414 474v-15h-83v15l21 4l-4 135l-51 -154h-16l-51 153l-3 -134l21 -4v-15h-62v15l20 4l3 148l-20 3v15h73l37 -114l38 114h72v-15l-21 -3l5 -148z" />
    <glyph glyph-name="dotlessi" horiz-adv-x="252" 
d="M240 32v-32h-222v32l51 10v333l-51 10v34l171 22v-399z" />
    <glyph glyph-name="circumflex" 
d="M223 684l112 -190l-25 -16l-102 99l-102 -99l-24 16l111 190h30z" />
    <glyph glyph-name="ring" 
d="M208 682q44 0 74 -28t30 -71q0 -44 -30 -72.5t-74 -28.5q-43 0 -73 28.5t-30 72.5q0 43 30 71t73 28zM208 522q19 0 29 18t10 43t-10 42.5t-29 17.5t-28.5 -17.5t-9.5 -42.5t9.5 -43t28.5 -18z" />
    <glyph glyph-name="hyphen.uc" horiz-adv-x="288" 
d="M243 358v-71l-198 -22v70z" />
    <glyph glyph-name="endash.uc" horiz-adv-x="503" 
d="M435 344v-60h-367v60h367z" />
    <glyph glyph-name="parenleft.uc" horiz-adv-x="304" 
d="M148 318q0 -50 6.5 -103t20.5 -102.5t36 -94.5t54 -80l-24 -28q-44 33 -80.5 78.5t-62.5 98.5t-40 112t-14 119t14 119t40 112t62.5 98.5t80.5 78.5l24 -28q-32 -35 -54 -80t-36 -94.5t-20.5 -102.5t-6.5 -103z" />
    <glyph glyph-name="parenright.uc" horiz-adv-x="304" 
d="M62 726q45 -33 81.5 -78.5t62 -98.5t39.5 -112t14 -119t-14 -119t-39.5 -112t-62 -98.5t-81.5 -78.5l-24 28q32 35 54 80t36 94.5t20.5 102.5t6.5 103t-6.5 103t-20.5 102.5t-36 94.5t-54 80z" />
    <glyph glyph-name="bullet.salt_diamond" horiz-adv-x="368" 
d="M184 441l125 -125l-125 -125l-125 125z" />
    <glyph glyph-name="asterisk.salt_centered" horiz-adv-x="500" 
d="M398 182l41 -23l-43 -74l-41 24l-95 93l33 -130v-46h-86v46l33 130l-95 -93l-42 -24l-42 74l41 23l128 37l-128 37l-41 23l42 74l42 -24l95 -93l-32 130v47h84v-47l-32 -130l95 93l41 24l43 -74l-41 -23l-128 -37z" />
    <glyph glyph-name="bullet.salt_diamondcentered" horiz-adv-x="500" 
d="M250 364l145 -145l-145 -145l-145 145z" />
    </font>
</defs>
</svg>
